<?xml version="1.0" encoding="utf-8"?>
<!-- Generator: Adobe Illustrator 23.0.1, SVG Export Plug-In . SVG Version: 6.00 Build 0)  -->
<svg version="1.1" id="Layer_1" xmlns="http://www.w3.org/2000/svg" xmlns:xlink="http://www.w3.org/1999/xlink" x="0px" y="0px"
	 viewBox="0 0 328.61 153.21" style="enable-background:new 0 0 328.61 153.21;" xml:space="preserve">
<style type="text/css">
	.st0{clip-path:url(#SVGID_2_);fill:#C39231;}
	.st1{clip-path:url(#SVGID_2_);fill:#C39331;}
	.st2{clip-path:url(#SVGID_2_);fill:#C49431;}
	.st3{clip-path:url(#SVGID_2_);fill:#C59532;}
	.st4{clip-path:url(#SVGID_2_);fill:#C69632;}
	.st5{clip-path:url(#SVGID_2_);fill:#C79733;}
	.st6{clip-path:url(#SVGID_2_);fill:#C79834;}
	.st7{clip-path:url(#SVGID_2_);fill:#C89935;}
	.st8{clip-path:url(#SVGID_2_);fill:#C99A36;}
	.st9{clip-path:url(#SVGID_2_);fill:#CA9B37;}
	.st10{clip-path:url(#SVGID_2_);fill:#CA9C38;}
	.st11{clip-path:url(#SVGID_2_);fill:#CB9D39;}
	.st12{clip-path:url(#SVGID_2_);fill:#CC9E3A;}
	.st13{clip-path:url(#SVGID_2_);fill:#CC9F3B;}
	.st14{clip-path:url(#SVGID_2_);fill:#CDA03C;}
	.st15{clip-path:url(#SVGID_2_);fill:#CEA13D;}
	.st16{clip-path:url(#SVGID_2_);fill:#CEA23E;}
	.st17{clip-path:url(#SVGID_2_);fill:#CFA33F;}
	.st18{clip-path:url(#SVGID_2_);fill:#D0A440;}
	.st19{clip-path:url(#SVGID_2_);fill:#D1A541;}
	.st20{clip-path:url(#SVGID_2_);fill:#D1A642;}
	.st21{clip-path:url(#SVGID_2_);fill:#D2A743;}
	.st22{clip-path:url(#SVGID_2_);fill:#D3A844;}
	.st23{clip-path:url(#SVGID_4_);fill:#C69632;}
	.st24{clip-path:url(#SVGID_4_);fill:#C79733;}
	.st25{clip-path:url(#SVGID_4_);fill:#C79834;}
	.st26{clip-path:url(#SVGID_4_);fill:#C89935;}
	.st27{clip-path:url(#SVGID_4_);fill:#C99A36;}
	.st28{clip-path:url(#SVGID_4_);fill:#CA9B37;}
	.st29{clip-path:url(#SVGID_4_);fill:#CA9C38;}
	.st30{clip-path:url(#SVGID_4_);fill:#CB9D39;}
	.st31{clip-path:url(#SVGID_4_);fill:#CC9E3A;}
	.st32{clip-path:url(#SVGID_4_);fill:#CC9F3B;}
	.st33{clip-path:url(#SVGID_4_);fill:#CDA03C;}
	.st34{clip-path:url(#SVGID_4_);fill:#CEA13D;}
	.st35{clip-path:url(#SVGID_4_);fill:#CEA23E;}
	.st36{clip-path:url(#SVGID_4_);fill:#CFA33F;}
	.st37{clip-path:url(#SVGID_4_);fill:#D0A440;}
	.st38{clip-path:url(#SVGID_4_);fill:#D1A541;}
	.st39{clip-path:url(#SVGID_4_);fill:#D1A642;}
	.st40{clip-path:url(#SVGID_4_);fill:#D2A743;}
	.st41{clip-path:url(#SVGID_4_);fill:#D3A844;}
	.st42{clip-path:url(#SVGID_4_);fill:#D3A945;}
	.st43{clip-path:url(#SVGID_4_);fill:#D4AA46;}
	.st44{clip-path:url(#SVGID_4_);fill:#D5AB47;}
	.st45{clip-path:url(#SVGID_4_);fill:#D5AC48;}
	.st46{clip-path:url(#SVGID_4_);fill:#D6AD49;}
	.st47{clip-path:url(#SVGID_4_);fill:#D7AE4A;}
	.st48{clip-path:url(#SVGID_4_);fill:#D8AF4B;}
	.st49{clip-path:url(#SVGID_4_);fill:#D8B04C;}
	.st50{clip-path:url(#SVGID_4_);fill:#D9B14D;}
	.st51{clip-path:url(#SVGID_4_);fill:#DAB24E;}
	.st52{clip-path:url(#SVGID_4_);fill:#DAB34F;}
	.st53{clip-path:url(#SVGID_4_);fill:#DBB450;}
	.st54{clip-path:url(#SVGID_4_);fill:#DCB551;}
	.st55{clip-path:url(#SVGID_4_);fill:#DDB652;}
	.st56{clip-path:url(#SVGID_4_);fill:#DDB753;}
	.st57{clip-path:url(#SVGID_4_);fill:#DEB854;}
	.st58{clip-path:url(#SVGID_4_);fill:#DFB955;}
	.st59{clip-path:url(#SVGID_4_);fill:#DFBB57;}
	.st60{clip-path:url(#SVGID_4_);fill:#E0BC58;}
	.st61{clip-path:url(#SVGID_4_);fill:#E1BD59;}
	.st62{clip-path:url(#SVGID_4_);fill:#E1BE5A;}
	.st63{clip-path:url(#SVGID_4_);fill:#E2BF5B;}
	.st64{clip-path:url(#SVGID_4_);fill:#E3C05C;}
	.st65{clip-path:url(#SVGID_4_);fill:#E4C15D;}
	.st66{clip-path:url(#SVGID_4_);fill:#E4C25E;}
	.st67{clip-path:url(#SVGID_4_);fill:#E5C35F;}
	.st68{clip-path:url(#SVGID_4_);fill:#E6C460;}
	.st69{clip-path:url(#SVGID_4_);fill:#E6C561;}
	.st70{clip-path:url(#SVGID_4_);fill:#E7C662;}
	.st71{clip-path:url(#SVGID_4_);fill:#E8C763;}
	.st72{clip-path:url(#SVGID_4_);fill:#E9C864;}
	.st73{clip-path:url(#SVGID_4_);fill:#E9C965;}
	.st74{clip-path:url(#SVGID_4_);fill:#EACA66;}
	.st75{clip-path:url(#SVGID_4_);fill:#EBCB67;}
	.st76{clip-path:url(#SVGID_4_);fill:#EBCC68;}
	.st77{clip-path:url(#SVGID_4_);fill:#ECCD69;}
	.st78{clip-path:url(#SVGID_4_);fill:#EDCE6A;}
	.st79{clip-path:url(#SVGID_4_);fill:#EDCF6B;}
	.st80{clip-path:url(#SVGID_4_);fill:#EED06C;}
	.st81{clip-path:url(#SVGID_4_);fill:#EFD16D;}
	.st82{clip-path:url(#SVGID_4_);fill:#F0D26E;}
	.st83{clip-path:url(#SVGID_4_);fill:#F0D36F;}
	.st84{clip-path:url(#SVGID_4_);fill:#F1D470;}
	.st85{clip-path:url(#SVGID_4_);fill:#F2D571;}
	.st86{clip-path:url(#SVGID_4_);fill:#F2D672;}
	.st87{clip-path:url(#SVGID_4_);fill:#F3D773;}
	.st88{clip-path:url(#SVGID_4_);fill:#F4D874;}
	.st89{clip-path:url(#SVGID_4_);fill:#F4D975;}
	.st90{clip-path:url(#SVGID_4_);fill:#F5DA76;}
	.st91{clip-path:url(#SVGID_4_);fill:#F6DB77;}
	.st92{clip-path:url(#SVGID_4_);fill:#F7DC78;}
	.st93{clip-path:url(#SVGID_4_);fill:#F7DD79;}
	.st94{clip-path:url(#SVGID_4_);fill:#F8DE7A;}
	.st95{clip-path:url(#SVGID_4_);fill:#F6DB76;}
	.st96{clip-path:url(#SVGID_4_);fill:#F5DA75;}
	.st97{clip-path:url(#SVGID_4_);fill:#F4D974;}
	.st98{clip-path:url(#SVGID_4_);fill:#F4D873;}
	.st99{clip-path:url(#SVGID_4_);fill:#F3D772;}
	.st100{clip-path:url(#SVGID_4_);fill:#F3D671;}
	.st101{clip-path:url(#SVGID_4_);fill:#F2D670;}
	.st102{clip-path:url(#SVGID_4_);fill:#F1D56F;}
	.st103{clip-path:url(#SVGID_4_);fill:#F1D46E;}
	.st104{clip-path:url(#SVGID_4_);fill:#F0D36D;}
	.st105{clip-path:url(#SVGID_4_);fill:#F0D26C;}
	.st106{clip-path:url(#SVGID_4_);fill:#EFD16B;}
	.st107{clip-path:url(#SVGID_4_);fill:#EED06A;}
	.st108{clip-path:url(#SVGID_4_);fill:#EED069;}
	.st109{clip-path:url(#SVGID_4_);fill:#EDCF68;}
	.st110{clip-path:url(#SVGID_4_);fill:#EDCE67;}
	.st111{clip-path:url(#SVGID_6_);fill:#C39231;}
	.st112{clip-path:url(#SVGID_6_);fill:#C39331;}
	.st113{clip-path:url(#SVGID_6_);fill:#C49431;}
	.st114{clip-path:url(#SVGID_6_);fill:#C59532;}
	.st115{clip-path:url(#SVGID_6_);fill:#C69632;}
	.st116{clip-path:url(#SVGID_6_);fill:#C79733;}
	.st117{clip-path:url(#SVGID_6_);fill:#C79834;}
	.st118{clip-path:url(#SVGID_6_);fill:#C89935;}
	.st119{clip-path:url(#SVGID_6_);fill:#C99A36;}
	.st120{clip-path:url(#SVGID_6_);fill:#CA9B37;}
	.st121{clip-path:url(#SVGID_6_);fill:#CA9C38;}
	.st122{clip-path:url(#SVGID_6_);fill:#CB9D39;}
	.st123{clip-path:url(#SVGID_6_);fill:#CC9E3A;}
	.st124{clip-path:url(#SVGID_6_);fill:#CC9F3B;}
	.st125{clip-path:url(#SVGID_6_);fill:#CDA03C;}
	.st126{clip-path:url(#SVGID_6_);fill:#CEA13D;}
	.st127{clip-path:url(#SVGID_6_);fill:#CEA23E;}
	.st128{clip-path:url(#SVGID_6_);fill:#CFA33F;}
	.st129{clip-path:url(#SVGID_6_);fill:#D0A440;}
	.st130{clip-path:url(#SVGID_6_);fill:#D1A541;}
	.st131{clip-path:url(#SVGID_6_);fill:#D1A642;}
	.st132{clip-path:url(#SVGID_6_);fill:#D2A743;}
	.st133{clip-path:url(#SVGID_6_);fill:#D3A844;}
	.st134{clip-path:url(#SVGID_6_);fill:#D3A945;}
	.st135{clip-path:url(#SVGID_6_);fill:#D4AA46;}
	.st136{clip-path:url(#SVGID_6_);fill:#D5AB47;}
	.st137{clip-path:url(#SVGID_6_);fill:#D5AC48;}
	.st138{clip-path:url(#SVGID_6_);fill:#D6AD49;}
	.st139{clip-path:url(#SVGID_6_);fill:#D7AE4A;}
	.st140{clip-path:url(#SVGID_6_);fill:#D8AF4B;}
	.st141{clip-path:url(#SVGID_6_);fill:#D8B04C;}
	.st142{clip-path:url(#SVGID_6_);fill:#D9B14D;}
	.st143{clip-path:url(#SVGID_6_);fill:#DAB24E;}
	.st144{clip-path:url(#SVGID_6_);fill:#DAB34F;}
	.st145{clip-path:url(#SVGID_6_);fill:#DBB450;}
	.st146{clip-path:url(#SVGID_6_);fill:#DCB551;}
	.st147{clip-path:url(#SVGID_6_);fill:#DDB652;}
	.st148{clip-path:url(#SVGID_6_);fill:#DDB753;}
	.st149{clip-path:url(#SVGID_6_);fill:#DEB854;}
	.st150{clip-path:url(#SVGID_6_);fill:#DFB955;}
	.st151{clip-path:url(#SVGID_6_);fill:#DFBB57;}
	.st152{clip-path:url(#SVGID_6_);fill:#E0BC58;}
	.st153{clip-path:url(#SVGID_6_);fill:#E1BD59;}
	.st154{clip-path:url(#SVGID_6_);fill:#E1BE5A;}
	.st155{clip-path:url(#SVGID_6_);fill:#E2BF5B;}
	.st156{clip-path:url(#SVGID_6_);fill:#E3C05C;}
	.st157{clip-path:url(#SVGID_6_);fill:#E4C15D;}
	.st158{clip-path:url(#SVGID_6_);fill:#E4C25E;}
	.st159{clip-path:url(#SVGID_6_);fill:#E5C35F;}
	.st160{clip-path:url(#SVGID_6_);fill:#E6C460;}
	.st161{clip-path:url(#SVGID_6_);fill:#E6C561;}
	.st162{clip-path:url(#SVGID_6_);fill:#E7C662;}
	.st163{clip-path:url(#SVGID_6_);fill:#E8C763;}
	.st164{clip-path:url(#SVGID_6_);fill:#E9C864;}
	.st165{clip-path:url(#SVGID_6_);fill:#E9C965;}
	.st166{clip-path:url(#SVGID_6_);fill:#EACA66;}
	.st167{clip-path:url(#SVGID_6_);fill:#EBCB67;}
	.st168{clip-path:url(#SVGID_6_);fill:#EBCC68;}
	.st169{clip-path:url(#SVGID_6_);fill:#ECCD69;}
	.st170{clip-path:url(#SVGID_6_);fill:#EDCE6A;}
	.st171{clip-path:url(#SVGID_6_);fill:#EDCF6B;}
	.st172{clip-path:url(#SVGID_6_);fill:#EED06C;}
	.st173{clip-path:url(#SVGID_6_);fill:#EFD16D;}
	.st174{clip-path:url(#SVGID_6_);fill:#F0D26E;}
	.st175{clip-path:url(#SVGID_6_);fill:#F0D36F;}
	.st176{clip-path:url(#SVGID_6_);fill:#F1D470;}
	.st177{clip-path:url(#SVGID_6_);fill:#F2D571;}
	.st178{clip-path:url(#SVGID_6_);fill:#F2D672;}
	.st179{clip-path:url(#SVGID_6_);fill:#F3D773;}
	.st180{clip-path:url(#SVGID_6_);fill:#F4D874;}
	.st181{clip-path:url(#SVGID_6_);fill:#F4D975;}
	.st182{clip-path:url(#SVGID_6_);fill:#F5DA76;}
	.st183{clip-path:url(#SVGID_6_);fill:#F6DB77;}
	.st184{clip-path:url(#SVGID_6_);fill:#F7DC78;}
	.st185{clip-path:url(#SVGID_6_);fill:#F7DD79;}
	.st186{clip-path:url(#SVGID_6_);fill:#F8DE7A;}
	.st187{clip-path:url(#SVGID_6_);fill:#F6DB76;}
	.st188{clip-path:url(#SVGID_6_);fill:#F5DA75;}
	.st189{clip-path:url(#SVGID_6_);fill:#F4D974;}
	.st190{clip-path:url(#SVGID_6_);fill:#F4D873;}
	.st191{clip-path:url(#SVGID_6_);fill:#F3D772;}
	.st192{clip-path:url(#SVGID_6_);fill:#F3D671;}
	.st193{clip-path:url(#SVGID_6_);fill:#F2D670;}
	.st194{clip-path:url(#SVGID_6_);fill:#F1D56F;}
	.st195{clip-path:url(#SVGID_6_);fill:#F1D46E;}
	.st196{clip-path:url(#SVGID_6_);fill:#F0D36D;}
	.st197{clip-path:url(#SVGID_6_);fill:#F0D26C;}
	.st198{clip-path:url(#SVGID_6_);fill:#EFD16B;}
	.st199{clip-path:url(#SVGID_6_);fill:#EED06A;}
	.st200{clip-path:url(#SVGID_6_);fill:#EED069;}
	.st201{clip-path:url(#SVGID_6_);fill:#EDCF68;}
	.st202{clip-path:url(#SVGID_6_);fill:#EDCE67;}
	.st203{clip-path:url(#SVGID_6_);fill:#ECCD66;}
	.st204{clip-path:url(#SVGID_6_);fill:#EBCC65;}
	.st205{clip-path:url(#SVGID_6_);fill:#EBCB64;}
	.st206{clip-path:url(#SVGID_6_);fill:#EACB63;}
	.st207{clip-path:url(#SVGID_6_);fill:#EACA62;}
	.st208{clip-path:url(#SVGID_6_);fill:#E9C961;}
	.st209{clip-path:url(#SVGID_6_);fill:#E8C860;}
	.st210{clip-path:url(#SVGID_6_);fill:#E8C75F;}
	.st211{clip-path:url(#SVGID_6_);fill:#E7C65E;}
	.st212{clip-path:url(#SVGID_6_);fill:#E6C55C;}
	.st213{clip-path:url(#SVGID_6_);fill:#E6C55B;}
	.st214{clip-path:url(#SVGID_6_);fill:#E5C45A;}
	.st215{clip-path:url(#SVGID_6_);fill:#E5C359;}
	.st216{clip-path:url(#SVGID_6_);fill:#E4C258;}
	.st217{clip-path:url(#SVGID_6_);fill:#E3C157;}
	.st218{clip-path:url(#SVGID_6_);fill:#E3C056;}
	.st219{clip-path:url(#SVGID_6_);fill:#E2C055;}
	.st220{clip-path:url(#SVGID_6_);fill:#E2BF54;}
	.st221{clip-path:url(#SVGID_6_);fill:#E1BE53;}
	.st222{clip-path:url(#SVGID_6_);fill:#E0BD52;}
	.st223{clip-path:url(#SVGID_6_);fill:#E0BC51;}
	.st224{clip-path:url(#SVGID_6_);fill:#DFBB50;}
	.st225{clip-path:url(#SVGID_6_);fill:#DFBB4F;}
	.st226{clip-path:url(#SVGID_6_);fill:#DEBA4E;}
	.st227{clip-path:url(#SVGID_6_);fill:#DDB94D;}
	.st228{clip-path:url(#SVGID_6_);fill:#DDB84C;}
	.st229{clip-path:url(#SVGID_6_);fill:#DCB74B;}
	.st230{clip-path:url(#SVGID_6_);fill:#DCB64A;}
	.st231{clip-path:url(#SVGID_6_);fill:#DBB549;}
	.st232{clip-path:url(#SVGID_8_);fill:#F6DB77;}
	.st233{clip-path:url(#SVGID_8_);fill:#F7DC78;}
	.st234{clip-path:url(#SVGID_8_);fill:#F7DD79;}
	.st235{clip-path:url(#SVGID_8_);fill:#F8DE7A;}
	.st236{clip-path:url(#SVGID_8_);fill:#F6DB76;}
	.st237{clip-path:url(#SVGID_8_);fill:#F5DA75;}
	.st238{clip-path:url(#SVGID_8_);fill:#F4D974;}
	.st239{clip-path:url(#SVGID_8_);fill:#F4D873;}
	.st240{clip-path:url(#SVGID_10_);fill:#C39231;}
	.st241{clip-path:url(#SVGID_10_);fill:#C39331;}
	.st242{clip-path:url(#SVGID_10_);fill:#C49431;}
	.st243{clip-path:url(#SVGID_10_);fill:#C59532;}
	.st244{clip-path:url(#SVGID_10_);fill:#C69632;}
	.st245{clip-path:url(#SVGID_10_);fill:#C79733;}
	.st246{clip-path:url(#SVGID_12_);fill:#F5DA76;}
	.st247{clip-path:url(#SVGID_12_);fill:#F6DB77;}
	.st248{clip-path:url(#SVGID_12_);fill:#F7DC78;}
	.st249{clip-path:url(#SVGID_12_);fill:#F7DD79;}
	.st250{clip-path:url(#SVGID_12_);fill:#F8DE7A;}
	.st251{clip-path:url(#SVGID_12_);fill:#F6DB76;}
	.st252{clip-path:url(#SVGID_12_);fill:#F5DA75;}
	.st253{clip-path:url(#SVGID_12_);fill:#F4D974;}
	.st254{clip-path:url(#SVGID_12_);fill:#F4D873;}
	.st255{clip-path:url(#SVGID_12_);fill:#F3D772;}
	.st256{clip-path:url(#SVGID_12_);fill:#F3D671;}
	.st257{clip-path:url(#SVGID_12_);fill:#F2D670;}
	.st258{clip-path:url(#SVGID_12_);fill:#F1D56F;}
	.st259{clip-path:url(#SVGID_12_);fill:#F1D46E;}
	.st260{clip-path:url(#SVGID_12_);fill:#F0D36D;}
	.st261{clip-path:url(#SVGID_12_);fill:#F0D26C;}
	.st262{clip-path:url(#SVGID_12_);fill:#EFD16B;}
	.st263{clip-path:url(#SVGID_12_);fill:#EED06A;}
	.st264{clip-path:url(#SVGID_12_);fill:#EED069;}
	.st265{clip-path:url(#SVGID_12_);fill:#EDCF68;}
	.st266{clip-path:url(#SVGID_12_);fill:#EDCE67;}
	.st267{clip-path:url(#SVGID_12_);fill:#ECCD66;}
	.st268{clip-path:url(#SVGID_12_);fill:#EBCC65;}
	.st269{clip-path:url(#SVGID_12_);fill:#EBCB64;}
	.st270{clip-path:url(#SVGID_12_);fill:#EACB63;}
	.st271{clip-path:url(#SVGID_12_);fill:#EACA62;}
	.st272{clip-path:url(#SVGID_12_);fill:#E9C961;}
	.st273{clip-path:url(#SVGID_12_);fill:#E8C860;}
	.st274{clip-path:url(#SVGID_12_);fill:#E8C75F;}
	.st275{clip-path:url(#SVGID_12_);fill:#E7C65E;}
	.st276{clip-path:url(#SVGID_12_);fill:#E6C55C;}
	.st277{clip-path:url(#SVGID_12_);fill:#E6C55B;}
	.st278{clip-path:url(#SVGID_12_);fill:#E5C45A;}
	.st279{clip-path:url(#SVGID_12_);fill:#E5C359;}
	.st280{clip-path:url(#SVGID_12_);fill:#E4C258;}
	.st281{clip-path:url(#SVGID_12_);fill:#E3C157;}
	.st282{clip-path:url(#SVGID_12_);fill:#E3C056;}
	.st283{clip-path:url(#SVGID_12_);fill:#E2C055;}
	.st284{clip-path:url(#SVGID_12_);fill:#E2BF54;}
	.st285{clip-path:url(#SVGID_12_);fill:#E1BE53;}
	.st286{clip-path:url(#SVGID_12_);fill:#E0BD52;}
	.st287{clip-path:url(#SVGID_12_);fill:#E0BC51;}
	.st288{clip-path:url(#SVGID_12_);fill:#DFBB50;}
	.st289{clip-path:url(#SVGID_12_);fill:#DFBB4F;}
	.st290{clip-path:url(#SVGID_12_);fill:#DEBA4E;}
	.st291{clip-path:url(#SVGID_12_);fill:#DDB94D;}
	.st292{clip-path:url(#SVGID_12_);fill:#DDB84C;}
	.st293{clip-path:url(#SVGID_12_);fill:#DCB74B;}
	.st294{clip-path:url(#SVGID_12_);fill:#DCB64A;}
	.st295{clip-path:url(#SVGID_12_);fill:#DBB549;}
	.st296{clip-path:url(#SVGID_12_);fill:#DAB548;}
	.st297{clip-path:url(#SVGID_12_);fill:#DAB447;}
	.st298{clip-path:url(#SVGID_12_);fill:#D9B346;}
	.st299{clip-path:url(#SVGID_12_);fill:#D9B245;}
	.st300{clip-path:url(#SVGID_14_);fill:#EED069;}
	.st301{clip-path:url(#SVGID_14_);fill:#EDCF68;}
	.st302{clip-path:url(#SVGID_14_);fill:#EDCE67;}
	.st303{clip-path:url(#SVGID_14_);fill:#ECCD66;}
	.st304{clip-path:url(#SVGID_14_);fill:#EBCC65;}
	.st305{clip-path:url(#SVGID_14_);fill:#EBCB64;}
	.st306{clip-path:url(#SVGID_14_);fill:#EACB63;}
	.st307{clip-path:url(#SVGID_14_);fill:#EACA62;}
	.st308{clip-path:url(#SVGID_14_);fill:#E9C961;}
	.st309{clip-path:url(#SVGID_14_);fill:#E8C860;}
	.st310{clip-path:url(#SVGID_14_);fill:#E8C75F;}
	.st311{clip-path:url(#SVGID_14_);fill:#E7C65E;}
	.st312{clip-path:url(#SVGID_16_);fill:#DDB84C;}
	.st313{clip-path:url(#SVGID_16_);fill:#DCB74B;}
	.st314{clip-path:url(#SVGID_16_);fill:#DCB64A;}
	.st315{clip-path:url(#SVGID_16_);fill:#DBB549;}
	.st316{clip-path:url(#SVGID_16_);fill:#DAB548;}
	.st317{clip-path:url(#SVGID_16_);fill:#DAB447;}
	.st318{clip-path:url(#SVGID_16_);fill:#D9B346;}
	.st319{clip-path:url(#SVGID_18_);fill:#F6DB77;}
	.st320{clip-path:url(#SVGID_18_);fill:#F7DC78;}
	.st321{clip-path:url(#SVGID_18_);fill:#F7DD79;}
	.st322{clip-path:url(#SVGID_18_);fill:#F8DE7A;}
	.st323{fill:#ED145B;}
	.st324{fill:#161616;}
</style>
<g>
	<g>
		<g>
			<g>
				<defs>
					<path id="SVGID_1_" d="M22.23,23.51l-5.55-4.01c-0.16-0.12-0.39-0.08-0.5,0.08L3.83,36.67c-0.12,0.16-0.08,0.39,0.08,0.5
						l5.55,4.01c0.16,0.12,0.39,0.08,0.5-0.08l12.35-17.09C22.43,23.85,22.39,23.63,22.23,23.51z"/>
				</defs>
				<clipPath id="SVGID_2_">
					<use xlink:href="#SVGID_1_"  style="overflow:visible;"/>
				</clipPath>
				<polygon class="st0" points="4.7,19.38 3.71,35.26 3.71,19.38 				"/>
				<polygon class="st1" points="6.37,19.38 5.01,41.3 3.71,41.3 3.71,35.26 4.7,19.38 				"/>
				<polygon class="st2" points="8.04,19.38 6.67,41.3 5.01,41.3 6.37,19.38 				"/>
				<polygon class="st3" points="9.71,19.38 8.34,41.3 6.67,41.3 8.04,19.38 				"/>
				<polygon class="st4" points="11.38,19.38 10.01,41.3 8.34,41.3 9.71,19.38 				"/>
				<polygon class="st4" points="12.05,19.38 10.69,41.3 10.01,41.3 11.38,19.38 				"/>
				<polygon class="st5" points="12.73,19.38 11.37,41.3 10.69,41.3 12.05,19.38 				"/>
				<polygon class="st6" points="13.41,19.38 12.05,41.3 11.37,41.3 12.73,19.38 				"/>
				<polygon class="st7" points="14.09,19.38 12.73,41.3 12.05,41.3 13.41,19.38 				"/>
				<polygon class="st8" points="14.77,19.38 13.4,41.3 12.73,41.3 14.09,19.38 				"/>
				<polygon class="st9" points="15.44,19.38 14.08,41.3 13.4,41.3 14.77,19.38 				"/>
				<polygon class="st10" points="16.12,19.38 14.76,41.3 14.08,41.3 15.44,19.38 				"/>
				<polygon class="st11" points="16.8,19.38 15.44,41.3 14.76,41.3 16.12,19.38 				"/>
				<polygon class="st12" points="17.48,19.38 16.11,41.3 15.44,41.3 16.8,19.38 				"/>
				<polygon class="st13" points="18.16,19.38 16.79,41.3 16.11,41.3 17.48,19.38 				"/>
				<polygon class="st14" points="18.83,19.38 17.47,41.3 16.79,41.3 18.16,19.38 				"/>
				<polygon class="st15" points="19.51,19.38 18.15,41.3 17.47,41.3 18.83,19.38 				"/>
				<polygon class="st16" points="20.19,19.38 18.83,41.3 18.15,41.3 19.51,19.38 				"/>
				<polygon class="st17" points="20.87,19.38 19.5,41.3 18.83,41.3 20.19,19.38 				"/>
				<polygon class="st18" points="21.55,19.38 20.18,41.3 19.5,41.3 20.87,19.38 				"/>
				<polygon class="st19" points="22.22,19.38 20.86,41.3 20.18,41.3 21.55,19.38 				"/>
				<polygon class="st20" points="22.43,26.96 21.54,41.3 20.86,41.3 22.22,19.38 22.43,19.38 				"/>
				<polygon class="st21" points="22.43,37.86 22.22,41.3 21.54,41.3 22.43,26.96 				"/>
				<polygon class="st22" points="22.22,41.3 22.43,37.86 22.43,41.3 				"/>
			</g>
		</g>
		<g>
			<g>
				<defs>
					<path id="SVGID_3_" d="M23.08,60.25l-11.15-16.8c-0.25-0.38-0.24-0.89,0.02-1.26l11.73-16.23c0.27-0.37,0.74-0.54,1.19-0.42
						l19.45,5.32c1.46,0.4,2.81,1.16,3.83,2.26c0.72,0.77,21.89,32.8,23.41,35.1c0.05,0.08,0.05,0.18-0.01,0.26l-1.24,1.72
						c-0.07,0.1-0.22,0.12-0.32,0.05L43.06,50.8c-0.2-0.14-0.28-0.39-0.23-0.63c0.36-1.91-0.79-3.98-3.15-4.47
						c-0.73-0.15-1.5-0.04-2.16,0.3c-2.81,1.48-2.81,4.96-0.63,6.53c1.31,0.95,3.02,0.94,4.29,0.11c0.22-0.14,0.5-0.16,0.71-0.01
						l26.82,19.39c0.1,0.07,0.12,0.22,0.05,0.32l-1.42,1.97c-0.06,0.08-0.15,0.11-0.24,0.09c-2.67-0.72-39.72-10.78-40.67-11.22
						C25.06,62.56,23.92,61.52,23.08,60.25z"/>
				</defs>
				<clipPath id="SVGID_4_">
					<use xlink:href="#SVGID_3_"  style="overflow:visible;"/>
				</clipPath>
				<polygon class="st23" points="11.68,25.43 11.68,25.47 11.68,25.43 				"/>
				<polygon class="st24" points="12.36,25.43 11.68,36.37 11.68,25.47 11.68,25.43 				"/>
				<polygon class="st25" points="13.03,25.43 11.68,47.27 11.68,36.37 12.36,25.43 				"/>
				<polygon class="st26" points="13.71,25.43 11.68,58.17 11.68,47.27 13.03,25.43 				"/>
				<polygon class="st27" points="14.39,25.43 11.68,69.08 11.68,58.17 13.71,25.43 				"/>
				<polygon class="st28" points="15.07,25.43 12.11,73 11.68,72.97 11.68,69.08 14.39,25.43 				"/>
				<polygon class="st29" points="15.75,25.43 12.78,73.04 12.11,73 15.07,25.43 				"/>
				<polygon class="st30" points="16.42,25.43 13.46,73.08 12.78,73.04 15.75,25.43 				"/>
				<polygon class="st31" points="17.1,25.43 14.14,73.13 13.46,73.08 16.42,25.43 				"/>
				<polygon class="st32" points="17.78,25.43 14.81,73.17 14.14,73.13 17.1,25.43 				"/>
				<polygon class="st33" points="18.46,25.43 15.49,73.21 14.81,73.17 17.78,25.43 				"/>
				<polygon class="st34" points="19.14,25.43 16.16,73.25 15.49,73.21 18.46,25.43 				"/>
				<polygon class="st35" points="19.81,25.43 16.84,73.29 16.16,73.25 19.14,25.43 				"/>
				<polygon class="st36" points="20.49,25.43 17.51,73.34 16.84,73.29 19.81,25.43 				"/>
				<polygon class="st37" points="21.17,25.43 18.19,73.38 17.51,73.34 20.49,25.43 				"/>
				<polygon class="st38" points="21.85,25.43 18.86,73.42 18.19,73.38 21.17,25.43 				"/>
				<polygon class="st39" points="22.53,25.43 19.54,73.46 18.86,73.42 21.85,25.43 				"/>
				<polygon class="st40" points="23.2,25.43 20.21,73.5 19.54,73.46 22.53,25.43 				"/>
				<polygon class="st41" points="23.88,25.43 20.89,73.55 20.21,73.5 23.2,25.43 				"/>
				<polygon class="st42" points="24.56,25.43 21.56,73.59 20.89,73.55 23.88,25.43 				"/>
				<polygon class="st43" points="25.24,25.43 22.24,73.63 21.56,73.59 24.56,25.43 				"/>
				<polygon class="st44" points="25.92,25.43 22.92,73.67 22.24,73.63 25.24,25.43 				"/>
				<polygon class="st45" points="26.59,25.43 23.59,73.71 22.92,73.67 25.92,25.43 				"/>
				<polygon class="st46" points="27.27,25.43 24.27,73.76 23.59,73.71 26.59,25.43 				"/>
				<polygon class="st47" points="27.95,25.43 24.94,73.8 24.27,73.76 27.27,25.43 				"/>
				<polygon class="st48" points="28.63,25.43 25.62,73.84 24.94,73.8 27.95,25.43 				"/>
				<polygon class="st49" points="29.31,25.43 26.29,73.88 25.62,73.84 28.63,25.43 				"/>
				<polygon class="st50" points="29.98,25.43 26.97,73.92 26.29,73.88 29.31,25.43 				"/>
				<polygon class="st51" points="30.66,25.43 27.64,73.97 26.97,73.92 29.98,25.43 				"/>
				<polygon class="st52" points="31.34,25.43 28.32,74.01 27.64,73.97 30.66,25.43 				"/>
				<polygon class="st53" points="32.02,25.43 28.99,74.05 28.32,74.01 31.34,25.43 				"/>
				<polygon class="st54" points="32.69,25.43 29.67,74.09 28.99,74.05 32.02,25.43 				"/>
				<polygon class="st55" points="33.37,25.43 30.34,74.13 29.67,74.09 32.69,25.43 				"/>
				<polygon class="st56" points="34.05,25.43 31.02,74.18 30.34,74.13 33.37,25.43 				"/>
				<polygon class="st57" points="34.73,25.43 31.69,74.22 31.02,74.18 34.05,25.43 				"/>
				<polygon class="st58" points="35.41,25.43 32.37,74.26 31.69,74.22 34.73,25.43 				"/>
				<polygon class="st59" points="36.08,25.43 33.05,74.3 32.37,74.26 35.41,25.43 				"/>
				<polygon class="st60" points="36.76,25.43 33.72,74.34 33.05,74.3 36.08,25.43 				"/>
				<polygon class="st61" points="37.44,25.43 34.4,74.39 33.72,74.34 36.76,25.43 				"/>
				<polygon class="st62" points="38.12,25.43 35.07,74.42 34.97,74.42 34.4,74.39 37.44,25.43 				"/>
				<polygon class="st63" points="38.8,25.43 35.75,74.42 35.07,74.42 38.12,25.43 				"/>
				<polygon class="st64" points="39.47,25.43 36.43,74.42 35.75,74.42 38.8,25.43 				"/>
				<polygon class="st65" points="40.15,25.43 37.11,74.42 36.43,74.42 39.47,25.43 				"/>
				<polygon class="st66" points="40.83,25.43 37.78,74.42 37.11,74.42 40.15,25.43 				"/>
				<polygon class="st67" points="41.51,25.43 38.46,74.42 37.78,74.42 40.83,25.43 				"/>
				<polygon class="st68" points="42.19,25.43 39.14,74.42 38.46,74.42 41.51,25.43 				"/>
				<polygon class="st69" points="42.86,25.43 39.82,74.42 39.14,74.42 42.19,25.43 				"/>
				<polygon class="st70" points="43.54,25.43 40.5,74.42 39.82,74.42 42.86,25.43 				"/>
				<polygon class="st71" points="44.22,25.43 41.17,74.42 40.5,74.42 43.54,25.43 				"/>
				<polygon class="st72" points="44.9,25.43 41.85,74.42 41.17,74.42 44.22,25.43 				"/>
				<polygon class="st73" points="45.58,25.43 42.53,74.42 41.85,74.42 44.9,25.43 				"/>
				<polygon class="st74" points="46.25,25.43 43.21,74.42 42.53,74.42 45.58,25.43 				"/>
				<polygon class="st75" points="46.93,25.43 43.88,74.42 43.21,74.42 46.25,25.43 				"/>
				<polygon class="st76" points="47.61,25.43 44.56,74.42 43.88,74.42 46.93,25.43 				"/>
				<polygon class="st77" points="48.29,25.43 45.24,74.42 44.56,74.42 47.61,25.43 				"/>
				<polygon class="st78" points="48.97,25.43 45.92,74.42 45.24,74.42 48.29,25.43 				"/>
				<polygon class="st79" points="49.64,25.43 46.6,74.42 45.92,74.42 48.97,25.43 				"/>
				<polygon class="st80" points="50.32,25.43 47.27,74.42 46.6,74.42 49.64,25.43 				"/>
				<polygon class="st81" points="51,25.43 47.95,74.42 47.27,74.42 50.32,25.43 				"/>
				<polygon class="st82" points="51.68,25.43 48.63,74.42 47.95,74.42 51,25.43 				"/>
				<polygon class="st83" points="52.36,25.43 49.31,74.42 48.63,74.42 51.68,25.43 				"/>
				<polygon class="st84" points="53.03,25.43 49.99,74.42 49.31,74.42 52.36,25.43 				"/>
				<polygon class="st85" points="53.71,25.43 50.66,74.42 49.99,74.42 53.03,25.43 				"/>
				<polygon class="st86" points="54.39,25.43 51.34,74.42 50.66,74.42 53.71,25.43 				"/>
				<polygon class="st87" points="55.07,25.43 52.02,74.42 51.34,74.42 54.39,25.43 				"/>
				<polygon class="st88" points="55.75,25.43 52.7,74.42 52.02,74.42 55.07,25.43 				"/>
				<polygon class="st89" points="56.42,25.43 53.38,74.42 52.7,74.42 55.75,25.43 				"/>
				<polygon class="st90" points="56.65,25.43 57.1,25.46 54.05,74.42 53.38,74.42 56.42,25.43 				"/>
				<polygon class="st91" points="57.1,25.46 57.77,25.5 54.73,74.42 54.05,74.42 				"/>
				<polygon class="st92" points="57.77,25.5 58.45,25.54 55.41,74.42 54.73,74.42 				"/>
				<polygon class="st93" points="58.45,25.54 59.13,25.58 56.09,74.42 55.41,74.42 				"/>
				<polygon class="st94" points="59.13,25.58 59.8,25.62 56.77,74.42 56.09,74.42 				"/>
				<polygon class="st94" points="59.8,25.62 60.55,25.67 57.52,74.42 56.77,74.42 				"/>
				<polygon class="st93" points="60.55,25.67 61.29,25.72 58.26,74.42 57.52,74.42 				"/>
				<polygon class="st92" points="61.29,25.72 62.04,25.76 59.01,74.42 58.26,74.42 				"/>
				<polygon class="st91" points="62.04,25.76 62.79,25.81 59.76,74.42 59.01,74.42 				"/>
				<polygon class="st95" points="62.79,25.81 63.53,25.86 60.51,74.42 59.76,74.42 				"/>
				<polygon class="st96" points="63.53,25.86 64.28,25.9 61.26,74.42 60.51,74.42 				"/>
				<polygon class="st97" points="64.28,25.9 65.03,25.95 62.01,74.42 61.26,74.42 				"/>
				<polygon class="st98" points="65.03,25.95 65.77,26 62.76,74.42 62.01,74.42 				"/>
				<polygon class="st99" points="65.77,26 66.52,26.04 63.51,74.42 62.76,74.42 				"/>
				<polygon class="st100" points="66.52,26.04 67.26,26.09 64.26,74.42 63.51,74.42 				"/>
				<polygon class="st101" points="67.26,26.09 68.01,26.13 65.01,74.42 64.26,74.42 				"/>
				<polygon class="st102" points="68.01,26.13 68.76,26.18 65.76,74.42 65.01,74.42 				"/>
				<polygon class="st103" points="68.76,26.18 69.5,26.23 66.51,74.42 65.76,74.42 				"/>
				<polygon class="st104" points="69.5,26.23 70.25,26.27 67.26,74.42 66.51,74.42 				"/>
				<polygon class="st105" points="70.25,26.27 71,26.32 68.01,74.42 67.26,74.42 				"/>
				<polygon class="st106" points="71,26.32 71.61,26.36 71.61,28.5 68.75,74.42 68.01,74.42 				"/>
				<polygon class="st107" points="71.61,40.55 69.5,74.42 68.75,74.42 71.61,28.5 				"/>
				<polygon class="st108" points="71.61,52.6 70.25,74.42 69.5,74.42 71.61,40.55 				"/>
				<polygon class="st109" points="71.61,64.65 71,74.42 70.25,74.42 71.61,52.6 				"/>
				<polygon class="st110" points="71,74.42 71.61,64.65 71.61,74.42 				"/>
			</g>
		</g>
	</g>
	<g>
		<g>
			<g>
				<g>
					<defs>
						<path id="SVGID_5_" d="M4.05,86.04l0.62-0.86c22.23,16.07,53.39,11.06,69.46-11.17S85.19,20.61,62.96,4.54l0.62-0.86
							C86.28,20.1,91.4,51.92,74.99,74.63C58.58,97.33,26.76,102.45,4.05,86.04z"/>
					</defs>
					<clipPath id="SVGID_6_">
						<use xlink:href="#SVGID_5_"  style="overflow:visible;"/>
					</clipPath>
					<polygon class="st111" points="5.68,3.69 4.05,29.8 4.05,3.69 					"/>
					<polygon class="st112" points="7.34,3.69 4.05,56.64 4.05,29.8 5.68,3.69 					"/>
					<polygon class="st113" points="9.01,3.69 4.05,83.48 4.05,56.64 7.34,3.69 					"/>
					<polygon class="st114" points="10.68,3.69 4.54,102.45 4.05,102.45 4.05,83.48 9.01,3.69 					"/>
					<polygon class="st115" points="12.35,3.69 6.21,102.45 4.54,102.45 10.68,3.69 					"/>
					<polygon class="st115" points="13.03,3.69 6.89,102.45 6.21,102.45 12.35,3.69 					"/>
					<polygon class="st116" points="13.71,3.69 7.57,102.45 6.89,102.45 13.03,3.69 					"/>
					<polygon class="st117" points="14.39,3.69 8.24,102.45 7.57,102.45 13.71,3.69 					"/>
					<polygon class="st118" points="15.06,3.69 8.92,102.45 8.24,102.45 14.39,3.69 					"/>
					<polygon class="st119" points="15.74,3.69 9.6,102.45 8.92,102.45 15.06,3.69 					"/>
					<polygon class="st120" points="16.42,3.69 10.28,102.45 9.6,102.45 15.74,3.69 					"/>
					<polygon class="st121" points="17.1,3.69 10.96,102.45 10.28,102.45 16.42,3.69 					"/>
					<polygon class="st122" points="17.78,3.69 11.63,102.45 10.96,102.45 17.1,3.69 					"/>
					<polygon class="st123" points="18.45,3.69 12.31,102.45 11.63,102.45 17.78,3.69 					"/>
					<polygon class="st124" points="19.13,3.69 12.99,102.45 12.31,102.45 18.45,3.69 					"/>
					<polygon class="st125" points="19.81,3.69 13.67,102.45 12.99,102.45 19.13,3.69 					"/>
					<polygon class="st126" points="20.49,3.69 14.35,102.45 13.67,102.45 19.81,3.69 					"/>
					<polygon class="st127" points="21.17,3.69 15.02,102.45 14.35,102.45 20.49,3.69 					"/>
					<polygon class="st128" points="21.84,3.69 15.7,102.45 15.02,102.45 21.17,3.69 					"/>
					<polygon class="st129" points="22.52,3.69 16.38,102.45 15.7,102.45 21.84,3.69 					"/>
					<polygon class="st130" points="23.2,3.69 17.06,102.45 16.38,102.45 22.52,3.69 					"/>
					<polygon class="st131" points="23.88,3.69 17.74,102.45 17.06,102.45 23.2,3.69 					"/>
					<polygon class="st132" points="24.56,3.69 18.41,102.45 17.74,102.45 23.88,3.69 					"/>
					<polygon class="st133" points="25.23,3.69 19.09,102.45 18.41,102.45 24.56,3.69 					"/>
					<polygon class="st134" points="25.91,3.69 19.77,102.45 19.09,102.45 25.23,3.69 					"/>
					<polygon class="st135" points="26.59,3.69 20.45,102.45 19.77,102.45 25.91,3.69 					"/>
					<polygon class="st136" points="27.27,3.69 21.13,102.45 20.45,102.45 26.59,3.69 					"/>
					<polygon class="st137" points="27.95,3.69 21.8,102.45 21.13,102.45 27.27,3.69 					"/>
					<polygon class="st138" points="28.62,3.69 22.48,102.45 21.8,102.45 27.95,3.69 					"/>
					<polygon class="st139" points="29.3,3.69 23.16,102.45 22.48,102.45 28.62,3.69 					"/>
					<polygon class="st140" points="29.98,3.69 23.84,102.45 23.16,102.45 29.3,3.69 					"/>
					<polygon class="st141" points="30.66,3.69 24.52,102.45 23.84,102.45 29.98,3.69 					"/>
					<polygon class="st142" points="31.34,3.69 25.19,102.45 24.52,102.45 30.66,3.69 					"/>
					<polygon class="st143" points="32.01,3.69 25.87,102.45 25.19,102.45 31.34,3.69 					"/>
					<polygon class="st144" points="32.69,3.69 26.55,102.45 25.87,102.45 32.01,3.69 					"/>
					<polygon class="st145" points="33.37,3.69 27.23,102.45 26.55,102.45 32.69,3.69 					"/>
					<polygon class="st146" points="34.05,3.69 27.9,102.45 27.23,102.45 33.37,3.69 					"/>
					<polygon class="st147" points="34.72,3.69 28.58,102.45 27.9,102.45 34.05,3.69 					"/>
					<polygon class="st148" points="35.4,3.69 29.26,102.45 28.58,102.45 34.72,3.69 					"/>
					<polygon class="st149" points="36.08,3.69 29.94,102.45 29.26,102.45 35.4,3.69 					"/>
					<polygon class="st150" points="36.76,3.69 30.62,102.45 29.94,102.45 36.08,3.69 					"/>
					<polygon class="st151" points="37.44,3.69 31.29,102.45 30.62,102.45 36.76,3.69 					"/>
					<polygon class="st152" points="38.11,3.69 31.97,102.45 31.29,102.45 37.44,3.69 					"/>
					<polygon class="st153" points="38.79,3.69 32.65,102.45 31.97,102.45 38.11,3.69 					"/>
					<polygon class="st154" points="39.47,3.69 33.33,102.45 32.65,102.45 38.79,3.69 					"/>
					<polygon class="st155" points="40.15,3.69 34.01,102.45 33.33,102.45 39.47,3.69 					"/>
					<polygon class="st156" points="40.83,3.69 34.68,102.45 34.01,102.45 40.15,3.69 					"/>
					<polygon class="st157" points="41.5,3.69 35.36,102.45 34.68,102.45 40.83,3.69 					"/>
					<polygon class="st158" points="42.18,3.69 36.04,102.45 35.36,102.45 41.5,3.69 					"/>
					<polygon class="st159" points="42.86,3.69 36.72,102.45 36.04,102.45 42.18,3.69 					"/>
					<polygon class="st160" points="43.54,3.69 37.4,102.45 36.72,102.45 42.86,3.69 					"/>
					<polygon class="st161" points="44.22,3.69 38.07,102.45 37.4,102.45 43.54,3.69 					"/>
					<polygon class="st162" points="44.89,3.69 38.75,102.45 38.07,102.45 44.22,3.69 					"/>
					<polygon class="st163" points="45.57,3.69 39.43,102.45 38.75,102.45 44.89,3.69 					"/>
					<polygon class="st164" points="46.25,3.69 40.11,102.45 39.43,102.45 45.57,3.69 					"/>
					<polygon class="st165" points="46.93,3.69 40.79,102.45 40.11,102.45 46.25,3.69 					"/>
					<polygon class="st166" points="47.61,3.69 41.46,102.45 40.79,102.45 46.93,3.69 					"/>
					<polygon class="st167" points="48.28,3.69 42.14,102.45 41.46,102.45 47.61,3.69 					"/>
					<polygon class="st168" points="48.96,3.69 42.82,102.45 42.14,102.45 48.28,3.69 					"/>
					<polygon class="st169" points="49.64,3.69 43.5,102.45 42.82,102.45 48.96,3.69 					"/>
					<polygon class="st170" points="50.32,3.69 44.18,102.45 43.5,102.45 49.64,3.69 					"/>
					<polygon class="st171" points="51,3.69 44.85,102.45 44.18,102.45 50.32,3.69 					"/>
					<polygon class="st172" points="51.67,3.69 45.53,102.45 44.85,102.45 51,3.69 					"/>
					<polygon class="st173" points="52.35,3.69 46.21,102.45 45.53,102.45 51.67,3.69 					"/>
					<polygon class="st174" points="53.03,3.69 46.89,102.45 46.21,102.45 52.35,3.69 					"/>
					<polygon class="st175" points="53.71,3.69 47.57,102.45 46.89,102.45 53.03,3.69 					"/>
					<polygon class="st176" points="54.39,3.69 48.24,102.45 47.57,102.45 53.71,3.69 					"/>
					<polygon class="st177" points="55.06,3.69 48.92,102.45 48.24,102.45 54.39,3.69 					"/>
					<polygon class="st178" points="55.74,3.69 49.6,102.45 48.92,102.45 55.06,3.69 					"/>
					<polygon class="st179" points="56.42,3.69 50.28,102.45 49.6,102.45 55.74,3.69 					"/>
					<polygon class="st180" points="57.1,3.69 50.96,102.45 50.28,102.45 56.42,3.69 					"/>
					<polygon class="st181" points="57.78,3.69 51.63,102.45 50.96,102.45 57.1,3.69 					"/>
					<polygon class="st182" points="58.45,3.69 52.31,102.45 51.63,102.45 57.78,3.69 					"/>
					<polygon class="st183" points="59.13,3.69 52.99,102.45 52.31,102.45 58.45,3.69 					"/>
					<polygon class="st184" points="59.81,3.69 53.67,102.45 52.99,102.45 59.13,3.69 					"/>
					<polygon class="st185" points="60.49,3.69 54.34,102.45 53.67,102.45 59.81,3.69 					"/>
					<polygon class="st186" points="61.16,3.69 55.02,102.45 54.34,102.45 60.49,3.69 					"/>
					<polygon class="st186" points="61.91,3.69 55.77,102.45 55.02,102.45 61.16,3.69 					"/>
					<polygon class="st185" points="62.66,3.69 56.52,102.45 55.77,102.45 61.91,3.69 					"/>
					<polygon class="st184" points="63.41,3.69 57.27,102.45 56.52,102.45 62.66,3.69 					"/>
					<polygon class="st183" points="64.16,3.69 58.02,102.45 57.27,102.45 63.41,3.69 					"/>
					<polygon class="st187" points="64.91,3.69 58.77,102.45 58.02,102.45 64.16,3.69 					"/>
					<polygon class="st188" points="65.66,3.69 59.52,102.45 58.77,102.45 64.91,3.69 					"/>
					<polygon class="st189" points="66.41,3.69 60.27,102.45 59.52,102.45 65.66,3.69 					"/>
					<polygon class="st190" points="67.16,3.69 61.02,102.45 60.27,102.45 66.41,3.69 					"/>
					<polygon class="st191" points="67.91,3.69 61.77,102.45 61.02,102.45 67.16,3.69 					"/>
					<polygon class="st192" points="68.66,3.69 62.52,102.45 61.77,102.45 67.91,3.69 					"/>
					<polygon class="st193" points="69.41,3.69 63.26,102.45 62.52,102.45 68.66,3.69 					"/>
					<polygon class="st194" points="70.16,3.69 64.01,102.45 63.26,102.45 69.41,3.69 					"/>
					<polygon class="st195" points="70.91,3.69 64.76,102.45 64.01,102.45 70.16,3.69 					"/>
					<polygon class="st196" points="71.65,3.69 65.51,102.45 64.76,102.45 70.91,3.69 					"/>
					<polygon class="st197" points="72.4,3.69 66.26,102.45 65.51,102.45 71.65,3.69 					"/>
					<polygon class="st198" points="73.15,3.69 67.01,102.45 66.26,102.45 72.4,3.69 					"/>
					<polygon class="st199" points="73.9,3.69 67.76,102.45 67.01,102.45 73.15,3.69 					"/>
					<polygon class="st200" points="74.65,3.69 68.51,102.45 67.76,102.45 73.9,3.69 					"/>
					<polygon class="st201" points="75.4,3.69 69.26,102.45 68.51,102.45 74.65,3.69 					"/>
					<polygon class="st202" points="76.15,3.69 70.01,102.45 69.26,102.45 75.4,3.69 					"/>
					<polygon class="st203" points="76.9,3.69 70.76,102.45 70.01,102.45 76.15,3.69 					"/>
					<polygon class="st204" points="77.65,3.69 71.51,102.45 70.76,102.45 76.9,3.69 					"/>
					<polygon class="st205" points="78.4,3.69 72.26,102.45 71.51,102.45 77.65,3.69 					"/>
					<polygon class="st206" points="79.15,3.69 73.01,102.45 72.26,102.45 78.4,3.69 					"/>
					<polygon class="st207" points="79.9,3.69 73.75,102.45 73.01,102.45 79.15,3.69 					"/>
					<polygon class="st208" points="80.65,3.69 74.5,102.45 73.75,102.45 79.9,3.69 					"/>
					<polygon class="st209" points="81.4,3.69 75.25,102.45 74.5,102.45 80.65,3.69 					"/>
					<polygon class="st210" points="82.14,3.69 76,102.45 75.25,102.45 81.4,3.69 					"/>
					<polygon class="st211" points="82.89,3.69 76.75,102.45 76,102.45 82.14,3.69 					"/>
					<polygon class="st212" points="83.64,3.69 77.5,102.45 76.75,102.45 82.89,3.69 					"/>
					<polygon class="st213" points="84.39,3.69 78.25,102.45 77.5,102.45 83.64,3.69 					"/>
					<polygon class="st214" points="85.14,3.69 79,102.45 78.25,102.45 84.39,3.69 					"/>
					<polygon class="st215" points="85.89,3.69 79.75,102.45 79,102.45 85.14,3.69 					"/>
					<polygon class="st216" points="86.64,3.69 80.5,102.45 79.75,102.45 85.89,3.69 					"/>
					<polygon class="st217" points="87.39,3.69 81.25,102.45 80.5,102.45 86.64,3.69 					"/>
					<polygon class="st218" points="88.14,3.69 82,102.45 81.25,102.45 87.39,3.69 					"/>
					<polygon class="st219" points="88.89,3.69 82.75,102.45 82,102.45 88.14,3.69 					"/>
					<polygon class="st220" points="89.64,3.69 83.5,102.45 82.75,102.45 88.89,3.69 					"/>
					<polygon class="st221" points="90.39,3.69 84.24,102.45 83.5,102.45 89.64,3.69 					"/>
					<polygon class="st222" points="91.14,3.69 84.99,102.45 84.24,102.45 90.39,3.69 					"/>
					<polygon class="st223" points="91.4,11.44 85.74,102.45 84.99,102.45 91.14,3.69 91.4,3.69 					"/>
					<polygon class="st224" points="91.4,23.48 86.49,102.45 85.74,102.45 91.4,11.44 					"/>
					<polygon class="st225" points="91.4,35.53 87.24,102.45 86.49,102.45 91.4,23.48 					"/>
					<polygon class="st226" points="91.4,47.58 87.99,102.45 87.24,102.45 91.4,35.53 					"/>
					<polygon class="st227" points="91.4,59.63 88.74,102.45 87.99,102.45 91.4,47.58 					"/>
					<polygon class="st228" points="91.4,71.68 89.49,102.45 88.74,102.45 91.4,59.63 					"/>
					<polygon class="st229" points="91.4,83.72 90.24,102.45 89.49,102.45 91.4,71.68 					"/>
					<polygon class="st230" points="91.4,95.77 90.99,102.45 90.24,102.45 91.4,83.72 					"/>
					<polygon class="st231" points="90.99,102.45 91.4,95.77 91.4,102.45 					"/>
				</g>
			</g>
		</g>
		<g>
			<g>
				<defs>
					
						<rect id="SVGID_7_" x="59.93" y="1.1" transform="matrix(-0.5858 0.8104 -0.8104 -0.5858 102.561 -44.6773)" width="5.54" height="5.54"/>
				</defs>
				<clipPath id="SVGID_8_">
					<use xlink:href="#SVGID_7_"  style="overflow:visible;"/>
				</clipPath>
				<polygon class="st232" points="59.36,0 58.88,7.74 58.83,7.74 58.83,0 				"/>
				<polygon class="st233" points="60.04,0 59.56,7.74 58.88,7.74 59.36,0 				"/>
				<polygon class="st234" points="60.72,0 60.24,7.74 59.56,7.74 60.04,0 				"/>
				<polygon class="st235" points="61.39,0 60.91,7.74 60.24,7.74 60.72,0 				"/>
				<polygon class="st235" points="62.14,0 61.66,7.74 60.91,7.74 61.39,0 				"/>
				<polygon class="st234" points="62.89,0 62.41,7.74 61.66,7.74 62.14,0 				"/>
				<polygon class="st233" points="63.64,0 63.16,7.74 62.41,7.74 62.89,0 				"/>
				<polygon class="st232" points="64.39,0 63.91,7.74 63.16,7.74 63.64,0 				"/>
				<polygon class="st236" points="65.14,0 64.66,7.74 63.91,7.74 64.39,0 				"/>
				<polygon class="st237" points="65.89,0 65.41,7.74 64.66,7.74 65.14,0 				"/>
				<polygon class="st238" points="66.57,1.19 66.16,7.74 65.41,7.74 65.89,0 66.57,0 				"/>
				<polygon class="st239" points="66.16,7.74 66.57,1.19 66.57,7.74 				"/>
			</g>
		</g>
		<g>
			<g>
				<defs>
					
						<rect id="SVGID_9_" x="1.1" y="82.48" transform="matrix(-0.5858 0.8104 -0.8104 -0.5858 75.2283 132.0618)" width="5.54" height="5.54"/>
				</defs>
				<clipPath id="SVGID_10_">
					<use xlink:href="#SVGID_9_"  style="overflow:visible;"/>
				</clipPath>
				<polygon class="st240" points="0.84,81.39 0.36,89.12 0,89.12 0,81.39 				"/>
				<polygon class="st241" points="2.51,81.39 2.03,89.12 0.36,89.12 0.84,81.39 				"/>
				<polygon class="st242" points="4.18,81.39 3.7,89.12 2.03,89.12 2.51,81.39 				"/>
				<polygon class="st243" points="5.85,81.39 5.37,89.12 3.7,89.12 4.18,81.39 				"/>
				<polygon class="st244" points="7.52,81.39 7.04,89.12 5.37,89.12 5.85,81.39 				"/>
				<polygon class="st244" points="7.74,88.8 7.72,89.12 7.04,89.12 7.52,81.39 7.74,81.39 				"/>
				<polygon class="st245" points="7.72,89.12 7.74,88.8 7.74,89.12 				"/>
			</g>
		</g>
	</g>
	<g>
		<g>
			<g>
				<g>
					<defs>
						
							<rect id="SVGID_11_" x="41.62" y="73.63" transform="matrix(0.5858 -0.8104 0.8104 0.5858 -28.8809 91.2814)" width="66.5" height="0.53"/>
					</defs>
					<clipPath id="SVGID_12_">
						<use xlink:href="#SVGID_11_"  style="overflow:visible;"/>
					</clipPath>
					<polygon class="st246" points="55.77,46.8 55.17,56.42 55.17,46.8 					"/>
					<polygon class="st247" points="56.45,46.8 55.17,67.32 55.17,56.42 55.77,46.8 					"/>
					<polygon class="st248" points="57.13,46.8 55.17,78.22 55.17,67.32 56.45,46.8 					"/>
					<polygon class="st249" points="57.81,46.8 55.17,89.12 55.17,78.22 57.13,46.8 					"/>
					<polygon class="st250" points="58.48,46.8 55.17,100.02 55.17,89.12 57.81,46.8 					"/>
					<polygon class="st250" points="59.23,46.8 55.86,101 55.17,101 55.17,100.02 58.48,46.8 					"/>
					<polygon class="st249" points="59.98,46.8 56.61,101 55.86,101 59.23,46.8 					"/>
					<polygon class="st248" points="60.73,46.8 57.36,101 56.61,101 59.98,46.8 					"/>
					<polygon class="st247" points="61.48,46.8 58.11,101 57.36,101 60.73,46.8 					"/>
					<polygon class="st251" points="62.23,46.8 58.86,101 58.11,101 61.48,46.8 					"/>
					<polygon class="st252" points="62.98,46.8 59.61,101 58.86,101 62.23,46.8 					"/>
					<polygon class="st253" points="63.73,46.8 60.36,101 59.61,101 62.98,46.8 					"/>
					<polygon class="st254" points="64.48,46.8 61.11,101 60.36,101 63.73,46.8 					"/>
					<polygon class="st255" points="65.23,46.8 61.86,101 61.11,101 64.48,46.8 					"/>
					<polygon class="st256" points="65.98,46.8 62.61,101 61.86,101 65.23,46.8 					"/>
					<polygon class="st257" points="66.73,46.8 63.36,101 62.61,101 65.98,46.8 					"/>
					<polygon class="st258" points="67.48,46.8 64.1,101 63.36,101 66.73,46.8 					"/>
					<polygon class="st259" points="68.22,46.8 64.85,101 64.1,101 67.48,46.8 					"/>
					<polygon class="st260" points="68.97,46.8 65.6,101 64.85,101 68.22,46.8 					"/>
					<polygon class="st261" points="69.72,46.8 66.35,101 65.6,101 68.97,46.8 					"/>
					<polygon class="st262" points="70.47,46.8 67.1,101 66.35,101 69.72,46.8 					"/>
					<polygon class="st263" points="71.22,46.8 67.85,101 67.1,101 70.47,46.8 					"/>
					<polygon class="st264" points="71.97,46.8 68.6,101 67.85,101 71.22,46.8 					"/>
					<polygon class="st265" points="72.72,46.8 69.35,101 68.6,101 71.97,46.8 					"/>
					<polygon class="st266" points="73.47,46.8 70.1,101 69.35,101 72.72,46.8 					"/>
					<polygon class="st267" points="74.22,46.8 70.85,101 70.1,101 73.47,46.8 					"/>
					<polygon class="st268" points="74.97,46.8 71.6,101 70.85,101 74.22,46.8 					"/>
					<polygon class="st269" points="75.72,46.8 72.35,101 71.6,101 74.97,46.8 					"/>
					<polygon class="st270" points="76.47,46.8 73.1,101 72.35,101 75.72,46.8 					"/>
					<polygon class="st271" points="77.22,46.8 73.85,101 73.1,101 76.47,46.8 					"/>
					<polygon class="st272" points="77.97,46.8 74.59,101 73.85,101 77.22,46.8 					"/>
					<polygon class="st273" points="78.71,46.8 75.34,101 74.59,101 77.97,46.8 					"/>
					<polygon class="st274" points="79.46,46.8 76.09,101 75.34,101 78.71,46.8 					"/>
					<polygon class="st275" points="80.21,46.8 76.84,101 76.09,101 79.46,46.8 					"/>
					<polygon class="st276" points="80.96,46.8 77.59,101 76.84,101 80.21,46.8 					"/>
					<polygon class="st277" points="81.71,46.8 78.34,101 77.59,101 80.96,46.8 					"/>
					<polygon class="st278" points="82.46,46.8 79.09,101 78.34,101 81.71,46.8 					"/>
					<polygon class="st279" points="83.21,46.8 79.84,101 79.09,101 82.46,46.8 					"/>
					<polygon class="st280" points="83.96,46.8 80.59,101 79.84,101 83.21,46.8 					"/>
					<polygon class="st281" points="84.71,46.8 81.34,101 80.59,101 83.96,46.8 					"/>
					<polygon class="st282" points="85.46,46.8 82.09,101 81.34,101 84.71,46.8 					"/>
					<polygon class="st283" points="86.21,46.8 82.84,101 82.09,101 85.46,46.8 					"/>
					<polygon class="st284" points="86.96,46.8 83.59,101 82.84,101 86.21,46.8 					"/>
					<polygon class="st285" points="87.71,46.8 84.33,101 83.59,101 86.96,46.8 					"/>
					<polygon class="st286" points="88.45,46.8 85.08,101 84.33,101 87.71,46.8 					"/>
					<polygon class="st287" points="89.2,46.8 85.83,101 85.08,101 88.45,46.8 					"/>
					<polygon class="st288" points="89.95,46.8 86.58,101 85.83,101 89.2,46.8 					"/>
					<polygon class="st289" points="90.7,46.8 87.33,101 86.58,101 89.95,46.8 					"/>
					<polygon class="st290" points="91.45,46.8 88.08,101 87.33,101 90.7,46.8 					"/>
					<polygon class="st291" points="92.2,46.8 88.83,101 88.08,101 91.45,46.8 					"/>
					<polygon class="st292" points="92.95,46.8 89.58,101 88.83,101 92.2,46.8 					"/>
					<polygon class="st293" points="93.7,46.8 90.33,101 89.58,101 92.95,46.8 					"/>
					<polygon class="st294" points="94.45,46.8 91.08,101 90.33,101 93.7,46.8 					"/>
					<polygon class="st295" points="94.56,57.09 91.83,101 91.08,101 94.45,46.8 94.56,46.8 					"/>
					<polygon class="st296" points="94.56,69.14 92.58,101 91.83,101 94.56,57.09 					"/>
					<polygon class="st297" points="94.56,81.19 93.33,101 92.58,101 94.56,69.14 					"/>
					<polygon class="st298" points="94.56,93.24 94.08,101 93.33,101 94.56,81.19 					"/>
					<polygon class="st299" points="94.08,101 94.56,93.24 94.56,101 					"/>
				</g>
			</g>
		</g>
		<g>
			<g>
				<defs>
					
						<rect id="SVGID_13_" x="71.51" y="71.93" transform="matrix(-0.5858 0.8104 -0.8104 -0.5858 178.3433 58.2562)" width="5.54" height="5.54"/>
				</defs>
				<clipPath id="SVGID_14_">
					<use xlink:href="#SVGID_13_"  style="overflow:visible;"/>
				</clipPath>
				<polygon class="st300" points="70.48,70.83 70.42,71.78 70.42,70.83 				"/>
				<polygon class="st301" points="71.23,70.83 70.74,78.57 70.42,78.57 70.42,71.78 70.48,70.83 				"/>
				<polygon class="st302" points="71.97,70.83 71.49,78.57 70.74,78.57 71.23,70.83 				"/>
				<polygon class="st303" points="72.72,70.83 72.24,78.57 71.49,78.57 71.97,70.83 				"/>
				<polygon class="st304" points="73.47,70.83 72.99,78.57 72.24,78.57 72.72,70.83 				"/>
				<polygon class="st305" points="74.22,70.83 73.74,78.57 72.99,78.57 73.47,70.83 				"/>
				<polygon class="st306" points="74.97,70.83 74.49,78.57 73.74,78.57 74.22,70.83 				"/>
				<polygon class="st307" points="75.72,70.83 75.24,78.57 74.49,78.57 74.97,70.83 				"/>
				<polygon class="st308" points="76.47,70.83 75.99,78.57 75.24,78.57 75.72,70.83 				"/>
				<polygon class="st309" points="77.22,70.83 76.74,78.57 75.99,78.57 76.47,70.83 				"/>
				<polygon class="st310" points="77.97,70.83 77.49,78.57 76.74,78.57 77.22,70.83 				"/>
				<polygon class="st311" points="77.49,78.57 77.97,70.83 78.15,70.83 78.15,78.57 				"/>
			</g>
		</g>
		<g>
			<g>
				<defs>
					<circle id="SVGID_15_" cx="94.8" cy="46.39" r="1.87"/>
				</defs>
				<clipPath id="SVGID_16_">
					<use xlink:href="#SVGID_15_"  style="overflow:visible;"/>
				</clipPath>
				<polygon class="st312" points="93.11,44.26 92.84,48.51 92.68,48.51 92.68,44.26 				"/>
				<polygon class="st313" points="93.86,44.26 93.59,48.51 92.84,48.51 93.11,44.26 				"/>
				<polygon class="st314" points="94.61,44.26 94.34,48.51 93.59,48.51 93.86,44.26 				"/>
				<polygon class="st315" points="95.36,44.26 95.09,48.51 94.34,48.51 94.61,44.26 				"/>
				<polygon class="st316" points="96.11,44.26 95.84,48.51 95.09,48.51 95.36,44.26 				"/>
				<polygon class="st317" points="96.85,44.26 96.59,48.51 95.84,48.51 96.11,44.26 				"/>
				<polygon class="st318" points="96.59,48.51 96.85,44.26 96.92,44.26 96.92,48.51 				"/>
			</g>
		</g>
		<g>
			<g>
				<defs>
					<circle id="SVGID_17_" cx="55.11" cy="101.3" r="1.87"/>
				</defs>
				<clipPath id="SVGID_18_">
					<use xlink:href="#SVGID_17_"  style="overflow:visible;"/>
				</clipPath>
				<polygon class="st319" points="53.19,99.18 52.99,102.41 52.99,99.18 				"/>
				<polygon class="st320" points="53.87,99.18 53.61,103.42 52.99,103.42 52.99,102.41 53.19,99.18 				"/>
				<polygon class="st321" points="54.55,99.18 54.28,103.42 53.61,103.42 53.87,99.18 				"/>
				<polygon class="st322" points="55.23,99.18 54.96,103.42 54.28,103.42 54.55,99.18 				"/>
				<polygon class="st322" points="55.98,99.18 55.71,103.42 54.96,103.42 55.23,99.18 				"/>
				<polygon class="st321" points="56.72,99.18 56.46,103.42 55.71,103.42 55.98,99.18 				"/>
				<polygon class="st320" points="57.23,103.07 57.21,103.42 56.46,103.42 56.72,99.18 57.23,99.18 				"/>
				<polygon class="st319" points="57.21,103.42 57.23,103.07 57.23,103.42 				"/>
			</g>
		</g>
	</g>
</g>
<g>
	<path class="st323" d="M89.97,78.55c11.07,0,27.54,8.14,27.54,19.6c0,7.49-10.48,13.22-20.7,13.22c-0.72,0-1.3,0-3.19-0.26
		c-0.07,1.04-0.07,2.34-0.07,3.84c0,2.41,0.07,5.4,0.26,9.18c-0.07,1.63-1.56,3.19-3.13,3.65c-0.78,0-0.85-0.33-1.5-1.3
		c-0.2-0.91-0.39-1.76-0.52-2.73c-0.07-0.78-0.13-1.95-0.13-3.39l0.13-8.85v-1.43c-3.45-1.04-8.92-4.36-8.92-8.01
		c0-2.86,2.15-5.4,6.51-6.64c0.33-0.07,1.82-0.52,2.15-0.52c0.07-1.76,0.07-3.39,0.2-4.69c0.13-1.63,0.39-3.19,2.08-4.88
		c0.98,0.65,1.95,3.19,2.02,4.23l0.46,5.4c5.79,0,7.29,2.08,7.29,4.1c0,1.3-0.59,2.15-1.95,2.28c0.13-0.33,0.2-0.65,0.2-0.91
		c0-1.37-1.3-1.82-5.4-1.82l0.13,8.01c1.11,0.2,1.95,0.26,3.13,0.26c4.56,0,15.56-2.21,15.56-8.4c0-11.2-18.56-15.63-24.55-15.63
		c-2.47,0-5.66,0.13-8.27,0.33l-0.13-0.72C81.7,79.91,85.61,78.55,89.97,78.55z M85.41,98.8c-1.63,0.33-3.13,1.04-3.13,2.41
		c0,2.34,3.97,3.52,6.19,4.1V98.6C87.63,98.6,86.13,98.66,85.41,98.8z"/>
	<path class="st323" d="M118.56,118l14-13.35c2.08-1.95,7.1-7.29,7.1-11.07c0-2.34-2.67-3.84-4.75-4.04
		c-0.39-0.07-0.78-0.07-1.17-0.07c-3.78,0-7.75,1.63-10.48,3.84c-1.11,0.98-0.39,4.1-2.6,4.1c-1.5-0.13-1.82-1.76-1.82-3.19
		c0-0.65,0.06-1.24,0.13-1.63c0.65-6.19,7.16-8.27,12.83-8.27c0.78,0,1.5,0.07,2.21,0.13c4.88,0.52,8.85,3.91,8.85,9.96
		c0,7.55-11.85,16.86-16.99,22.14c0.85,0.13,4.17,0.46,4.88,0.52c3.84,0.33,4.88,1.82,9.57,1.82l1.37-0.07
		c3.58-0.2,4.49-1.43,7.68-3.13c0.65,0.13,0.72,0.78,0.72,1.69c-2.54,3.13-7.23,5.92-11,6.05l-17.65-0.78
		c-2.15,0.07-4.43,2.08-6.58,2.08c-0.98-0.07-1.69-0.98-1.69-2.02C113.41,120.28,116.6,118.65,118.56,118z"/>
	<path class="st323" d="M160.62,117.35c-1.24,2.93-2.28,5.79-2.73,7.23c-0.65,2.15-2.67,2.73-3.97,2.73c-0.46,0-0.59-0.65-0.59-1.43
		c0-0.72,0.13-1.56,0.33-2.15c0.85-3.39,2.34-7.03,4.1-10.29c-2.41-3.32-3.32-4.82-5.08-8.27c-0.26-0.33-0.33-0.78-0.33-1.24
		c0-0.46,0.07-0.85,0.33-1.11c1.11-0.72,2.34-1.04,3.78-1.04c0.52,0.52,1.04,1.24,1.5,2.21l2.6,4.69c0.91-1.24,1.89-2.34,2.93-3.26
		c1.82-1.56,3.26-2.28,4.43-2.28c1.11,0,2.02,0.33,2.34,3.97c-0.26-0.46-0.65-0.59-1.04-0.59c-0.98,0-2.08,1.04-3.25,2.02
		c-1.04,0.98-1.95,2.34-2.93,4.1c1.63,2.47,4.23,8.01,6.25,8.01c1.17,0,1.5-0.78,1.95-2.41c0.33,1.04,0.46,2.28,0.46,3.32
		c0,2.67-0.98,4.88-2.93,4.88c-0.52,0-3.13-2.54-3.78-3.39L160.62,117.35z"/>
	<path class="st323" d="M215.9,88.96c0.85,0,1.3-0.46,1.3-1.69c0-2.28-3.45-4.36-7.29-4.36c-10.61,0-20.51,6.45-25.33,13.54
		c-3.06,4.49-5.08,10.48-5.08,16.86c0,5.86,5.21,8.66,10.81,8.66c6.51,0,13.28-5.01,13.28-12.24c0-0.39,0-0.78-0.07-1.17
		c-4.69,2.08-9.83,2.87-14.97,2.87c-1.95,0-6.38-1.37-6.38-4.49c0-4.62,7.29-6.38,13.02-6.38c3.13,0,5.92,0.65,9.18,2.6
		c0.78-0.26,1.69-0.91,2.47-1.43c0-0.26-0.72-0.91-0.72-1.24c0.13-0.26,0.33-0.46,0.59-0.46c0.07,0,0.2,0,0.26,0.07
		c1.89,0.91,2.08,2.02,2.08,3.06c0,1.69-1.11,3.25-2.86,4.43c0.46,1.69,0.65,3.32,0.65,4.88c0,8.92-7.55,14.58-16.47,14.58
		c-9.31,0-16.21-4.49-16.21-14.71c0-18.23,16.6-34.25,34.51-34.25c6.06,0,11.79,3.39,11.79,9.05c0,2.08-1.5,3.91-3.52,3.91
		c-1.37,0-2.67-1.17-3-2.47C214.73,88.77,215.38,88.96,215.9,88.96z M189.72,106.54c0.78,0,1.43,0,1.95-0.06
		c4.43-0.33,6.51-0.39,9.44-1.24c-2.02-1.24-4.95-1.69-5.79-1.69c-3.25,0-8.66,0.33-9.9,2.73
		C186.47,106.48,188.23,106.54,189.72,106.54z"/>
	<path class="st323" d="M214.92,125.49c-1.43,0-3.13-1.24-3.13-3.13c0.06-5.6,0.65-8.79,2.41-14.19c0.26-0.98,1.56-1.43,2.67-1.43
		c0.91,0,1.69,0.33,1.69,1.11c-1.3,5.47-1.56,10.74-1.95,16.08C216.48,124.97,215.77,125.49,214.92,125.49z M213.49,105.24
		c0-1.56,4.1-3.13,5.86-3.13c7.81,0,12.37,3.45,12.37,9.77c0,2.15-1.17,3.97-2.86,5.27c1.69,1.89,2.86,4.36,4.23,6.71
		c0.2,0.33,0.26,0.78,0.26,1.11c0,1.3-1.11,2.28-1.95,2.28c-0.26,0-0.46-0.07-0.65-0.26c-0.2-0.26-3.32-4.69-5.79-7.81
		c-1.24,0.33-2.47,0.52-3.65,0.52c-2.08,0-3.52-1.43-3.52-3.32c0-1.24,2.02-2.41,3.65-2.41s3,0.33,4.17,0.85
		c0.85-1.04,1.43-2.21,1.43-3.13c0-5.01-5.67-5.86-8.72-5.86c-1.3,0-2.47,0.78-3.52,0.85C213.88,106.22,213.49,105.7,213.49,105.24z
		 M223.19,117.09c-0.78-0.78-0.98-0.91-1.82-0.91c-0.78,0.07-1.24,0.33-1.24,0.72c0,0.65,0.65,0.91,1.11,0.91
		C221.82,117.81,222.35,117.68,223.19,117.09z"/>
	<path class="st323" d="M245.85,100.36h0.39c0.85,0,1.76,1.11,1.89,2.02c0.33,1.11,1.5,4.3,1.76,6.05c0.78,5.66,1.3,8.85,1.3,13.87
		c0,2.28,0,2.87-0.2,3.65c-0.2,0.13-0.46,0.2-0.72,0.2c-1.24,0-2.21-1.37-2.93-3.06l-0.26-3.78H245c-2.28,0-3.06-0.06-3.58-0.06
		c-0.2,0-0.33,0-0.39,0.06c-0.98,0.33-1.43,2.87-2.34,5.27l-0.72,1.89c-0.33,0.33-0.91,0.52-1.56,0.52c-0.39,0-0.78-0.13-1.3-0.2
		c-0.91-0.98-1.24-1.82-1.24-3.19c0-1.56,0.65-3.52,1.82-5.6c0-1.04-0.59-2.15-1.95-2.34l0.13-1.24c0.26,0.06,0.59,0.06,0.91,0.06
		h2.15c1.04-2.21,3.32-6.84,4.88-9.18l3.13-3.84l0.2-0.78C245.33,100.36,245.52,100.36,245.85,100.36z M244.61,114.23
		c0.59,0,1.3,0,1.89-0.07c0-1.24-0.07-4.1-0.91-5.6c-0.91,0.26-2.34,4.04-2.8,5.6C243.38,114.23,244.03,114.23,244.61,114.23z"/>
	<path class="st323" d="M260.05,102.38c9.64,0,15.04,4.82,15.04,13.67c0,5.99-4.75,9.51-10.48,9.51c-1.11,0-1.69-0.07-3-0.26
		c-0.07,5.01-0.13,9.96-0.59,13.02c-0.85,0.72-1.24,1.04-1.95,1.04c-0.72,0-1.37-0.33-2.02-1.04c-0.26-1.3-0.26-3.32-0.26-5.92
		c0-2.54,0.07-4.75,0.07-8.46l-1.76-0.85c-1.11-0.46-2.28-0.52-2.28-2.08c0-0.85,0.2-1.95,0.72-3.13l3.45,1.24
		c0.2-3.39,0.59-9.57,2.73-13.41c-0.46-0.07-0.91-0.07-1.37-0.07c-1.17,0-2.15,0.26-3.78,0.59h-0.2c-0.26,0-0.39-0.2-0.39-0.46
		c0-0.46,0.39-1.11,1.3-2.15C256.66,102.7,258.16,102.38,260.05,102.38z M261.8,120.15c1.69,0.26,2.28,0.39,3.78,0.39
		c3.06,0,4.56-2.34,4.56-5.4c0-3.39-2.02-7.42-8.79-9.18C261.48,110.71,261.8,114.81,261.8,120.15z"/>
	<path class="st323" d="M290.32,102.25h0.91c0.52,0,1.69,0.13,2.41,0.46c0,0.39,0,1.11,0.06,1.89c0,0.46,0.07,1.04,0.07,1.63
		l0.46,8.01c0,1.24,0.2,2.34,0.39,3.45c0.2,1.24,0.39,2.41,0.39,3.78c0,0.98,0,2.8-0.72,3.58c-0.59,0.2-0.98,0.33-1.5,0.33
		c-0.98,0-2.47-0.65-2.67-1.76l-0.26-4.82v-0.26h-0.2c-0.85,0.07-1.56,0.13-2.21,0.13c-0.91,0-1.95-0.06-3.45-0.2
		c0.13,1.56,0.13,4.49,0.13,5.14c0,1.3-0.26,1.37-2.02,1.56c-0.85,0-1.56-0.07-2.54-0.78l-0.52-1.89c-0.26-0.72-0.39-4.36-0.39-5.21
		c-0.78-0.33-1.95-1.37-2.28-2.34c-0.13-0.46-0.39-2.21-0.39-3.25c0-0.13,0.06-0.2,0.06-0.26v-0.59c1.17,0.72,2.21,1.17,3,1.37
		l0.46-8.01l1.04-0.52c0.39-0.13,0.78-0.2,1.3-0.2c0.59,0,2.02,0.26,2.47,0.65c0,0.52-0.07,0.65-0.13,1.17
		c-0.13,1.11-0.33,2.73-0.33,5.4v2.99c1.37,0.26,1.95,0.33,4.17,0.33c0.59,0,0.85,0,1.5-0.13l-0.59-8.27l-0.13-1.56
		C289.02,103.35,289.54,102.7,290.32,102.25z"/>
	<path class="st323" d="M311.87,85.19c1.11,0,3.65,1.11,3.65,3.52c0,5.01-8.59,10.74-12.89,10.74c-1.3,0-2.93-0.2-4.1-0.59
		c-0.72,0.85-0.98,1.56-1.95,1.69c-0.65-0.13-1.5-1.37-1.63-2.8c0-0.33,0.13-0.78,0.2-1.11c-0.98-1.3-1.69-2.47-1.69-3.91
		c0-4.3,6.45-10.03,12.63-10.03c2.87,0,5.14,1.11,5.54,2.54C311.68,85.25,311.74,85.19,311.87,85.19z M296.9,92.87
		c0.13,0,0.26-0.06,0.33-0.13c0.85-1.17,3.58-3.78,5.08-5.21v-0.06c0-0.07,0-0.2-0.13-0.33c-3.25,0.65-5.27,3.06-5.53,5.6
		C296.7,92.81,296.77,92.87,296.9,92.87z M303.09,107.06c0.13,5.27,0.65,10.81,0.65,16.02c0,1.04-0.39,2.28-2.02,2.28
		c-0.52,0-1.3-0.2-1.82-0.39c-0.85-0.26-1.24-2.8-1.3-3.45c0-3.32,0.07-3.39,0.2-6.84c0.07-0.91,0.26-4.49,1.11-11.07
		c0.06-0.33,0.13-0.46,0.39-0.46C302.63,103.22,302.95,104.59,303.09,107.06z M301.07,95.61h1.43c3.25,0,9.9-2.21,9.9-6.19
		c0-0.91,0-1.63-1.69-1.63c-3.78,0-7.49,3.65-10.16,7.29C300.55,95.21,300.87,95.61,301.07,95.61z"/>
	<path class="st323" d="M327.63,121.71c0,3.19-6.45,3.58-10.22,3.58c-6.45,0-9.57-3.06-9.57-8.72c0-6.9,5.34-14.19,14.19-14.19
		c2.47,0,5.34,0.65,5.34,3.58c0,0.59-0.13,1.17-0.33,1.95c-0.78,0.33-1.5,0.59-2.21,0.59c-1.37,0-2.41-0.65-3.32-2.02
		c-6.25,0.98-8.92,5.6-8.92,10.29c0,2.73,1.37,4.56,5.86,4.56c1.69,0,4.17-1.76,6.77-1.76
		C326.65,119.57,327.63,120.15,327.63,121.71z"/>
</g>
<g>
	<g>
		<path class="st324" d="M203.64,140.22c0.69,0,1.36,0.35,0.76,2.88c-0.22,0.99-0.54,2.36-0.78,3.37c-0.11,0.47-0.09,0.67,0.06,0.67
			c0.15,0,0.69-0.24,1.25-0.86l0.3,0.6c-1.19,1.43-2.55,2.06-3.26,2.06c-0.6,0-1-0.39-0.56-2.36c0.3-1.36,0.56-2.27,0.82-3.42
			c0.22-0.91,0.13-1.21-0.15-1.21c-0.52,0-1.66,1.04-2.47,2.4c-0.41,0.67-0.52,1.13-0.67,1.77c-0.19,0.8-0.37,1.62-0.52,2.42
			c-0.78,0.07-1.56,0.24-2.18,0.41l-0.13-0.17c0.45-1.88,0.89-3.63,1.34-5.77c0.11-0.58,0.17-1.06-0.22-1.06
			c-0.56,0-1.66,1.06-2.47,2.44c-0.39,0.65-0.52,1.15-0.67,1.75c-0.18,0.78-0.37,1.62-0.52,2.4c-0.73,0.07-1.58,0.24-2.16,0.41
			l-0.13-0.17c0.47-1.92,0.95-3.94,1.41-6.08c0.13-0.56,0.09-0.74-0.05-0.74c-0.19,0-0.78,0.41-1.14,0.78l-0.28-0.6
			c1.19-1.26,2.1-1.92,2.96-1.92c0.65,0,0.99,0.76,0.6,2.53l-0.15,0.63c1.19-1.62,2.75-3.16,4.15-3.16c0.6,0,1.28,0.35,0.78,2.74
			l-0.11,0.45C200.66,141.73,202.37,140.22,203.64,140.22z"/>
	</g>
	<g>
		<path class="st324" d="M210.58,146.9c-1.17,1.41-2.49,2.05-3.26,2.05c-0.61,0-0.95-0.56-0.65-1.86c0.35-1.49,0.78-3.09,1.06-4.33
			c0.13-0.54,0.11-0.71-0.06-0.71c-0.18,0-0.61,0.26-1.02,0.61l-0.28-0.6c1.25-1.21,2.57-1.82,3.26-1.82c0.63,0,0.78,0.58,0.37,2.31
			c-0.28,1.15-0.69,2.75-0.97,3.91c-0.13,0.47-0.13,0.73,0.02,0.73c0.15,0,0.61-0.26,1.21-0.88L210.58,146.9z M210.9,137.6
			c0,0.74-0.56,1.45-1.38,1.45c-0.67,0-1.13-0.43-1.13-1.15c0-0.63,0.5-1.43,1.45-1.43C210.57,136.46,210.9,136.99,210.9,137.6z"/>
	</g>
	<g>
		<path class="st324" d="M220.82,146.88c-1.17,1.47-2.49,2.06-3.2,2.06c-0.65,0-0.97-0.41-0.61-2.16c0.22-1.15,0.6-2.59,0.87-3.74
			c0.22-0.91,0.07-1.17-0.19-1.17c-0.5,0-1.6,0.99-2.44,2.42c-0.39,0.67-0.52,1.13-0.67,1.75c-0.19,0.8-0.39,1.69-0.56,2.49
			c-0.73,0.07-1.58,0.24-2.14,0.41l-0.15-0.17c0.45-1.92,0.95-3.92,1.41-6.08c0.13-0.56,0.09-0.73-0.05-0.73
			c-0.21,0-0.73,0.37-1.12,0.74l-0.28-0.6c1.19-1.34,2.27-1.88,2.94-1.88c0.71,0,0.99,0.71,0.58,2.53l-0.15,0.61
			c1.04-1.54,2.85-3.14,4.22-3.14c0.71,0,1.34,0.35,0.76,2.85c-0.24,1-0.58,2.44-0.78,3.37c-0.09,0.48-0.09,0.69,0.06,0.69
			c0.2,0,0.63-0.22,1.19-0.86L220.82,146.88z"/>
	</g>
	<g>
		<path class="st324" d="M231.07,146.83c-1.15,1.51-2.4,2.12-3.09,2.12c-0.73,0-1.06-0.56-0.67-2.34l0.13-0.65
			c-1,1.4-2.73,2.99-4,2.99c-0.93,0-1.49-0.87-1.49-2.36c0-1.95,0.8-3.76,2.1-4.87c0.93-0.78,2.64-1.47,3.67-1.47
			c0.15,0,0.6,0,0.84,0.11l0.48-2.31c0.15-0.89-0.04-0.97-0.75-1.04c-0.17-0.02-0.45-0.04-0.52-0.04l0.15-0.61
			c1.21-0.15,2.27-0.37,2.86-0.52c0.33-0.07,0.58-0.15,0.69-0.15c0.24,0,0.26,0.2,0.17,0.6c-0.76,3.31-1.77,8.04-2.18,10.19
			c-0.09,0.47-0.07,0.71,0.07,0.71c0.2,0,0.67-0.32,1.23-0.93L231.07,146.83z M227.19,145.21c0.32-0.48,0.52-0.86,0.74-1.88
			l0.37-1.64c-0.35-0.39-0.87-0.54-1.47-0.54c-1.66,0-2.44,2.79-2.44,5c0,0.73,0.2,1.08,0.54,1.08
			C225.59,147.24,226.5,146.27,227.19,145.21z"/>
	</g>
	<g>
		<path class="st324" d="M244.29,143.27c0,1.92-0.89,3.89-2.7,4.93c-0.71,0.43-1.6,0.74-2.53,0.74c-2.23,0-2.83-1.67-2.83-3.05
			c0-2.64,1.53-4.5,3.42-5.28c0.62-0.24,1.3-0.37,1.86-0.37C243.38,140.24,244.29,141.47,244.29,143.27z M238.67,146.01
			c0,1.43,0.45,2.1,1.15,2.1c1.28,0,2.05-2.68,2.05-4.97c0-1.45-0.45-2.08-1.12-2.08C239.12,141.06,238.67,144.65,238.67,146.01z"/>
	</g>
	<g>
		<path class="st324" d="M247.4,140.46c0.35-1.51,0.82-2.44,1.71-3.31c1.08-1.02,2.14-1.47,2.98-1.47c1,0,1.43,0.39,1.43,0.84
			c0,0.39-0.48,1.06-0.76,1.23c-0.19,0.09-0.32,0.13-0.48-0.06c-0.52-0.61-0.99-0.95-1.32-0.95c-0.43,0-0.76,0.2-1.3,3.72h1.99
			l-0.41,0.82c-0.3,0.04-1.38,0.11-1.71,0.11c-0.28,1.67-0.5,3.2-0.99,5.64c-0.61,3.05-1.67,4.17-2.96,5.21
			c-0.78,0.67-1.58,0.97-2.06,0.97c-0.71,0-1.32-0.45-1.28-0.93c0-0.45,0.37-1,0.69-1.25c0.15-0.11,0.26-0.11,0.35-0.04
			c0.52,0.45,1.15,0.84,1.53,0.84c0.78,0,0.88-1.23,1.38-4.26c0.43-2.53,0.71-4.17,1.02-6.18h-1.45l-0.09-0.2l0.58-0.73H247.4z"/>
	</g>
</g>
<g>
	<g>
		<path class="st324" d="M266.8,145.76c-1.14,1.32-2.46,1.94-3.6,1.94c-1.34,0-2.13-0.95-2.13-2.55c0-1.42,0.6-2.98,1.83-4.05
			c0.74-0.65,1.99-1.24,2.92-1.24c0.82,0,1.44,0.3,1.46,0.82c0.02,0.42-0.35,0.94-0.72,1.1c-0.2,0.08-0.37,0.05-0.5-0.1
			c-0.5-0.62-0.89-0.95-1.31-0.95c-0.82,0-1.46,1.91-1.46,3.9c0,1.22,0.44,1.73,1.1,1.73c0.74,0,1.46-0.44,2.14-1.11L266.8,145.76z"
			/>
	</g>
	<g>
		<path class="st324" d="M267.96,141.57c0.92-1.04,1.93-1.71,2.71-1.71c0.6,0,0.82,0.72,0.42,2.41l-0.08,0.37
			c0.84-1.49,1.86-2.78,2.68-2.78c0.55,0,0.92,0.47,0.92,0.9c0,0.54-0.47,1.21-0.86,1.46c-0.18,0.12-0.32,0.12-0.42,0
			c-0.27-0.28-0.5-0.5-0.72-0.5c-0.49,0-1.34,1.53-1.53,1.91c-0.4,0.82-0.72,2.43-0.97,3.7c-0.64,0.07-1.41,0.22-1.93,0.37
			l-0.13-0.15c0.42-1.69,0.9-3.77,1.14-4.98c0.22-1.02,0.17-1.16,0.03-1.16s-0.6,0.29-1.02,0.69L267.96,141.57z"/>
	</g>
	<g>
		<path class="st324" d="M276.9,147.71c-1.02,0-2.11-0.55-2.11-2.55c0-1.58,0.67-3.27,1.93-4.26c0.69-0.52,1.76-1.04,2.68-1.04
			c1.22,0,1.78,0.69,1.78,1.47c0,1.76-2.55,2.43-4.21,2.75c-0.02,0.15-0.03,0.52-0.03,0.64c0,0.87,0.27,1.64,1.17,1.64
			c0.82,0,1.66-0.49,2.46-1.32l0.27,0.54C279.59,147.07,278.17,147.71,276.9,147.71z M277.03,143.45c1.74-0.42,2.28-1.12,2.28-2.01
			c0-0.55-0.29-0.79-0.67-0.79C278.2,140.65,277.35,141.17,277.03,143.45z"/>
	</g>
	<g>
		<path class="st324" d="M289.93,145.81c-0.9,1.17-2.13,1.89-2.85,1.89c-0.55,0-0.84-0.49-0.54-2.06l0.12-0.59
			c-0.64,0.9-1.37,1.61-1.81,1.93c-0.59,0.47-1.07,0.72-1.64,0.72c-0.7,0-1.26-0.67-1.26-2.03c0-1.62,0.65-3.32,1.84-4.42
			c0.92-0.82,2.25-1.39,3.48-1.39c0.94,0,1.96,0.27,2.35,0.3c-0.34,1.31-0.89,3.85-1.12,5.24c-0.07,0.42-0.05,0.65,0.08,0.65
			c0.18,0,0.57-0.25,1.06-0.75L289.93,145.81z M286.38,144.46c0.29-0.4,0.54-0.92,0.7-1.58c0.15-0.69,0.35-1.54,0.42-1.99
			c-0.23-0.13-0.74-0.23-1.07-0.23c-1.54,0-2.29,2.78-2.26,4.56c0,0.67,0.18,0.96,0.42,0.96
			C284.96,146.17,285.56,145.68,286.38,144.46z"/>
	</g>
	<g>
		<path class="st324" d="M295.78,140.8c-0.25,0.03-1.12,0.08-1.59,0.1c-0.79,3.79-0.75,3.59-0.92,4.54
			c-0.12,0.62-0.03,0.75,0.12,0.75c0.32,0,0.87-0.37,1.39-0.95l0.27,0.52c-0.65,0.89-1.98,1.94-3.02,1.94
			c-0.79,0-1.12-0.59-0.72-2.4l0.94-4.41h-1.31l-0.03-0.15l0.52-0.69h1.01l0.37-1.74c0.57-0.29,1.54-0.79,2.01-1.16l0.25,0.15
			c-0.18,0.6-0.5,1.88-0.69,2.75h1.78L295.78,140.8z"/>
	</g>
	<g>
		<path class="st324" d="M300.04,145.86c-1.05,1.27-2.24,1.84-2.93,1.84c-0.55,0-0.85-0.5-0.59-1.68c0.32-1.34,0.7-2.78,0.95-3.9
			c0.12-0.49,0.1-0.64-0.05-0.64c-0.17,0-0.55,0.23-0.92,0.55l-0.25-0.54c1.12-1.09,2.31-1.64,2.93-1.64c0.57,0,0.7,0.52,0.34,2.08
			c-0.25,1.04-0.62,2.48-0.87,3.52c-0.12,0.42-0.12,0.65,0.02,0.65c0.14,0,0.55-0.23,1.09-0.79L300.04,145.86z M300.33,137.49
			c0,0.67-0.5,1.31-1.24,1.31c-0.6,0-1.02-0.39-1.02-1.04c0-0.57,0.45-1.29,1.31-1.29C300.03,136.46,300.33,136.93,300.33,137.49z"
			/>
	</g>
	<g>
		<path class="st324" d="M300.8,141.62c0.82-1.07,1.81-1.76,2.46-1.76c0.67,0,0.9,0.7,1.01,2.11c0.15,2.03,0.15,3.13,0.18,3.74
			c1.07-1.26,2.11-2.6,2.11-3.59c0-0.45-0.23-0.82-0.35-1.04c-0.03-0.12-0.1-0.22-0.03-0.35c0.13-0.42,0.8-0.87,1.29-0.87
			c0.49,0,0.75,0.42,0.77,1.09c0,0.57-0.25,1.37-1.07,2.5c-1.02,1.37-2.8,3.32-3.72,4.25h-0.72c-0.08-0.97-0.18-3.23-0.44-5.33
			c-0.08-0.67-0.14-0.95-0.34-0.95c-0.15,0-0.49,0.23-0.89,0.74L300.8,141.62z"/>
	</g>
	<g>
		<path class="st324" d="M312.98,145.86c-1.05,1.27-2.24,1.84-2.93,1.84c-0.55,0-0.85-0.5-0.59-1.68c0.32-1.34,0.7-2.78,0.95-3.9
			c0.12-0.49,0.1-0.64-0.05-0.64c-0.17,0-0.55,0.23-0.92,0.55l-0.25-0.54c1.12-1.09,2.31-1.64,2.93-1.64c0.57,0,0.7,0.52,0.34,2.08
			c-0.25,1.04-0.62,2.48-0.87,3.52c-0.12,0.42-0.12,0.65,0.02,0.65c0.14,0,0.55-0.23,1.09-0.79L312.98,145.86z M313.27,137.49
			c0,0.67-0.5,1.31-1.24,1.31c-0.6,0-1.02-0.39-1.02-1.04c0-0.57,0.45-1.29,1.31-1.29C312.97,136.46,313.27,136.93,313.27,137.49z"
			/>
	</g>
	<g>
		<path class="st324" d="M319.03,140.8c-0.25,0.03-1.12,0.08-1.59,0.1c-0.79,3.79-0.75,3.59-0.92,4.54
			c-0.12,0.62-0.03,0.75,0.12,0.75c0.32,0,0.87-0.37,1.39-0.95l0.27,0.52c-0.65,0.89-1.98,1.94-3.02,1.94
			c-0.79,0-1.12-0.59-0.72-2.4l0.94-4.41h-1.31l-0.03-0.15l0.52-0.69h1.01l0.37-1.74c0.57-0.29,1.54-0.79,2.01-1.16l0.25,0.15
			c-0.18,0.6-0.5,1.88-0.69,2.75h1.78L319.03,140.8z"/>
	</g>
	<g>
		<path class="st324" d="M319.52,141.69c0.7-0.97,1.83-1.83,2.6-1.83c0.74,0,0.95,1.01,1.09,2.48c0.14,1.36,0.17,2.82,0.22,3.77
			c0.9-1.37,1.91-2.86,1.89-4.01c0-0.4-0.18-0.84-0.27-1.05c-0.1-0.23-0.07-0.37,0.07-0.59c0.35-0.44,0.8-0.6,1.1-0.6
			c0.44,0,0.74,0.32,0.79,1.07c0.02,0.49-0.2,1.27-0.65,2.06c-1.42,2.43-3.62,5.46-5.9,8.03l-2.19,0.52l-0.18-0.47
			c0.92-0.55,2.63-1.74,3.59-2.95c0.02-1.09-0.22-3.65-0.42-5.36c-0.14-1.16-0.32-1.34-0.47-1.34c-0.17,0-0.47,0.25-0.94,0.77
			L319.52,141.69z"/>
	</g>
</g>
<g>
</g>
</svg>
