<?xml version="1.0" encoding="utf-8"?>
<!-- Generator: Adobe Illustrator 23.0.1, SVG Export Plug-In . SVG Version: 6.00 Build 0)  -->
<svg version="1.1" id="Capa_1" xmlns="http://www.w3.org/2000/svg" xmlns:xlink="http://www.w3.org/1999/xlink" x="0px" y="0px"
	 viewBox="0 0 512 352" style="enable-background:new 0 0 512 352;" xml:space="preserve">
<style type="text/css">
	.st0{fill:#ED185B;}
	.st1{display:none;}
	.st2{display:inline;fill:#ED185B;}
</style>
<g>
	<g>
		<path class="st0" d="M490.2,33.9c-13.9-24.7-29-29.2-59.6-31C399.9,0.9,322.8,0,256.1,0C189.2,0,112,0.9,81.4,2.9
			c-30.6,1.8-45.7,6.3-59.7,31C7.4,58.6,0,101.1,0,175.9c0,0.1,0,0.1,0,0.1c0,0.1,0,0.1,0,0.1v0.1c0,74.5,7.4,117.3,21.7,141.7
			c14,24.7,29.1,29.2,59.7,31.3c30.7,1.8,107.8,2.8,174.7,2.8c66.8,0,143.9-1.1,174.6-2.8c30.7-2.1,45.8-6.6,59.6-31.3
			c14.4-24.4,21.7-67.2,21.7-141.7c0,0,0-0.1,0-0.2c0,0,0-0.1,0-0.1C512,101.1,504.7,58.6,490.2,33.9z M192,272V80l160,96L192,272z"
			/>
	</g>
</g>
<g class="st1">
	<path class="st2" d="M209.6,68.3v48.7h-35.1v58.8h35.1v175.7h73V175.7h48.7c0,0,4.7-28.4,6.8-59.5h-55.4V75.7
		c0-6.1,8.1-14.2,15.5-14.2H338V0h-54.1C208.2,0,209.6,59.5,209.6,68.3L209.6,68.3z"/>
</g>
<g class="st1">
	<path class="st2" d="M443,40.4c-15.7,7-32.7,11.8-50.5,13.9c18.2-10.9,32.1-28.2,38.7-48.7c-17,10.1-35.9,17.4-56,21.3
		c-16-17-38.9-27.7-64.1-27.7c-48.6,0-88,39.4-88,88c0,6.9,0.8,13.6,2.2,20c-73.2-3.7-138-38.6-181.4-91.9
		c-7.6,13-11.9,28.2-11.9,44.3c0,30.5,15.6,57.5,39.1,73.2c-14.4-0.4-27.9-4.4-39.8-11v1.1c0,42.7,30.4,78.3,70.5,86.4
		c-7.3,1.9-15.2,3-23.2,3c-5.6,0-11.1-0.5-16.6-1.5c11.3,35,43.7,60.3,82.2,61.1c-30.1,23.6-68.1,37.6-109.3,37.6
		c-7.1,0-14-0.4-20.9-1.2c39,25,85.2,39.5,135,39.5c161.8,0,250.3-134.1,250.3-250.3L399,85.9C416.3,73.5,431.2,58.1,443,40.4
		L443,40.4z M443,40.4"/>
</g>
<g class="st1">
	<path class="st2" d="M440.5,215.8V352h-79V224.9c0-31.9-11.4-53.7-40-53.7c-21.8,0-34.8,14.7-40.5,28.9c-2.1,5.1-2.6,12.1-2.6,19.2
		V352h-79c0,0,1.1-215.2,0-237.5h79v33.7c-0.2,0.3-0.4,0.5-0.5,0.8h0.5v-0.8c10.5-16.1,29.2-39.2,71.2-39.2
		C401.6,108.9,440.5,142.9,440.5,215.8L440.5,215.8z M116.9,0c-27,0-44.7,17.7-44.7,41c0,22.8,17.2,41,43.6,41h0.5
		c27.5,0,44.7-18.2,44.7-41C160.5,17.7,143.9,0,116.9,0L116.9,0z M76.9,352h78.9V114.5H76.9V352z M76.9,352"/>
</g>
</svg>
