<?xml version="1.0" encoding="utf-8"?>
<!-- Generator: Adobe Illustrator 23.0.1, SVG Export Plug-In . SVG Version: 6.00 Build 0)  -->
<svg version="1.1" id="Layer_1" focusable="false" xmlns="http://www.w3.org/2000/svg" xmlns:xlink="http://www.w3.org/1999/xlink"
	 x="0px" y="0px" viewBox="0 0 448 512" style="enable-background:new 0 0 448 512;" xml:space="preserve">
<style type="text/css">
	.st0{fill:#3A3A3A;}
</style>
<path class="st0" d="M425.3,369.9c22.2,22.2,22.2,58.2,0,80.5c-11.1,11.1-25.7,16.7-40.2,16.7s-29.1-5.6-40.2-16.7L224.5,330
	L104.1,450.3c-22.2,22.2-58.2,22.2-80.5,0c-22.2-22.2-22.2-58.2,0-80.5L144,249.5L23.7,129.1c-22.2-22.2-22.2-58.2,0-80.5
	s58.2-22.2,80.5,0L224.5,169L344.9,48.7c22.2-22.2,58.2-22.2,80.5,0C436.4,59.8,442,74.3,442,88.9s-5.6,29.1-16.7,40.2L305,249.5
	L425.3,369.9z"/>
</svg>
