<?xml version="1.0" encoding="utf-8"?>
<!-- Generator: Adobe Illustrator 23.0.1, SVG Export Plug-In . SVG Version: 6.00 Build 0)  -->
<svg version="1.1" id="Layer_1" xmlns="http://www.w3.org/2000/svg" xmlns:xlink="http://www.w3.org/1999/xlink" x="0px" y="0px"
	 viewBox="0 0 205.16 95.65" style="enable-background:new 0 0 205.16 95.65;" xml:space="preserve">
<style type="text/css">
	.st0{fill:url(#SVGID_1_);}
	.st1{fill:url(#SVGID_2_);}
	.st2{fill:url(#SVGID_3_);}
	.st3{fill:url(#SVGID_4_);}
	.st4{fill:url(#SVGID_5_);}
	.st5{fill:url(#SVGID_6_);}
	.st6{fill:url(#SVGID_7_);}
	.st7{fill:url(#SVGID_8_);}
	.st8{fill:url(#SVGID_9_);}
	.st9{fill:#ED145B;}
	.st10{fill:#161616;}
</style>
<g>
	<g>
		<linearGradient id="SVGID_1_" gradientUnits="userSpaceOnUse" x1="-16.1569" y1="17.4303" x2="112.0034" y2="25.4005">
			<stop  offset="0" style="stop-color:#B4802C"/>
			<stop  offset="0.1782" style="stop-color:#C69632"/>
			<stop  offset="0.4151" style="stop-color:#F8DE7A"/>
			<stop  offset="0.6296" style="stop-color:#D5AD3F"/>
			<stop  offset="0.8039" style="stop-color:#BE8E2D"/>
			<stop  offset="1" style="stop-color:#B2812C"/>
		</linearGradient>
		<path class="st0" d="M13.88,14.68l-3.46-2.5c-0.1-0.07-0.24-0.05-0.31,0.05L2.39,22.89c-0.07,0.1-0.05,0.24,0.05,0.31l3.46,2.5
			c0.1,0.07,0.24,0.05,0.31-0.05l7.71-10.67C14,14.89,13.98,14.75,13.88,14.68z"/>
		<linearGradient id="SVGID_2_" gradientUnits="userSpaceOnUse" x1="-16.8367" y1="28.3618" x2="111.3236" y2="36.3319">
			<stop  offset="0" style="stop-color:#B4802C"/>
			<stop  offset="0.1782" style="stop-color:#C69632"/>
			<stop  offset="0.4151" style="stop-color:#F8DE7A"/>
			<stop  offset="0.6296" style="stop-color:#D5AD3F"/>
			<stop  offset="0.8039" style="stop-color:#BE8E2D"/>
			<stop  offset="1" style="stop-color:#B2812C"/>
		</linearGradient>
		<path class="st1" d="M14.41,37.62L7.45,27.13c-0.16-0.24-0.15-0.55,0.02-0.79l7.32-10.13c0.17-0.23,0.46-0.34,0.74-0.26
			l12.14,3.32c0.91,0.25,1.75,0.72,2.39,1.41c0.45,0.48,13.66,20.48,14.61,21.92c0.03,0.05,0.03,0.11,0,0.16l-0.78,1.08
			c-0.05,0.06-0.13,0.08-0.2,0.03L26.89,31.72c-0.12-0.09-0.17-0.24-0.14-0.39c0.22-1.19-0.49-2.49-1.97-2.79
			c-0.45-0.09-0.94-0.03-1.35,0.19c-1.75,0.92-1.75,3.09-0.39,4.08c0.82,0.59,1.88,0.59,2.68,0.07c0.14-0.09,0.31-0.1,0.44,0
			l16.75,12.1c0.06,0.05,0.08,0.13,0.03,0.2l-0.89,1.23c-0.03,0.05-0.09,0.07-0.15,0.05c-1.66-0.45-24.8-6.73-25.39-7
			C15.65,39.06,14.93,38.41,14.41,37.62z"/>
	</g>
	<g>
		<g>
			<linearGradient id="SVGID_3_" gradientUnits="userSpaceOnUse" x1="-16.8207" y1="28.1053" x2="111.3395" y2="36.0754">
				<stop  offset="0" style="stop-color:#B4802C"/>
				<stop  offset="0.1782" style="stop-color:#C69632"/>
				<stop  offset="0.4151" style="stop-color:#F8DE7A"/>
				<stop  offset="0.6296" style="stop-color:#D5AD3F"/>
				<stop  offset="0.8039" style="stop-color:#BE8E2D"/>
				<stop  offset="1" style="stop-color:#B2812C"/>
			</linearGradient>
			<path class="st2" d="M2.53,53.72l0.39-0.54c13.88,10.03,33.33,6.9,43.37-6.98s6.9-33.33-6.98-43.37l0.39-0.54
				c14.17,10.25,17.37,30.11,7.13,44.29C36.57,60.77,16.7,63.96,2.53,53.72z"/>
		</g>
		<linearGradient id="SVGID_4_" gradientUnits="userSpaceOnUse" x1="-15.0136" y1="-0.9527" x2="113.1466" y2="7.0175">
			<stop  offset="0" style="stop-color:#B4802C"/>
			<stop  offset="0.1782" style="stop-color:#C69632"/>
			<stop  offset="0.4151" style="stop-color:#F8DE7A"/>
			<stop  offset="0.6296" style="stop-color:#D5AD3F"/>
			<stop  offset="0.8039" style="stop-color:#BE8E2D"/>
			<stop  offset="1" style="stop-color:#B2812C"/>
		</linearGradient>
		<polygon class="st3" points="36.73,2.8 38.75,0 41.56,2.03 39.53,4.83 		"/>
		<linearGradient id="SVGID_5_" gradientUnits="userSpaceOnUse" x1="-18.3029" y1="51.9381" x2="109.8574" y2="59.9083">
			<stop  offset="0" style="stop-color:#B4802C"/>
			<stop  offset="0.1782" style="stop-color:#C69632"/>
			<stop  offset="0.4151" style="stop-color:#F8DE7A"/>
			<stop  offset="0.6296" style="stop-color:#D5AD3F"/>
			<stop  offset="0.8039" style="stop-color:#BE8E2D"/>
			<stop  offset="1" style="stop-color:#B2812C"/>
		</linearGradient>
		<polygon class="st4" points="0,53.62 2.03,50.81 4.83,52.84 2.8,55.64 		"/>
	</g>
	<g>
		<g>
			<linearGradient id="SVGID_6_" gradientUnits="userSpaceOnUse" x1="-17.6928" y1="42.1288" x2="110.4674" y2="50.099">
				<stop  offset="0" style="stop-color:#B4802C"/>
				<stop  offset="0.1782" style="stop-color:#C69632"/>
				<stop  offset="0.4151" style="stop-color:#F8DE7A"/>
				<stop  offset="0.6296" style="stop-color:#D5AD3F"/>
				<stop  offset="0.8039" style="stop-color:#BE8E2D"/>
				<stop  offset="1" style="stop-color:#B2812C"/>
			</linearGradient>
			<polygon class="st5" points="34.45,62.86 58.77,29.22 59.04,29.41 34.71,63.06 			"/>
		</g>
		<linearGradient id="SVGID_7_" gradientUnits="userSpaceOnUse" x1="-17.7253" y1="42.6508" x2="110.435" y2="50.6209">
			<stop  offset="0" style="stop-color:#B4802C"/>
			<stop  offset="0.1782" style="stop-color:#C69632"/>
			<stop  offset="0.4151" style="stop-color:#F8DE7A"/>
			<stop  offset="0.6296" style="stop-color:#D5AD3F"/>
			<stop  offset="0.8039" style="stop-color:#BE8E2D"/>
			<stop  offset="1" style="stop-color:#B2812C"/>
		</linearGradient>
		<polygon class="st6" points="43.96,47.03 45.99,44.22 48.79,46.25 46.77,49.05 		"/>
		<linearGradient id="SVGID_8_" gradientUnits="userSpaceOnUse" x1="-16.5808" y1="24.2476" x2="111.5794" y2="32.2178">
			<stop  offset="0" style="stop-color:#B4802C"/>
			<stop  offset="0.1782" style="stop-color:#C69632"/>
			<stop  offset="0.4151" style="stop-color:#F8DE7A"/>
			<stop  offset="0.6296" style="stop-color:#D5AD3F"/>
			<stop  offset="0.8039" style="stop-color:#BE8E2D"/>
			<stop  offset="1" style="stop-color:#B2812C"/>
		</linearGradient>
		<circle class="st7" cx="59.19" cy="28.96" r="1.17"/>
		<linearGradient id="SVGID_9_" gradientUnits="userSpaceOnUse" x1="-18.8003" y1="59.9371" x2="109.3599" y2="67.9073">
			<stop  offset="0" style="stop-color:#B4802C"/>
			<stop  offset="0.1782" style="stop-color:#C69632"/>
			<stop  offset="0.4151" style="stop-color:#F8DE7A"/>
			<stop  offset="0.6296" style="stop-color:#D5AD3F"/>
			<stop  offset="0.8039" style="stop-color:#BE8E2D"/>
			<stop  offset="1" style="stop-color:#B2812C"/>
		</linearGradient>
		<circle class="st8" cx="34.41" cy="63.25" r="1.17"/>
	</g>
</g>
<g>
	<path class="st9" d="M56.17,49.04c6.91,0,17.19,5.08,17.19,12.24c0,4.67-6.54,8.25-12.93,8.25c-0.45,0-0.81,0-1.99-0.16
		c-0.04,0.65-0.04,1.46-0.04,2.4c0,1.5,0.04,3.37,0.16,5.73c-0.04,1.02-0.98,1.99-1.95,2.28c-0.49,0-0.53-0.2-0.93-0.81
		c-0.12-0.57-0.24-1.1-0.33-1.71c-0.04-0.49-0.08-1.22-0.08-2.11l0.08-5.53v-0.89c-2.15-0.65-5.57-2.72-5.57-5
		c0-1.79,1.34-3.37,4.07-4.15c0.2-0.04,1.14-0.33,1.34-0.33c0.04-1.1,0.04-2.11,0.12-2.93c0.08-1.02,0.24-1.99,1.3-3.05
		c0.61,0.41,1.22,1.99,1.26,2.64l0.28,3.37c3.62,0,4.55,1.3,4.55,2.56c0,0.81-0.37,1.34-1.22,1.42c0.08-0.2,0.12-0.41,0.12-0.57
		c0-0.85-0.81-1.14-3.37-1.14l0.08,5c0.69,0.12,1.22,0.16,1.95,0.16c2.85,0,9.72-1.38,9.72-5.24c0-6.99-11.58-9.76-15.33-9.76
		c-1.54,0-3.54,0.08-5.16,0.2l-0.08-0.45C51.01,49.89,53.45,49.04,56.17,49.04z M53.33,61.68c-1.02,0.2-1.95,0.65-1.95,1.5
		c0,1.46,2.48,2.19,3.86,2.56v-4.19C54.71,61.56,53.77,61.6,53.33,61.68z"/>
	<path class="st9" d="M74.02,73.67l8.74-8.33c1.3-1.22,4.43-4.55,4.43-6.91c0-1.46-1.67-2.4-2.97-2.52
		c-0.24-0.04-0.49-0.04-0.73-0.04c-2.36,0-4.84,1.02-6.54,2.4c-0.69,0.61-0.24,2.56-1.63,2.56c-0.93-0.08-1.14-1.1-1.14-1.99
		c0-0.41,0.04-0.77,0.08-1.02c0.41-3.86,4.47-5.16,8.01-5.16c0.49,0,0.94,0.04,1.38,0.08c3.05,0.33,5.53,2.44,5.53,6.22
		c0,4.71-7.4,10.53-10.61,13.82c0.53,0.08,2.6,0.28,3.05,0.33c2.4,0.2,3.05,1.14,5.98,1.14l0.85-0.04c2.24-0.12,2.8-0.89,4.8-1.95
		c0.41,0.08,0.45,0.49,0.45,1.06c-1.59,1.95-4.51,3.7-6.87,3.78L75.81,76.6c-1.34,0.04-2.76,1.3-4.11,1.3
		c-0.61-0.04-1.06-0.61-1.06-1.26C70.81,75.1,72.8,74.08,74.02,73.67z"/>
	<path class="st9" d="M100.28,73.27c-0.77,1.83-1.42,3.62-1.71,4.51c-0.41,1.34-1.67,1.71-2.48,1.71c-0.28,0-0.37-0.41-0.37-0.89
		c0-0.45,0.08-0.98,0.2-1.34c0.53-2.11,1.46-4.39,2.56-6.42c-1.5-2.07-2.07-3.01-3.17-5.16c-0.16-0.2-0.2-0.49-0.2-0.77
		s0.04-0.53,0.2-0.69c0.69-0.45,1.46-0.65,2.36-0.65c0.33,0.33,0.65,0.77,0.94,1.38l1.63,2.93c0.57-0.77,1.18-1.46,1.83-2.03
		c1.14-0.98,2.03-1.42,2.76-1.42c0.69,0,1.26,0.2,1.46,2.48c-0.16-0.28-0.41-0.37-0.65-0.37c-0.61,0-1.3,0.65-2.03,1.26
		c-0.65,0.61-1.22,1.46-1.83,2.56c1.02,1.54,2.64,5,3.9,5c0.73,0,0.94-0.49,1.22-1.5c0.2,0.65,0.28,1.42,0.28,2.07
		c0,1.67-0.61,3.05-1.83,3.05c-0.33,0-1.95-1.58-2.36-2.11L100.28,73.27z"/>
	<path class="st9" d="M134.79,55.54c0.53,0,0.81-0.28,0.81-1.06c0-1.42-2.15-2.72-4.55-2.72c-6.63,0-12.8,4.02-15.81,8.46
		c-1.91,2.8-3.17,6.54-3.17,10.53c0,3.66,3.25,5.41,6.75,5.41c4.06,0,8.29-3.13,8.29-7.64c0-0.24,0-0.49-0.04-0.73
		c-2.93,1.3-6.14,1.79-9.35,1.79c-1.22,0-3.98-0.85-3.98-2.8c0-2.89,4.55-3.98,8.13-3.98c1.95,0,3.7,0.41,5.73,1.63
		c0.49-0.16,1.06-0.57,1.54-0.89c0-0.16-0.45-0.57-0.45-0.77c0.08-0.16,0.2-0.28,0.37-0.28c0.04,0,0.12,0,0.16,0.04
		c1.18,0.57,1.3,1.26,1.3,1.91c0,1.06-0.69,2.03-1.79,2.76c0.28,1.06,0.41,2.07,0.41,3.05c0,5.57-4.72,9.11-10.28,9.11
		c-5.81,0-10.12-2.8-10.12-9.19c0-11.38,10.37-21.38,21.54-21.38c3.78,0,7.36,2.11,7.36,5.65c0,1.3-0.94,2.44-2.2,2.44
		c-0.85,0-1.67-0.73-1.87-1.54C134.06,55.42,134.47,55.54,134.79,55.54z M118.45,66.52c0.49,0,0.89,0,1.22-0.04
		c2.76-0.2,4.06-0.24,5.89-0.77c-1.26-0.77-3.09-1.06-3.62-1.06c-2.03,0-5.41,0.2-6.18,1.71C116.42,66.48,117.51,66.52,118.45,66.52
		z"/>
	<path class="st9" d="M134.18,78.35c-0.89,0-1.95-0.77-1.95-1.95c0.04-3.5,0.41-5.49,1.5-8.86c0.16-0.61,0.98-0.89,1.67-0.89
		c0.57,0,1.06,0.2,1.06,0.69c-0.81,3.41-0.98,6.71-1.22,10.04C135.16,78.02,134.71,78.35,134.18,78.35z M133.29,65.71
		c0-0.98,2.56-1.95,3.66-1.95c4.88,0,7.72,2.15,7.72,6.1c0,1.34-0.73,2.48-1.79,3.29c1.06,1.18,1.79,2.72,2.64,4.19
		c0.12,0.2,0.16,0.49,0.16,0.69c0,0.81-0.69,1.42-1.22,1.42c-0.16,0-0.28-0.04-0.41-0.16c-0.12-0.16-2.07-2.93-3.62-4.88
		c-0.77,0.2-1.54,0.33-2.28,0.33c-1.3,0-2.2-0.89-2.2-2.07c0-0.77,1.26-1.5,2.28-1.5s1.87,0.2,2.6,0.53
		c0.53-0.65,0.89-1.38,0.89-1.95c0-3.13-3.54-3.66-5.45-3.66c-0.81,0-1.54,0.49-2.19,0.53C133.53,66.32,133.29,65.99,133.29,65.71z
		 M139.34,73.1c-0.49-0.49-0.61-0.57-1.14-0.57c-0.49,0.04-0.77,0.2-0.77,0.45c0,0.41,0.41,0.57,0.69,0.57
		C138.49,73.55,138.82,73.47,139.34,73.1z"/>
	<path class="st9" d="M153.49,62.66h0.24c0.53,0,1.1,0.69,1.18,1.26c0.2,0.69,0.94,2.68,1.1,3.78c0.49,3.54,0.81,5.53,0.81,8.66
		c0,1.42,0,1.79-0.12,2.28c-0.12,0.08-0.28,0.12-0.45,0.12c-0.77,0-1.38-0.85-1.83-1.91l-0.16-2.36h-1.3
		c-1.42,0-1.91-0.04-2.24-0.04c-0.12,0-0.2,0-0.24,0.04c-0.61,0.2-0.89,1.79-1.46,3.29l-0.45,1.18c-0.2,0.2-0.57,0.33-0.98,0.33
		c-0.24,0-0.49-0.08-0.81-0.12c-0.57-0.61-0.77-1.14-0.77-1.99c0-0.98,0.41-2.2,1.14-3.5c0-0.65-0.37-1.34-1.22-1.46l0.08-0.77
		c0.16,0.04,0.37,0.04,0.57,0.04h1.34c0.65-1.38,2.07-4.27,3.05-5.73l1.95-2.4l0.12-0.49C153.17,62.66,153.29,62.66,153.49,62.66z
		 M152.72,71.32c0.37,0,0.81,0,1.18-0.04c0-0.77-0.04-2.56-0.57-3.5c-0.57,0.16-1.46,2.52-1.75,3.5
		C151.95,71.32,152.35,71.32,152.72,71.32z"/>
	<path class="st9" d="M162.35,63.92c6.02,0,9.39,3.01,9.39,8.54c0,3.74-2.97,5.94-6.54,5.94c-0.69,0-1.06-0.04-1.87-0.16
		c-0.04,3.13-0.08,6.22-0.37,8.13c-0.53,0.45-0.77,0.65-1.22,0.65c-0.45,0-0.85-0.2-1.26-0.65c-0.16-0.81-0.16-2.07-0.16-3.7
		c0-1.58,0.04-2.97,0.04-5.28l-1.1-0.53c-0.69-0.28-1.42-0.33-1.42-1.3c0-0.53,0.12-1.22,0.45-1.95l2.15,0.77
		c0.12-2.11,0.37-5.98,1.71-8.37c-0.28-0.04-0.57-0.04-0.85-0.04c-0.73,0-1.34,0.16-2.36,0.37h-0.12c-0.16,0-0.24-0.12-0.24-0.28
		c0-0.28,0.24-0.69,0.81-1.34C160.24,64.12,161.18,63.92,162.35,63.92z M163.45,75.01c1.06,0.16,1.42,0.24,2.36,0.24
		c1.91,0,2.85-1.46,2.85-3.37c0-2.11-1.26-4.63-5.49-5.73C163.25,69.12,163.45,71.68,163.45,75.01z"/>
	<path class="st9" d="M181.26,63.84h0.57c0.33,0,1.06,0.08,1.5,0.28c0,0.24,0,0.69,0.04,1.18c0,0.28,0.04,0.65,0.04,1.02l0.28,5
		c0,0.77,0.12,1.46,0.24,2.15c0.12,0.77,0.24,1.5,0.24,2.36c0,0.61,0,1.75-0.45,2.24c-0.37,0.12-0.61,0.2-0.94,0.2
		c-0.61,0-1.54-0.41-1.67-1.1l-0.16-3.01V74h-0.12c-0.53,0.04-0.98,0.08-1.38,0.08c-0.57,0-1.22-0.04-2.15-0.12
		c0.08,0.98,0.08,2.8,0.08,3.21c0,0.81-0.16,0.85-1.26,0.98c-0.53,0-0.98-0.04-1.59-0.49l-0.33-1.18c-0.16-0.45-0.24-2.72-0.24-3.25
		c-0.49-0.2-1.22-0.85-1.42-1.46c-0.08-0.28-0.24-1.38-0.24-2.03c0-0.08,0.04-0.12,0.04-0.16V69.2c0.73,0.45,1.38,0.73,1.87,0.85
		l0.28-5l0.65-0.33c0.24-0.08,0.49-0.12,0.81-0.12c0.37,0,1.26,0.16,1.54,0.41c0,0.33-0.04,0.41-0.08,0.73
		c-0.08,0.69-0.2,1.71-0.2,3.37v1.87c0.85,0.16,1.22,0.2,2.6,0.2c0.37,0,0.53,0,0.93-0.08l-0.37-5.16l-0.08-0.98
		C180.44,64.53,180.77,64.12,181.26,63.84z"/>
	<path class="st9" d="M194.71,53.19c0.69,0,2.28,0.69,2.28,2.2c0,3.13-5.37,6.71-8.05,6.71c-0.81,0-1.83-0.12-2.56-0.37
		c-0.45,0.53-0.61,0.98-1.22,1.06c-0.41-0.08-0.94-0.85-1.02-1.75c0-0.2,0.08-0.49,0.12-0.69c-0.61-0.81-1.06-1.54-1.06-2.44
		c0-2.68,4.02-6.26,7.89-6.26c1.79,0,3.21,0.69,3.46,1.59C194.59,53.23,194.63,53.19,194.71,53.19z M185.36,57.98
		c0.08,0,0.16-0.04,0.2-0.08c0.53-0.73,2.24-2.36,3.17-3.25v-0.04c0-0.04,0-0.12-0.08-0.2c-2.03,0.41-3.29,1.91-3.46,3.5
		C185.24,57.94,185.28,57.98,185.36,57.98z M189.23,66.84c0.08,3.29,0.41,6.75,0.41,10c0,0.65-0.24,1.42-1.26,1.42
		c-0.33,0-0.81-0.12-1.14-0.24c-0.53-0.16-0.77-1.75-0.81-2.15c0-2.07,0.04-2.11,0.12-4.27c0.04-0.57,0.16-2.8,0.69-6.91
		c0.04-0.2,0.08-0.28,0.24-0.28C188.94,64.45,189.14,65.3,189.23,66.84z M187.96,59.69h0.89c2.03,0,6.18-1.38,6.18-3.86
		c0-0.57,0-1.02-1.06-1.02c-2.36,0-4.67,2.28-6.34,4.55C187.64,59.45,187.84,59.69,187.96,59.69z"/>
	<path class="st9" d="M204.55,75.99c0,1.99-4.02,2.24-6.38,2.24c-4.02,0-5.98-1.91-5.98-5.45c0-4.31,3.33-8.86,8.86-8.86
		c1.54,0,3.33,0.41,3.33,2.24c0,0.37-0.08,0.73-0.2,1.22c-0.49,0.2-0.94,0.37-1.38,0.37c-0.85,0-1.5-0.41-2.07-1.26
		c-3.9,0.61-5.57,3.5-5.57,6.42c0,1.71,0.85,2.85,3.66,2.85c1.06,0,2.6-1.1,4.23-1.1C203.94,74.65,204.55,75.01,204.55,75.99z"/>
</g>
<g>
	<path class="st10" d="M127.14,87.54c0.43,0,0.85,0.22,0.48,1.8c-0.14,0.62-0.34,1.48-0.49,2.1c-0.07,0.29-0.06,0.42,0.03,0.42
		c0.09,0,0.43-0.15,0.78-0.53l0.19,0.37c-0.74,0.89-1.59,1.29-2.03,1.29c-0.37,0-0.63-0.24-0.35-1.47c0.19-0.85,0.35-1.42,0.51-2.14
		c0.14-0.57,0.08-0.75-0.09-0.75c-0.33,0-1.03,0.65-1.54,1.5c-0.26,0.42-0.33,0.71-0.42,1.1c-0.12,0.5-0.23,1.01-0.33,1.51
		c-0.49,0.05-0.98,0.15-1.36,0.26l-0.08-0.1c0.28-1.17,0.56-2.27,0.84-3.6c0.07-0.36,0.1-0.66-0.14-0.66
		c-0.35,0-1.03,0.66-1.54,1.52c-0.24,0.41-0.33,0.72-0.42,1.09c-0.12,0.49-0.23,1.01-0.32,1.5c-0.45,0.05-0.99,0.15-1.35,0.26
		l-0.08-0.1c0.29-1.2,0.59-2.46,0.88-3.8c0.08-0.35,0.06-0.46-0.03-0.46c-0.12,0-0.49,0.26-0.71,0.49l-0.17-0.37
		c0.74-0.79,1.31-1.2,1.85-1.2c0.41,0,0.62,0.48,0.37,1.58l-0.09,0.39c0.74-1.01,1.72-1.97,2.59-1.97c0.37,0,0.8,0.22,0.49,1.71
		l-0.07,0.28C125.28,88.49,126.35,87.54,127.14,87.54z"/>
	<path class="st10" d="M131.47,91.71c-0.73,0.88-1.56,1.28-2.03,1.28c-0.38,0-0.59-0.35-0.41-1.16c0.22-0.93,0.49-1.93,0.66-2.71
		c0.08-0.34,0.07-0.44-0.03-0.44c-0.12,0-0.38,0.16-0.64,0.38l-0.17-0.37c0.78-0.75,1.6-1.14,2.03-1.14c0.4,0,0.49,0.36,0.23,1.44
		c-0.17,0.72-0.43,1.72-0.6,2.44c-0.08,0.29-0.08,0.45,0.01,0.45c0.09,0,0.38-0.16,0.76-0.55L131.47,91.71z M131.67,85.91
		c0,0.46-0.35,0.91-0.86,0.91c-0.42,0-0.71-0.27-0.71-0.72c0-0.39,0.31-0.89,0.91-0.89C131.46,85.2,131.67,85.52,131.67,85.91z"/>
	<path class="st10" d="M137.86,91.7c-0.73,0.92-1.56,1.29-2,1.29c-0.41,0-0.6-0.26-0.38-1.35c0.14-0.72,0.37-1.61,0.55-2.33
		c0.14-0.57,0.05-0.73-0.12-0.73c-0.31,0-1,0.62-1.52,1.51c-0.24,0.42-0.33,0.71-0.42,1.09c-0.12,0.5-0.24,1.06-0.35,1.56
		c-0.45,0.05-0.99,0.15-1.34,0.26l-0.09-0.1c0.28-1.2,0.59-2.45,0.88-3.8c0.08-0.35,0.06-0.45-0.03-0.45c-0.13,0-0.45,0.23-0.7,0.46
		l-0.17-0.37c0.74-0.84,1.42-1.17,1.84-1.17c0.44,0,0.62,0.44,0.36,1.58l-0.09,0.38c0.65-0.96,1.78-1.96,2.64-1.96
		c0.44,0,0.84,0.22,0.48,1.78c-0.15,0.63-0.36,1.52-0.49,2.1c-0.06,0.3-0.06,0.43,0.03,0.43c0.13,0,0.39-0.14,0.74-0.53L137.86,91.7
		z"/>
	<path class="st10" d="M144.27,91.67c-0.72,0.94-1.5,1.32-1.93,1.32c-0.45,0-0.66-0.35-0.42-1.46l0.08-0.41
		c-0.63,0.87-1.71,1.87-2.5,1.87c-0.58,0-0.93-0.55-0.93-1.47c0-1.22,0.5-2.35,1.31-3.04c0.58-0.49,1.65-0.92,2.29-0.92
		c0.09,0,0.37,0,0.52,0.07l0.3-1.44c0.09-0.56-0.02-0.6-0.47-0.65c-0.1-0.01-0.28-0.02-0.32-0.02l0.09-0.38
		c0.75-0.09,1.42-0.23,1.79-0.33c0.21-0.05,0.36-0.09,0.43-0.09c0.15,0,0.16,0.13,0.1,0.37c-0.48,2.07-1.1,5.02-1.36,6.36
		c-0.06,0.29-0.05,0.44,0.05,0.44c0.13,0,0.42-0.2,0.77-0.58L144.27,91.67z M141.84,90.66c0.2-0.3,0.32-0.53,0.46-1.17l0.23-1.02
		c-0.22-0.24-0.55-0.34-0.92-0.34c-1.03,0-1.52,1.74-1.52,3.12c0,0.45,0.13,0.67,0.34,0.67C140.84,91.92,141.41,91.32,141.84,90.66z
		"/>
	<path class="st10" d="M152.52,89.45c0,1.2-0.56,2.43-1.68,3.08c-0.44,0.27-1,0.46-1.58,0.46c-1.39,0-1.76-1.05-1.76-1.9
		c0-1.65,0.95-2.81,2.14-3.3c0.38-0.15,0.81-0.23,1.16-0.23C151.95,87.56,152.52,88.32,152.52,89.45z M149.01,91.16
		c0,0.89,0.28,1.31,0.72,1.31c0.8,0,1.28-1.67,1.28-3.1c0-0.91-0.28-1.3-0.7-1.3C149.29,88.07,149.01,90.31,149.01,91.16z"/>
	<path class="st10" d="M154.46,87.7c0.22-0.94,0.51-1.52,1.07-2.07c0.67-0.64,1.34-0.92,1.86-0.92c0.63,0,0.89,0.24,0.89,0.52
		c0,0.24-0.3,0.66-0.48,0.77c-0.12,0.06-0.2,0.08-0.3-0.03c-0.33-0.38-0.62-0.59-0.82-0.59c-0.27,0-0.48,0.13-0.81,2.32h1.24
		l-0.26,0.51c-0.19,0.02-0.86,0.07-1.07,0.07c-0.17,1.05-0.31,2-0.62,3.52c-0.38,1.91-1.05,2.6-1.85,3.25
		c-0.49,0.42-0.99,0.6-1.29,0.6c-0.44,0-0.82-0.28-0.8-0.58c0-0.28,0.23-0.63,0.43-0.78c0.09-0.07,0.16-0.07,0.22-0.02
		c0.33,0.28,0.72,0.52,0.95,0.52c0.49,0,0.55-0.77,0.86-2.66c0.27-1.58,0.44-2.6,0.64-3.86h-0.91l-0.06-0.13l0.36-0.45H154.46z"/>
</g>
<g>
	<path class="st10" d="M166.57,91c-0.71,0.83-1.54,1.21-2.25,1.21c-0.84,0-1.33-0.6-1.33-1.59c0-0.89,0.38-1.86,1.14-2.53
		c0.46-0.41,1.25-0.77,1.82-0.77c0.51,0,0.9,0.19,0.91,0.51c0.01,0.26-0.22,0.59-0.45,0.69c-0.13,0.05-0.23,0.03-0.31-0.06
		c-0.31-0.39-0.55-0.6-0.82-0.6c-0.51,0-0.91,1.19-0.91,2.44c0,0.76,0.27,1.08,0.69,1.08c0.46,0,0.91-0.27,1.34-0.69L166.57,91z"/>
	<path class="st10" d="M167.3,88.39c0.57-0.65,1.2-1.07,1.69-1.07c0.38,0,0.51,0.45,0.26,1.51l-0.05,0.23
		c0.52-0.93,1.16-1.74,1.67-1.74c0.34,0,0.58,0.29,0.58,0.56c0,0.33-0.29,0.75-0.53,0.91c-0.11,0.07-0.2,0.07-0.26,0
		c-0.17-0.18-0.31-0.31-0.45-0.31c-0.3,0-0.84,0.95-0.95,1.19c-0.25,0.51-0.45,1.52-0.61,2.31c-0.4,0.04-0.88,0.14-1.2,0.23
		l-0.08-0.09c0.26-1.06,0.56-2.35,0.71-3.11c0.14-0.64,0.1-0.72,0.02-0.72s-0.38,0.18-0.64,0.43L167.3,88.39z"/>
	<path class="st10" d="M172.87,92.22c-0.64,0-1.32-0.34-1.32-1.59c0-0.98,0.42-2.04,1.2-2.66c0.43-0.32,1.1-0.65,1.67-0.65
		c0.76,0,1.11,0.43,1.11,0.92c0,1.1-1.59,1.52-2.63,1.72c-0.01,0.09-0.02,0.32-0.02,0.4c0,0.54,0.17,1.03,0.73,1.03
		c0.51,0,1.03-0.3,1.54-0.83l0.17,0.33C174.56,91.82,173.67,92.22,172.87,92.22z M172.96,89.56c1.09-0.26,1.42-0.7,1.42-1.26
		c0-0.34-0.18-0.49-0.42-0.49C173.69,87.81,173.16,88.14,172.96,89.56z"/>
	<path class="st10" d="M181.01,91.04c-0.56,0.73-1.33,1.18-1.78,1.18c-0.34,0-0.52-0.3-0.33-1.29l0.07-0.37
		c-0.4,0.56-0.86,1-1.13,1.2c-0.37,0.29-0.67,0.45-1.03,0.45c-0.44,0-0.78-0.42-0.78-1.27c0-1.01,0.41-2.07,1.15-2.76
		c0.57-0.51,1.4-0.87,2.18-0.87c0.59,0,1.22,0.17,1.46,0.19c-0.21,0.82-0.55,2.41-0.7,3.27c-0.04,0.26-0.03,0.41,0.05,0.41
		c0.11,0,0.36-0.16,0.66-0.47L181.01,91.04z M178.8,90.19c0.18-0.25,0.33-0.58,0.44-0.98c0.09-0.43,0.22-0.96,0.26-1.24
		c-0.15-0.08-0.46-0.15-0.67-0.15c-0.96,0-1.43,1.74-1.41,2.84c0,0.42,0.11,0.6,0.26,0.6C177.91,91.26,178.28,90.95,178.8,90.19z"/>
	<path class="st10" d="M184.67,87.91c-0.16,0.02-0.7,0.05-0.99,0.06c-0.49,2.36-0.47,2.24-0.57,2.83c-0.07,0.39-0.02,0.47,0.07,0.47
		c0.2,0,0.54-0.23,0.87-0.6l0.17,0.32c-0.41,0.55-1.23,1.21-1.88,1.21c-0.49,0-0.7-0.37-0.45-1.5l0.59-2.75h-0.82l-0.02-0.09
		l0.32-0.43h0.63l0.23-1.09c0.36-0.18,0.96-0.49,1.26-0.72l0.16,0.09c-0.11,0.38-0.31,1.17-0.43,1.72h1.11L184.67,87.91z"/>
	<path class="st10" d="M187.33,91.07c-0.66,0.8-1.4,1.15-1.83,1.15c-0.34,0-0.53-0.31-0.37-1.05c0.2-0.84,0.44-1.74,0.6-2.44
		c0.07-0.3,0.06-0.4-0.03-0.4c-0.1,0-0.35,0.15-0.58,0.34l-0.16-0.33c0.7-0.68,1.44-1.02,1.83-1.02c0.36,0,0.44,0.32,0.21,1.3
		c-0.16,0.65-0.39,1.55-0.54,2.2c-0.07,0.26-0.07,0.41,0.01,0.41c0.08,0,0.35-0.15,0.68-0.49L187.33,91.07z M187.5,85.84
		c0,0.42-0.31,0.82-0.77,0.82c-0.38,0-0.64-0.24-0.64-0.65c0-0.36,0.28-0.8,0.82-0.8C187.32,85.2,187.5,85.49,187.5,85.84z"/>
	<path class="st10" d="M187.8,88.42c0.51-0.67,1.13-1.1,1.54-1.1c0.42,0,0.56,0.44,0.63,1.32c0.09,1.27,0.09,1.96,0.11,2.33
		c0.67-0.78,1.32-1.62,1.32-2.24c0-0.28-0.15-0.51-0.22-0.65c-0.02-0.07-0.06-0.14-0.02-0.22c0.08-0.26,0.5-0.54,0.81-0.54
		c0.3,0,0.47,0.26,0.48,0.68c0,0.36-0.16,0.86-0.67,1.56c-0.64,0.86-1.75,2.07-2.32,2.66H189c-0.05-0.61-0.11-2.02-0.27-3.33
		c-0.05-0.42-0.08-0.6-0.21-0.6c-0.09,0-0.3,0.15-0.55,0.46L187.8,88.42z"/>
	<path class="st10" d="M195.4,91.07c-0.66,0.8-1.4,1.15-1.83,1.15c-0.34,0-0.53-0.31-0.37-1.05c0.2-0.84,0.44-1.74,0.6-2.44
		c0.07-0.3,0.06-0.4-0.03-0.4c-0.1,0-0.35,0.15-0.58,0.34l-0.16-0.33c0.7-0.68,1.44-1.02,1.83-1.02c0.36,0,0.44,0.32,0.21,1.3
		c-0.16,0.65-0.39,1.55-0.54,2.2c-0.07,0.26-0.07,0.41,0.01,0.41c0.08,0,0.35-0.15,0.68-0.49L195.4,91.07z M195.58,85.84
		c0,0.42-0.31,0.82-0.77,0.82c-0.38,0-0.64-0.24-0.64-0.65c0-0.36,0.28-0.8,0.82-0.8C195.39,85.2,195.58,85.49,195.58,85.84z"/>
	<path class="st10" d="M199.18,87.91c-0.16,0.02-0.7,0.05-0.99,0.06c-0.49,2.36-0.47,2.24-0.57,2.83c-0.07,0.39-0.02,0.47,0.07,0.47
		c0.2,0,0.54-0.23,0.87-0.6l0.17,0.32c-0.41,0.55-1.23,1.21-1.88,1.21c-0.49,0-0.7-0.37-0.45-1.5l0.59-2.75h-0.82l-0.02-0.09
		l0.32-0.43h0.63l0.23-1.09c0.36-0.18,0.96-0.49,1.26-0.72l0.16,0.09c-0.11,0.38-0.31,1.17-0.43,1.72h1.11L199.18,87.91z"/>
	<path class="st10" d="M199.49,88.46c0.44-0.61,1.14-1.14,1.62-1.14c0.46,0,0.6,0.63,0.68,1.55c0.08,0.85,0.1,1.76,0.14,2.35
		c0.56-0.86,1.19-1.79,1.18-2.5c0-0.25-0.11-0.52-0.17-0.66c-0.06-0.15-0.04-0.23,0.04-0.37c0.22-0.27,0.5-0.38,0.69-0.38
		c0.27,0,0.46,0.2,0.49,0.67c0.01,0.3-0.13,0.79-0.41,1.29c-0.89,1.52-2.26,3.41-3.68,5.01l-1.37,0.32l-0.11-0.29
		c0.58-0.34,1.64-1.09,2.24-1.84c0.01-0.68-0.14-2.28-0.26-3.35c-0.08-0.72-0.2-0.84-0.29-0.84c-0.1,0-0.29,0.16-0.59,0.48
		L199.49,88.46z"/>
</g>
</svg>
