<?xml version="1.0" encoding="utf-8"?>
<!-- Generator: Adobe Illustrator 23.0.1, SVG Export Plug-In . SVG Version: 6.00 Build 0)  -->
<svg version="1.1" id="Layer_1" xmlns="http://www.w3.org/2000/svg" xmlns:xlink="http://www.w3.org/1999/xlink" x="0px" y="0px"
	 viewBox="0 0 612 412" style="enable-background:new 0 0 612 412;" xml:space="preserve">
<style type="text/css">
	.st0{fill:#DF9AC3;}
	.st1{fill:#44494F;}
	.st2{fill:#FFFFFF;}
	.st3{fill:#EE2C66;}
	.st4{fill:#FAC215;}
	.st5{fill:#EF5756;}
	.st6{fill:#FFC840;}
	.st7{fill:#EE2A65;}
	.st8{fill:#CAD6D6;}
</style>
<g>
	<g>
		<polygon class="st0" points="548.4,78.4 548.4,72.5 494.8,62.3 494.8,78.8 		"/>
	</g>
	<g>
		<polygon class="st0" points="305.7,62.3 252.8,69 252.8,78.4 305.7,78.4 		"/>
	</g>
	<g>
		<rect x="471.1" y="244.3" class="st0" width="11.8" height="118.6"/>
	</g>
	<g>
		<rect x="111.9" y="164.8" class="st0" width="312.9" height="28.8"/>
	</g>
	<g>
		<path class="st1" d="M424.8,195.4H111.9c-1,0-1.8-0.8-1.8-1.8v-28.8c0-1,0.8-1.8,1.8-1.8h312.9c1,0,1.8,0.8,1.8,1.8v28.8
			C426.6,194.6,425.8,195.4,424.8,195.4z M113.7,191.8H423v-25.3H113.7V191.8z"/>
	</g>
	<g>
		<g>
			<rect x="111.9" y="193.6" class="st2" width="312.9" height="133"/>
		</g>
		<g>
			<path class="st1" d="M424.8,328.4H111.9c-1,0-1.8-0.8-1.8-1.8v-133c0-1,0.8-1.8,1.8-1.8h312.9c1,0,1.8,0.8,1.8,1.8v133
				C426.6,327.6,425.8,328.4,424.8,328.4z M113.7,324.9H423V195.4H113.7V324.9z"/>
		</g>
	</g>
	<g>
		<path class="st0" d="M411.9,314.6h-82.7c-1.8,0-3.2-1.4-3.2-3.2v-47c0-1.8,1.4-3.2,3.2-3.2h82.7c1.8,0,3.2,1.4,3.2,3.2v47
			C415.1,313.2,413.7,314.6,411.9,314.6z"/>
	</g>
	<g>
		<path class="st3" d="M368.6,223.7H130.7c-1.1,0-2-0.9-2-2v-15c0-1.1,0.9-2,2-2h237.9c1.1,0,2,0.9,2,2v15
			C370.5,222.8,369.7,223.7,368.6,223.7z"/>
	</g>
	<g>
		<g>
			<rect x="350" y="172.6" class="st4" width="13.2" height="13.2"/>
		</g>
		<g>
			<path class="st1" d="M363.2,186.7H350c-0.5,0-0.9-0.4-0.9-0.9v-13.2c0-0.5,0.4-0.9,0.9-0.9h13.2c0.5,0,0.9,0.4,0.9,0.9v13.2
				C364.1,186.3,363.7,186.7,363.2,186.7z M350.9,184.9h11.4v-11.4h-11.4V184.9z"/>
		</g>
	</g>
	<g>
		<g>
			<rect x="420.4" y="333.9" class="st3" width="13.2" height="13.2"/>
		</g>
		<g>
			<path class="st3" d="M433.6,348.4h-13.2c-0.7,0-1.3-0.6-1.3-1.3v-13.2c0-0.7,0.6-1.3,1.3-1.3h13.2c0.7,0,1.3,0.6,1.3,1.3V347
				C434.9,347.8,434.4,348.4,433.6,348.4z M421.8,345.7h10.5v-10.5h-10.5V345.7z"/>
		</g>
	</g>
	<g>
		<g>
			<rect x="193.6" y="348.5" class="st2" width="13.2" height="13.2"/>
		</g>
		<g>
			<path class="st1" d="M206.7,363h-13.2c-0.7,0-1.3-0.6-1.3-1.3v-13.2c0-0.7,0.6-1.3,1.3-1.3h13.2c0.7,0,1.3,0.6,1.3,1.3v13.2
				C208.1,362.4,207.5,363,206.7,363z M194.9,360.3h10.5v-10.5h-10.5V360.3z"/>
		</g>
	</g>
	<g>
		<rect x="514.4" y="255.4" class="st0" width="13.2" height="13.2"/>
	</g>
	<g>
		<path class="st1" d="M527.5,269.9h-13.2c-0.7,0-1.3-0.6-1.3-1.3v-13.2c0-0.7,0.6-1.3,1.3-1.3h13.2c0.7,0,1.3,0.6,1.3,1.3v13.2
			C528.9,269.3,528.3,269.9,527.5,269.9z M515.7,267.3h10.5v-10.5h-10.5V267.3z"/>
	</g>
	<g>
		<g>
			<rect x="190" y="71.9" class="st4" width="13.2" height="13.2"/>
		</g>
		<g>
			<path class="st1" d="M203.2,86.4H190c-0.7,0-1.3-0.6-1.3-1.3V71.9c0-0.7,0.6-1.3,1.3-1.3h13.2c0.7,0,1.3,0.6,1.3,1.3V85
				C204.5,85.8,203.9,86.4,203.2,86.4z M191.3,83.7h10.5V73.2h-10.5V83.7z"/>
		</g>
	</g>
	<g>
		<g>
			<rect x="375.2" y="172.6" class="st2" width="13.2" height="13.2"/>
		</g>
		<g>
			<path class="st1" d="M388.4,186.7h-13.2c-0.5,0-0.9-0.4-0.9-0.9v-13.2c0-0.5,0.4-0.9,0.9-0.9h13.2c0.5,0,0.9,0.4,0.9,0.9v13.2
				C389.3,186.3,388.9,186.7,388.4,186.7z M376.1,184.9h11.4v-11.4h-11.4V184.9z"/>
		</g>
	</g>
	<g>
		<g>
			<rect x="400.4" y="172.6" class="st5" width="13.2" height="13.2"/>
		</g>
		<g>
			<path class="st1" d="M413.6,186.7h-13.2c-0.5,0-0.9-0.4-0.9-0.9v-13.2c0-0.5,0.4-0.9,0.9-0.9h13.2c0.5,0,0.9,0.4,0.9,0.9v13.2
				C414.4,186.3,414.1,186.7,413.6,186.7z M401.3,184.9h11.4v-11.4h-11.4V184.9z"/>
		</g>
	</g>
	<g>
		<rect x="84.3" y="323.9" class="st3" width="13.2" height="13.2"/>
	</g>
	<g>
		<path class="st1" d="M97.4,338.4H84.3c-0.7,0-1.3-0.6-1.3-1.3v-13.2c0-0.7,0.6-1.3,1.3-1.3h13.2c0.7,0,1.3,0.6,1.3,1.3V337
			C98.8,337.8,98.2,338.4,97.4,338.4z M85.6,335.7h10.5v-10.5H85.6V335.7z"/>
	</g>
	<g>
		<g>
			<path class="st4" d="M132.9,238.8c1.9-1.9,4.1-2.8,6.8-2.8c2.6,0,4.9,0.9,6.8,2.8c1.9,1.9,2.8,4.1,2.8,6.8v3.2h-6.4v-3.2
				c0-0.9-0.3-1.7-0.9-2.3c-0.6-0.6-1.4-0.9-2.3-0.9s-1.6,0.3-2.3,0.9c-0.6,0.6-0.9,1.4-0.9,2.3v25.5c0,0.9,0.3,1.6,0.9,2.3
				c0.6,0.6,1.4,0.9,2.3,0.9s1.6-0.3,2.3-0.9c0.6-0.6,0.9-1.4,0.9-2.3v-3.2h6.4v3.2c0,2.6-0.9,4.9-2.8,6.8c-1.9,1.9-4.1,2.8-6.8,2.8
				c-2.6,0-4.9-0.9-6.8-2.8c-1.9-1.9-2.8-4.1-2.8-6.8v-25.5C130.1,243,131,240.7,132.9,238.8z"/>
			<path class="st1" d="M139.7,281.5c-2.9,0-5.3-1-7.4-3.1c-2-2-3.1-4.5-3.1-7.4v-25.5c0-2.9,1-5.4,3.1-7.4c2-2,4.5-3.1,7.4-3.1
				c2.9,0,5.4,1,7.4,3.1c2,2,3.1,4.5,3.1,7.4v3.2c0,0.5-0.4,0.9-0.9,0.9h-6.4c-0.5,0-0.9-0.4-0.9-0.9v-3.2c0-0.7-0.2-1.2-0.7-1.6
				c-0.5-0.5-1-0.7-1.6-0.7c-0.7,0-1.2,0.2-1.6,0.7c-0.4,0.5-0.7,1-0.7,1.7v25.5c0,0.7,0.2,1.2,0.7,1.6c0.4,0.4,1,0.7,1.6,0.7
				c0.7,0,1.2-0.2,1.7-0.7c0.5-0.4,0.7-1,0.7-1.6v-3.2c0-0.5,0.4-0.9,0.9-0.9h6.4c0.5,0,0.9,0.4,0.9,0.9v3.2c0,2.9-1,5.3-3.1,7.4
				C145,280.5,142.5,281.5,139.7,281.5z M139.7,236.9c-2.4,0-4.4,0.8-6.1,2.6c-1.7,1.7-2.5,3.7-2.5,6.1v25.5c0,2.4,0.8,4.4,2.5,6.1
				c1.7,1.7,3.7,2.5,6.1,2.5c2.4,0,4.4-0.8,6.1-2.5c1.7-1.7,2.5-3.7,2.5-6.1v-2.3h-4.6v2.3c0,1.1-0.4,2.1-1.2,2.9
				c-0.8,0.8-1.8,1.2-2.9,1.2c-1.1,0-2.1-0.4-2.9-1.2c-0.8-0.8-1.2-1.7-1.2-2.9v-25.5c0-1.1,0.4-2.1,1.2-2.9
				c0.8-0.8,1.8-1.2,2.9-1.2c1.1,0,2.1,0.4,2.9,1.2c0.8,0.8,1.2,1.8,1.2,2.9v2.3h4.6v-2.3c0-2.4-0.8-4.4-2.5-6.1
				C144.1,237.7,142.1,236.9,139.7,236.9z"/>
		</g>
		<g>
			<path class="st4" d="M159.8,238.8c1.9-1.9,4.1-2.8,6.8-2.8c2.6,0,4.9,0.9,6.8,2.8c1.9,1.9,2.8,4.1,2.8,6.8v25.5
				c0,2.6-0.9,4.9-2.8,6.8c-1.9,1.9-4.1,2.8-6.8,2.8c-2.6,0-4.9-0.9-6.8-2.8c-1.9-1.9-2.8-4.1-2.8-6.8v-25.5
				C157,243,157.9,240.7,159.8,238.8z M168.8,243.3c-0.6-0.6-1.4-0.9-2.3-0.9c-0.9,0-1.6,0.3-2.3,0.9c-0.6,0.6-0.9,1.4-0.9,2.3v9
				v7.5v9c0,0.9,0.3,1.6,0.9,2.3c0.6,0.6,1.4,0.9,2.3,0.9c0.9,0,1.6-0.3,2.3-0.9c0.6-0.6,0.9-1.4,0.9-2.3v-9v-7.5v-9
				C169.7,244.7,169.4,244,168.8,243.3z"/>
			<path class="st1" d="M166.5,281.5c-2.9,0-5.3-1-7.4-3.1c-2-2-3.1-4.5-3.1-7.4v-25.5c0-2.9,1-5.4,3.1-7.4c2-2,4.5-3.1,7.4-3.1
				s5.4,1,7.4,3.1c2,2,3.1,4.5,3.1,7.4v25.5c0,2.9-1,5.3-3.1,7.4C171.9,280.5,169.4,281.5,166.5,281.5z M166.5,236.9
				c-2.4,0-4.4,0.8-6.1,2.6c-1.7,1.7-2.5,3.7-2.5,6.1v25.5c0,2.4,0.8,4.4,2.5,6.1c1.7,1.7,3.7,2.5,6.1,2.5c2.4,0,4.4-0.8,6.1-2.5
				c1.7-1.7,2.5-3.7,2.5-6.1v-25.5c0-2.4-0.8-4.4-2.5-6.1C170.9,237.7,168.9,236.9,166.5,236.9z M166.5,275.2
				c-1.1,0-2.1-0.4-2.9-1.2c-0.8-0.8-1.2-1.7-1.2-2.9v-25.5c0-1.1,0.4-2.1,1.2-2.9c0.8-0.8,1.8-1.2,2.9-1.2c1.1,0,2.1,0.4,2.9,1.2
				c0.8,0.8,1.2,1.8,1.2,2.9v25.5c0,1.1-0.4,2.1-1.2,2.9C168.6,274.8,167.7,275.2,166.5,275.2z M166.5,243.3c-0.7,0-1.2,0.2-1.6,0.7
				c-0.4,0.5-0.7,1-0.7,1.7v25.5c0,0.7,0.2,1.2,0.7,1.6c0.4,0.4,1,0.7,1.6,0.7c0.7,0,1.2-0.2,1.7-0.7c0.5-0.4,0.7-1,0.7-1.6v-25.5
				c0-0.7-0.2-1.2-0.7-1.6C167.7,243.5,167.2,243.3,166.5,243.3z"/>
		</g>
		<g>
			<path class="st4" d="M196.2,271.1l-4.8-14.4v23.9H185V236h6.4l8,23.9l8-23.9h6.4v44.6h-6.4v-23.9l-4.8,14.4H196.2z"/>
			<path class="st1" d="M213.7,281.5h-6.4c-0.5,0-0.9-0.4-0.9-0.9v-18.4l-3,9.2c-0.1,0.4-0.5,0.6-0.8,0.6h-6.4
				c-0.4,0-0.7-0.2-0.8-0.6l-3.1-9.2v18.5c0,0.5-0.4,0.9-0.9,0.9H185c-0.5,0-0.9-0.4-0.9-0.9V236c0-0.5,0.4-0.9,0.9-0.9h6.4
				c0.4,0,0.7,0.2,0.8,0.6l7.1,21.4l7.1-21.4c0.1-0.4,0.5-0.6,0.8-0.6h6.4c0.5,0,0.9,0.4,0.9,0.9v44.6
				C214.6,281.1,214.2,281.5,213.7,281.5z M208.2,279.8h4.6v-42.9H208l-7.8,23.3c-0.1,0.4-0.5,0.6-0.8,0.6c-0.4,0-0.7-0.2-0.8-0.6
				l-7.8-23.3h-4.9v42.9h4.6v-23c0-0.4,0.3-0.8,0.7-0.9c0.4-0.1,0.8,0.2,1,0.6l4.6,13.7h5.1l4.6-13.7c0.1-0.4,0.6-0.7,1-0.6
				c0.4,0.1,0.7,0.4,0.7,0.9V279.8z"/>
		</g>
		<g>
			<path class="st4" d="M229.6,280.7h-6.4V236h6.4V280.7z"/>
			<path class="st1" d="M229.6,281.5h-6.4c-0.5,0-0.9-0.4-0.9-0.9V236c0-0.5,0.4-0.9,0.9-0.9h6.4c0.5,0,0.9,0.4,0.9,0.9v44.6
				C230.4,281.1,230.1,281.5,229.6,281.5z M224.1,279.8h4.6v-42.9h-4.6V279.8z"/>
		</g>
		<g>
			<path class="st4" d="M238.8,236h6.4l6.4,22.3V236h6.4v44.6h-6.4l-6.4-22.3v22.3h-6.4V236z"/>
			<path class="st1" d="M257.9,281.5h-6.4c-0.4,0-0.7-0.3-0.8-0.6l-4.6-16.3v16c0,0.5-0.4,0.9-0.9,0.9h-6.4c-0.5,0-0.9-0.4-0.9-0.9
				V236c0-0.5,0.4-0.9,0.9-0.9h6.4c0.4,0,0.7,0.3,0.8,0.6l4.6,16.3v-16c0-0.5,0.4-0.9,0.9-0.9h6.4c0.5,0,0.9,0.4,0.9,0.9v44.6
				C258.8,281.1,258.4,281.5,257.9,281.5z M252.2,279.8h4.8v-42.9h-4.6v21.4c0,0.4-0.3,0.8-0.8,0.9c-0.4,0.1-0.9-0.2-1-0.6
				l-6.2-21.7h-4.8v42.9h4.6v-21.4c0-0.4,0.3-0.8,0.8-0.9c0.4-0.1,0.9,0.2,1,0.6L252.2,279.8z"/>
		</g>
		<g>
			<path class="st4" d="M269.4,238.8c1.9-1.9,4.1-2.8,6.8-2.8c2.6,0,4.9,0.9,6.8,2.8c1.9,1.9,2.8,4.1,2.8,6.8h-6.4
				c0-0.9-0.3-1.7-0.9-2.3c-0.6-0.6-1.4-0.9-2.3-0.9s-1.6,0.3-2.3,0.9c-0.6,0.6-0.9,1.4-0.9,2.3v25.5c0,0.9,0.3,1.6,0.9,2.3
				c0.6,0.6,1.4,0.9,2.3,0.9s1.6-0.3,2.3-0.9c0.6-0.6,0.9-1.4,0.9-2.3v-9.6h-3.2v-6.4h9.6v15.9c0,2.6-0.9,4.9-2.8,6.8
				c-1.9,1.9-4.1,2.8-6.8,2.8c-2.6,0-4.9-0.9-6.8-2.8c-1.9-1.9-2.8-4.1-2.8-6.8v-25.5C266.6,243,267.5,240.7,269.4,238.8z"/>
			<path class="st1" d="M276.1,281.5c-2.9,0-5.3-1-7.4-3.1c-2-2-3.1-4.5-3.1-7.4v-25.5c0-2.9,1-5.4,3.1-7.4c2-2,4.5-3.1,7.4-3.1
				s5.4,1,7.4,3.1c2,2,3.1,4.5,3.1,7.4c0,0.5-0.4,0.9-0.9,0.9h-6.3c-0.5,0-0.9-0.4-0.9-0.9c0-0.7-0.2-1.2-0.7-1.6
				c-0.5-0.5-1-0.7-1.6-0.7c-0.7,0-1.2,0.2-1.6,0.7c-0.4,0.5-0.7,1-0.7,1.7v25.5c0,0.7,0.2,1.2,0.7,1.6c0.4,0.4,1,0.7,1.6,0.7
				c0.7,0,1.2-0.2,1.7-0.7c0.5-0.4,0.7-1,0.7-1.6v-8.7h-2.3c-0.5,0-0.9-0.4-0.9-0.9v-6.4c0-0.5,0.4-0.9,0.9-0.9h9.6
				c0.5,0,0.9,0.4,0.9,0.9v15.9c0,2.9-1,5.3-3.1,7.4C281.5,280.5,279,281.5,276.1,281.5z M276.1,236.9c-2.4,0-4.4,0.8-6.1,2.6
				c-1.7,1.7-2.5,3.7-2.5,6.1v25.5c0,2.4,0.8,4.4,2.5,6.1c1.7,1.7,3.7,2.5,6.1,2.5c2.4,0,4.4-0.8,6.1-2.5c1.7-1.7,2.5-3.7,2.5-6.1
				V256H277v4.6h2.3c0.5,0,0.9,0.4,0.9,0.9v9.6c0,1.1-0.4,2.1-1.2,2.9c-0.8,0.8-1.8,1.2-2.9,1.2c-1.1,0-2.1-0.4-2.9-1.2
				c-0.8-0.8-1.2-1.7-1.2-2.9v-25.5c0-1.1,0.4-2.1,1.2-2.9c0.8-0.8,1.8-1.2,2.9-1.2c1.1,0,2.1,0.4,2.9,1.2c0.6,0.6,0.9,1.3,1.1,2
				h4.6c-0.2-2-1-3.8-2.5-5.3C280.5,237.7,278.5,236.9,276.1,236.9z"/>
		</g>
		<g>
			<path class="st4" d="M314.7,267.9v3.2c0,0.9,0.3,1.6,0.9,2.3c0.6,0.6,1.4,0.9,2.3,0.9s1.6-0.3,2.3-0.9c0.6-0.6,0.9-1.4,0.9-2.3
				v-6.4c0-0.9-0.3-1.6-0.9-2.3c-0.6-0.6-1.4-0.9-2.3-0.9c-2.9,0-5.3-1.1-7.2-3.2c-1.6-1.8-2.4-4-2.4-6.4v-6.3
				c0-2.6,0.9-4.9,2.8-6.8c1.9-1.9,4.1-2.8,6.8-2.8c2.6,0,4.9,0.9,6.8,2.8c1.9,1.9,2.8,4.1,2.8,6.8v3.2h-0.6h-5.8v-3.2
				c0-0.9-0.3-1.7-0.9-2.3c-0.6-0.6-1.4-0.9-2.3-0.9s-1.6,0.3-2.3,0.9c-0.6,0.6-0.9,1.4-0.9,2.3v6.3c0,0.9,0.3,1.7,0.9,2.3
				c0.6,0.6,1.4,0.9,2.3,0.9c2.8,0,5.2,1.1,7.1,3.2c1.6,1.8,2.4,4,2.4,6.4v6.4c0,2.6-0.9,4.9-2.8,6.8c-1.9,1.9-4.1,2.8-6.8,2.8
				c-2.6,0-4.9-0.9-6.8-2.8c-1.9-1.9-2.8-4.1-2.8-6.8v-3.2H314.7z"/>
			<path class="st1" d="M317.9,281.5c-2.9,0-5.4-1-7.4-3.1c-2-2-3.1-4.5-3.1-7.4v-3.2c0-0.5,0.4-0.9,0.9-0.9h6.4
				c0.5,0,0.9,0.4,0.9,0.9v3.2c0,0.7,0.2,1.2,0.7,1.6c0.5,0.4,1,0.7,1.7,0.7c0.7,0,1.2-0.2,1.6-0.7c0.4-0.4,0.7-1,0.7-1.6v-6.4
				c0-0.7-0.2-1.2-0.7-1.6c-0.4-0.4-1-0.7-1.6-0.7c-3.1,0-5.7-1.2-7.8-3.5c-1.8-2-2.7-4.3-2.7-7v-6.3c0-2.9,1-5.4,3.1-7.4
				c2-2,4.5-3.1,7.4-3.1c2.9,0,5.4,1,7.4,3.1c2,2,3.1,4.5,3.1,7.4v3.2c0,0.5-0.4,0.9-0.9,0.9h-6.4c-0.5,0-0.9-0.4-0.9-0.9v-3.2
				c0-0.7-0.2-1.2-0.7-1.7c-0.4-0.5-1-0.7-1.6-0.7c-0.7,0-1.2,0.2-1.6,0.7c-0.5,0.5-0.7,1-0.7,1.6v6.3c0,0.7,0.2,1.2,0.7,1.6
				c0.5,0.5,1,0.7,1.6,0.7c3.1,0,5.7,1.2,7.8,3.5c1.8,2,2.7,4.3,2.7,7v6.4c0,2.9-1,5.3-3.1,7.4C323.3,280.5,320.8,281.5,317.9,281.5
				z M309.2,268.8v2.3c0,2.4,0.8,4.4,2.6,6.1c1.7,1.7,3.7,2.5,6.1,2.5c2.4,0,4.4-0.8,6.1-2.5c1.7-1.7,2.5-3.7,2.5-6.1v-6.4
				c0-2.2-0.7-4.1-2.2-5.8c-1.7-1.9-3.9-2.9-6.5-2.9c-1.1,0-2.1-0.4-2.9-1.2c-0.8-0.8-1.2-1.8-1.2-2.9v-6.3c0-1.1,0.4-2.1,1.2-2.9
				c0.8-0.8,1.8-1.2,2.9-1.2c1.1,0,2.1,0.4,2.9,1.2c0.8,0.8,1.2,1.8,1.2,2.9v2.3h4.6v-2.3c0-2.4-0.8-4.4-2.5-6.1
				c-1.7-1.7-3.7-2.6-6.1-2.6c-2.4,0-4.4,0.8-6.1,2.6c-1.7,1.7-2.6,3.7-2.6,6.1v6.3c0,2.2,0.7,4.1,2.2,5.8c1.7,1.9,3.9,2.9,6.5,2.9
				c1.1,0,2.1,0.4,2.9,1.2c0.8,0.8,1.2,1.8,1.2,2.9v6.4c0,1.1-0.4,2.1-1.2,2.9c-0.8,0.8-1.8,1.2-2.9,1.2c-1.1,0-2.1-0.4-2.9-1.2
				c-0.8-0.8-1.2-1.8-1.2-2.9v-2.3H309.2z"/>
		</g>
		<g>
			<path class="st4" d="M337.9,238.8c1.9-1.9,4.1-2.8,6.8-2.8c2.6,0,4.9,0.9,6.8,2.8c1.9,1.9,2.8,4.1,2.8,6.8v25.5
				c0,2.6-0.9,4.9-2.8,6.8c-1.9,1.9-4.1,2.8-6.8,2.8c-2.6,0-4.9-0.9-6.8-2.8c-1.9-1.9-2.8-4.1-2.8-6.8v-25.5
				C335.1,243,336.1,240.7,337.9,238.8z M347,243.3c-0.6-0.6-1.4-0.9-2.3-0.9s-1.6,0.3-2.3,0.9c-0.6,0.6-0.9,1.4-0.9,2.3v9v7.5v9
				c0,0.9,0.3,1.6,0.9,2.3c0.6,0.6,1.4,0.9,2.3,0.9s1.7-0.3,2.3-0.9c0.6-0.6,0.9-1.4,0.9-2.3v-9v-7.5v-9
				C347.9,244.7,347.6,244,347,243.3z"/>
			<path class="st1" d="M344.7,281.5c-2.9,0-5.3-1-7.4-3.1c-2-2-3.1-4.5-3.1-7.4v-25.5c0-2.9,1-5.4,3.1-7.4c2-2,4.5-3.1,7.4-3.1
				c2.9,0,5.4,1,7.4,3.1c2,2,3.1,4.5,3.1,7.4v25.5c0,2.9-1,5.3-3.1,7.4C350,280.5,347.5,281.5,344.7,281.5z M344.7,236.9
				c-2.4,0-4.4,0.8-6.1,2.6c-1.7,1.7-2.5,3.7-2.5,6.1v25.5c0,2.4,0.8,4.4,2.5,6.1c1.7,1.7,3.7,2.5,6.1,2.5c2.4,0,4.4-0.8,6.1-2.5
				c1.7-1.7,2.5-3.7,2.5-6.1v-25.5c0-2.4-0.8-4.4-2.5-6.1C349.1,237.7,347.1,236.9,344.7,236.9z M344.7,275.2
				c-1.1,0-2.1-0.4-2.9-1.2c-0.8-0.8-1.2-1.7-1.2-2.9v-25.5c0-1.1,0.4-2.1,1.2-2.9c0.8-0.8,1.8-1.2,2.9-1.2c1.1,0,2.1,0.4,2.9,1.2
				c0.8,0.8,1.2,1.8,1.2,2.9v25.5c0,1.1-0.4,2.1-1.2,2.9C346.8,274.8,345.8,275.2,344.7,275.2z M344.7,243.3c-0.7,0-1.2,0.2-1.6,0.7
				c-0.4,0.5-0.7,1-0.7,1.7v25.5c0,0.7,0.2,1.2,0.7,1.6c0.4,0.4,1,0.7,1.6,0.7c0.7,0,1.2-0.2,1.7-0.7c0.5-0.4,0.7-1,0.7-1.6v-25.5
				c0-0.7-0.2-1.2-0.7-1.6C345.9,243.5,345.3,243.3,344.7,243.3z"/>
		</g>
		<g>
			<path class="st4" d="M365.6,238.8c1.9-1.9,4.1-2.8,6.8-2.8c2.6,0,4.9,0.9,6.8,2.8c1.9,1.9,2.8,4.1,2.8,6.8v25.5
				c0,2.6-0.9,4.9-2.8,6.8c-1.9,1.9-4.1,2.8-6.8,2.8c-2.6,0-4.9-0.9-6.8-2.8c-1.9-1.9-2.8-4.1-2.8-6.8v-25.5
				C362.8,243,363.7,240.7,365.6,238.8z M374.6,243.3c-0.6-0.6-1.4-0.9-2.3-0.9s-1.6,0.3-2.3,0.9c-0.6,0.6-0.9,1.4-0.9,2.3v9v7.5v9
				c0,0.9,0.3,1.6,0.9,2.3c0.6,0.6,1.4,0.9,2.3,0.9s1.6-0.3,2.3-0.9c0.6-0.6,0.9-1.4,0.9-2.3v-9v-7.5v-9
				C375.5,244.7,375.2,244,374.6,243.3z"/>
			<path class="st1" d="M372.3,281.5c-2.9,0-5.3-1-7.4-3.1c-2-2-3.1-4.5-3.1-7.4v-25.5c0-2.9,1-5.4,3.1-7.4c2-2,4.5-3.1,7.4-3.1
				c2.9,0,5.4,1,7.4,3.1c2,2,3.1,4.5,3.1,7.4v25.5c0,2.9-1,5.3-3.1,7.4C377.7,280.5,375.2,281.5,372.3,281.5z M372.3,236.9
				c-2.4,0-4.4,0.8-6.1,2.6c-1.7,1.7-2.5,3.7-2.5,6.1v25.5c0,2.4,0.8,4.4,2.5,6.1c1.7,1.7,3.7,2.5,6.1,2.5c2.4,0,4.4-0.8,6.1-2.5
				c1.7-1.7,2.5-3.7,2.5-6.1v-25.5c0-2.4-0.8-4.4-2.5-6.1C376.8,237.7,374.8,236.9,372.3,236.9z M372.3,275.2
				c-1.1,0-2.1-0.4-2.9-1.2c-0.8-0.8-1.2-1.7-1.2-2.9v-25.5c0-1.1,0.4-2.1,1.2-2.9c0.8-0.8,1.8-1.2,2.9-1.2c1.1,0,2.1,0.4,2.9,1.2
				c0.8,0.8,1.2,1.8,1.2,2.9v25.5c0,1.1-0.4,2.1-1.2,2.9C374.4,274.8,373.5,275.2,372.3,275.2z M372.3,243.3c-0.7,0-1.2,0.2-1.6,0.7
				c-0.4,0.5-0.7,1-0.7,1.7v25.5c0,0.7,0.2,1.2,0.7,1.6c0.4,0.4,1,0.7,1.6,0.7c0.7,0,1.2-0.2,1.7-0.7c0.5-0.4,0.7-1,0.7-1.6v-25.5
				c0-0.7-0.2-1.2-0.7-1.6C373.5,243.5,373,243.3,372.3,243.3z"/>
		</g>
		<g>
			<path class="st4" d="M390.6,236h6.4l6.4,22.3V236h6.4v44.6h-6.4l-6.4-22.3v22.3h-6.4V236z"/>
			<path class="st1" d="M409.7,281.5h-6.4c-0.4,0-0.7-0.3-0.8-0.6l-4.6-16.3v16c0,0.5-0.4,0.9-0.9,0.9h-6.4c-0.5,0-0.9-0.4-0.9-0.9
				V236c0-0.5,0.4-0.9,0.9-0.9h6.4c0.4,0,0.7,0.3,0.8,0.6l4.6,16.3v-16c0-0.5,0.4-0.9,0.9-0.9h6.4c0.5,0,0.9,0.4,0.9,0.9v44.6
				C410.6,281.1,410.2,281.5,409.7,281.5z M404,279.8h4.8v-42.9h-4.6v21.4c0,0.4-0.3,0.8-0.8,0.9c-0.4,0.1-0.9-0.2-1-0.6l-6.2-21.7
				h-4.8v42.9h4.6v-21.4c0-0.4,0.3-0.8,0.8-0.9c0.4-0.1,0.9,0.2,1,0.6L404,279.8z"/>
		</g>
	</g>
	<path class="st1" d="M136.6,281.6c-2.9,0-5.3-1-7.4-3.1c-2-2-3.1-4.5-3.1-7.4v-25.5c0-2.9,1-5.4,3.1-7.4c2-2,4.5-3.1,7.4-3.1
		c2.9,0,5.4,1,7.4,3.1c2,2,3.1,4.5,3.1,7.4v3.2c0,0.5-0.4,0.9-0.9,0.9h-6.3c-0.5,0-0.9-0.4-0.9-0.9v-3.2c0-0.7-0.2-1.2-0.7-1.6
		c-0.5-0.5-1-0.7-1.6-0.7c-0.7,0-1.2,0.2-1.6,0.7c-0.4,0.5-0.7,1-0.7,1.7v25.5c0,0.7,0.2,1.2,0.7,1.6c0.4,0.4,1,0.7,1.6,0.7
		c0.7,0,1.2-0.2,1.7-0.7c0.5-0.4,0.7-1,0.7-1.6V268c0-0.5,0.4-0.9,0.9-0.9h6.3c0.5,0,0.9,0.4,0.9,0.9v3.2c0,2.9-1,5.3-3.1,7.4
		C141.9,280.6,139.5,281.6,136.6,281.6z M136.6,237c-2.4,0-4.4,0.8-6.1,2.6c-1.7,1.7-2.5,3.7-2.5,6.1v25.5c0,2.4,0.8,4.4,2.5,6.1
		c1.7,1.7,3.7,2.5,6.1,2.5c2.4,0,4.4-0.8,6.1-2.5c1.7-1.7,2.5-3.7,2.5-6.1v-2.3h-4.6v2.3c0,1.1-0.4,2.1-1.2,2.9
		c-0.8,0.8-1.8,1.2-2.9,1.2c-1.1,0-2.1-0.4-2.9-1.2c-0.8-0.8-1.2-1.7-1.2-2.9v-25.5c0-1.1,0.4-2.1,1.2-2.9c0.8-0.8,1.8-1.2,2.9-1.2
		c1.1,0,2.1,0.4,2.9,1.2c0.8,0.8,1.2,1.8,1.2,2.9v2.3h4.6v-2.3c0-2.4-0.8-4.4-2.5-6.1C141,237.8,139,237,136.6,237z"/>
	<path class="st1" d="M163.5,281.6c-2.9,0-5.3-1-7.4-3.1c-2-2-3.1-4.5-3.1-7.4v-25.5c0-2.9,1-5.4,3.1-7.4c2-2,4.5-3.1,7.4-3.1
		s5.4,1,7.4,3.1c2,2,3.1,4.5,3.1,7.4v25.5c0,2.9-1,5.3-3.1,7.4C168.8,280.6,166.3,281.6,163.5,281.6z M163.5,237
		c-2.4,0-4.4,0.8-6.1,2.6c-1.7,1.7-2.5,3.7-2.5,6.1v25.5c0,2.4,0.8,4.4,2.5,6.1c1.7,1.7,3.7,2.5,6.1,2.5c2.4,0,4.4-0.8,6.1-2.5
		c1.7-1.7,2.5-3.7,2.5-6.1v-25.5c0-2.4-0.8-4.4-2.5-6.1C167.9,237.8,165.9,237,163.5,237z M163.5,275.2c-1.1,0-2.1-0.4-2.9-1.2
		c-0.8-0.8-1.2-1.7-1.2-2.9v-25.5c0-1.1,0.4-2.1,1.2-2.9c0.8-0.8,1.8-1.2,2.9-1.2c1.1,0,2.1,0.4,2.9,1.2c0.8,0.8,1.2,1.8,1.2,2.9
		v25.5c0,1.1-0.4,2.1-1.2,2.9C165.6,274.9,164.6,275.2,163.5,275.2z M163.5,243.4c-0.7,0-1.2,0.2-1.6,0.7c-0.4,0.5-0.7,1-0.7,1.7
		v25.5c0,0.7,0.2,1.2,0.7,1.6c0.4,0.4,1,0.7,1.6,0.7c0.7,0,1.2-0.2,1.7-0.7c0.5-0.4,0.7-1,0.7-1.6v-25.5c0-0.7-0.2-1.2-0.7-1.6
		C164.7,243.6,164.1,243.4,163.5,243.4z"/>
	<path class="st1" d="M210.6,281.6h-6.4c-0.5,0-0.9-0.4-0.9-0.9v-18.4l-3,9.2c-0.1,0.4-0.5,0.6-0.8,0.6h-6.4c-0.4,0-0.7-0.2-0.8-0.6
		l-3.1-9.2v18.5c0,0.5-0.4,0.9-0.9,0.9h-6.4c-0.5,0-0.9-0.4-0.9-0.9v-44.6c0-0.5,0.4-0.9,0.9-0.9h6.4c0.4,0,0.7,0.2,0.8,0.6
		l7.1,21.4l7.1-21.4c0.1-0.4,0.5-0.6,0.8-0.6h6.4c0.5,0,0.9,0.4,0.9,0.9v44.6C211.5,281.2,211.1,281.6,210.6,281.6z M205.1,279.9
		h4.6V237h-4.9l-7.8,23.3c-0.1,0.4-0.5,0.6-0.8,0.6c-0.4,0-0.7-0.2-0.8-0.6l-7.8-23.3h-4.9v42.9h4.6v-23c0-0.4,0.3-0.8,0.7-0.9
		c0.4-0.1,0.8,0.2,1,0.6l4.6,13.7h5.1l4.6-13.7c0.1-0.4,0.6-0.7,1-0.6c0.4,0.1,0.7,0.4,0.7,0.9V279.9z"/>
	<path class="st1" d="M226.5,281.6h-6.4c-0.5,0-0.9-0.4-0.9-0.9v-44.6c0-0.5,0.4-0.9,0.9-0.9h6.4c0.5,0,0.9,0.4,0.9,0.9v44.6
		C227.4,281.2,227,281.6,226.5,281.6z M221,279.9h4.6V237H221V279.9z"/>
	<path class="st1" d="M254.9,281.6h-6.4c-0.4,0-0.7-0.3-0.8-0.6l-4.6-16.3v16c0,0.5-0.4,0.9-0.9,0.9h-6.4c-0.5,0-0.9-0.4-0.9-0.9
		v-44.6c0-0.5,0.4-0.9,0.9-0.9h6.4c0.4,0,0.7,0.3,0.8,0.6l4.6,16.3v-16c0-0.5,0.4-0.9,0.9-0.9h6.4c0.5,0,0.9,0.4,0.9,0.9v44.6
		C255.8,281.2,255.4,281.6,254.9,281.6z M249.2,279.9h4.8V237h-4.6v21.4c0,0.4-0.3,0.8-0.8,0.9c-0.4,0.1-0.9-0.2-1-0.6l-6.2-21.7
		h-4.8v42.9h4.6v-21.4c0-0.4,0.3-0.8,0.8-0.9c0.4-0.1,0.9,0.2,1,0.6L249.2,279.9z"/>
	<path class="st1" d="M273.1,281.6c-2.9,0-5.3-1-7.4-3.1c-2-2-3.1-4.5-3.1-7.4v-25.5c0-2.9,1-5.4,3.1-7.4c2-2,4.5-3.1,7.4-3.1
		c2.9,0,5.4,1,7.4,3.1c2,2,3.1,4.5,3.1,7.4c0,0.5-0.4,0.9-0.9,0.9h-6.3c-0.5,0-0.9-0.4-0.9-0.9c0-0.7-0.2-1.2-0.7-1.6
		c-0.5-0.5-1-0.7-1.6-0.7c-0.7,0-1.2,0.2-1.6,0.7c-0.4,0.5-0.7,1-0.7,1.7v25.5c0,0.7,0.2,1.2,0.7,1.6c0.4,0.4,1,0.7,1.6,0.7
		c0.7,0,1.2-0.2,1.7-0.7c0.5-0.4,0.7-1,0.7-1.6v-8.7h-2.3c-0.5,0-0.9-0.4-0.9-0.9v-6.4c0-0.5,0.4-0.9,0.9-0.9h9.6
		c0.5,0,0.9,0.4,0.9,0.9v15.9c0,2.9-1,5.3-3.1,7.4C278.4,280.6,275.9,281.6,273.1,281.6z M273.1,237c-2.4,0-4.4,0.8-6.1,2.6
		c-1.7,1.7-2.5,3.7-2.5,6.1v25.5c0,2.4,0.8,4.4,2.5,6.1c1.7,1.7,3.7,2.5,6.1,2.5c2.4,0,4.4-0.8,6.1-2.5c1.7-1.7,2.5-3.7,2.5-6.1
		v-15.1h-7.8v4.6h2.3c0.5,0,0.9,0.4,0.9,0.9v9.6c0,1.1-0.4,2.1-1.2,2.9c-0.8,0.8-1.8,1.2-2.9,1.2c-1.1,0-2.1-0.4-2.9-1.2
		c-0.8-0.8-1.2-1.7-1.2-2.9v-25.5c0-1.1,0.4-2.1,1.2-2.9c0.8-0.8,1.8-1.2,2.9-1.2c1.1,0,2.1,0.4,2.9,1.2c0.6,0.6,0.9,1.3,1.1,2h4.6
		c-0.2-2-1-3.8-2.5-5.3C277.5,237.8,275.5,237,273.1,237z"/>
	<path class="st1" d="M314.9,281.6c-2.9,0-5.4-1-7.4-3.1c-2-2-3.1-4.5-3.1-7.4V268c0-0.5,0.4-0.9,0.9-0.9h6.4c0.5,0,0.9,0.4,0.9,0.9
		v3.2c0,0.7,0.2,1.2,0.7,1.6c0.5,0.4,1,0.7,1.7,0.7c0.7,0,1.2-0.2,1.6-0.7c0.4-0.4,0.7-1,0.7-1.6v-6.4c0-0.7-0.2-1.2-0.7-1.6
		c-0.4-0.4-1-0.7-1.6-0.7c-3.1,0-5.7-1.2-7.8-3.5c-1.8-2-2.7-4.3-2.7-7v-6.3c0-2.9,1-5.4,3.1-7.4c2-2,4.5-3.1,7.4-3.1
		c2.9,0,5.4,1,7.4,3.1c2,2,3.1,4.5,3.1,7.4v3.2c0,0.5-0.4,0.9-0.9,0.9H318c-0.5,0-0.9-0.4-0.9-0.9v-3.2c0-0.7-0.2-1.2-0.7-1.7
		c-0.4-0.5-1-0.7-1.6-0.7c-0.7,0-1.2,0.2-1.6,0.7c-0.5,0.5-0.7,1-0.7,1.6v6.3c0,0.7,0.2,1.2,0.7,1.6c0.5,0.5,1,0.7,1.6,0.7
		c3.1,0,5.7,1.2,7.8,3.5c1.8,2,2.7,4.3,2.7,7v6.4c0,2.9-1,5.3-3.1,7.4C320.2,280.6,317.7,281.6,314.9,281.6z M306.2,268.9v2.3
		c0,2.4,0.8,4.4,2.6,6.1c1.7,1.7,3.7,2.5,6.1,2.5c2.4,0,4.4-0.8,6.1-2.5c1.7-1.7,2.5-3.7,2.5-6.1v-6.4c0-2.2-0.7-4.1-2.2-5.8
		c-1.7-1.9-3.9-2.9-6.5-2.9c-1.1,0-2.1-0.4-2.9-1.2c-0.8-0.8-1.2-1.8-1.2-2.9v-6.3c0-1.1,0.4-2.1,1.2-2.9c0.8-0.8,1.8-1.2,2.9-1.2
		c1.1,0,2.1,0.4,2.9,1.2c0.8,0.8,1.2,1.8,1.2,2.9v2.3h4.6v-2.3c0-2.4-0.8-4.4-2.5-6.1c-1.7-1.7-3.7-2.6-6.1-2.6
		c-2.4,0-4.4,0.8-6.1,2.6c-1.7,1.7-2.6,3.7-2.6,6.1v6.3c0,2.2,0.7,4.1,2.2,5.8c1.7,1.9,3.9,2.9,6.5,2.9c1.1,0,2.1,0.4,2.9,1.2
		c0.8,0.8,1.2,1.8,1.2,2.9v6.4c0,1.1-0.4,2.1-1.2,2.9c-0.8,0.8-1.8,1.2-2.9,1.2c-1.1,0-2.1-0.4-2.9-1.2c-0.8-0.8-1.2-1.8-1.2-2.9
		v-2.3H306.2z"/>
	<path class="st1" d="M341.6,281.6c-2.9,0-5.3-1-7.4-3.1c-2-2-3.1-4.5-3.1-7.4v-25.5c0-2.9,1-5.4,3.1-7.4c2-2,4.5-3.1,7.4-3.1
		c2.9,0,5.4,1,7.4,3.1c2,2,3.1,4.5,3.1,7.4v25.5c0,2.9-1,5.3-3.1,7.4C347,280.6,344.5,281.6,341.6,281.6z M341.6,237
		c-2.4,0-4.4,0.8-6.1,2.6c-1.7,1.7-2.5,3.7-2.5,6.1v25.5c0,2.4,0.8,4.4,2.5,6.1c1.7,1.7,3.7,2.5,6.1,2.5c2.4,0,4.4-0.8,6.1-2.5
		c1.7-1.7,2.5-3.7,2.5-6.1v-25.5c0-2.4-0.8-4.4-2.5-6.1C346,237.8,344,237,341.6,237z M341.6,275.2c-1.1,0-2.1-0.4-2.9-1.2
		c-0.8-0.8-1.2-1.7-1.2-2.9v-25.5c0-1.1,0.4-2.1,1.2-2.9c0.8-0.8,1.8-1.2,2.9-1.2c1.1,0,2.1,0.4,2.9,1.2c0.8,0.8,1.2,1.8,1.2,2.9
		v25.5c0,1.1-0.4,2.1-1.2,2.9C343.7,274.9,342.7,275.2,341.6,275.2z M341.6,243.4c-0.7,0-1.2,0.2-1.6,0.7c-0.4,0.5-0.7,1-0.7,1.7
		v25.5c0,0.7,0.2,1.2,0.7,1.6c0.4,0.4,1,0.7,1.6,0.7c0.7,0,1.2-0.2,1.7-0.7c0.5-0.4,0.7-1,0.7-1.6v-25.5c0-0.7-0.2-1.2-0.7-1.6
		C342.8,243.6,342.3,243.4,341.6,243.4z"/>
	<path class="st1" d="M369.3,281.6c-2.9,0-5.3-1-7.4-3.1c-2-2-3.1-4.5-3.1-7.4v-25.5c0-2.9,1-5.4,3.1-7.4c2-2,4.5-3.1,7.4-3.1
		c2.9,0,5.4,1,7.4,3.1c2,2,3.1,4.5,3.1,7.4v25.5c0,2.9-1,5.3-3.1,7.4C374.6,280.6,372.1,281.6,369.3,281.6z M369.3,237
		c-2.4,0-4.4,0.8-6.1,2.6c-1.7,1.7-2.5,3.7-2.5,6.1v25.5c0,2.4,0.8,4.4,2.5,6.1c1.7,1.7,3.7,2.5,6.1,2.5c2.4,0,4.4-0.8,6.1-2.5
		c1.7-1.7,2.5-3.7,2.5-6.1v-25.5c0-2.4-0.8-4.4-2.5-6.1C373.7,237.8,371.7,237,369.3,237z M369.3,275.2c-1.1,0-2.1-0.4-2.9-1.2
		c-0.8-0.8-1.2-1.7-1.2-2.9v-25.5c0-1.1,0.4-2.1,1.2-2.9c0.8-0.8,1.8-1.2,2.9-1.2c1.1,0,2.1,0.4,2.9,1.2c0.8,0.8,1.2,1.8,1.2,2.9
		v25.5c0,1.1-0.4,2.1-1.2,2.9C371.4,274.9,370.4,275.2,369.3,275.2z M369.3,243.4c-0.7,0-1.2,0.2-1.6,0.7c-0.4,0.5-0.7,1-0.7,1.7
		v25.5c0,0.7,0.2,1.2,0.7,1.6c0.4,0.4,1,0.7,1.6,0.7c0.7,0,1.2-0.2,1.7-0.7c0.5-0.4,0.7-1,0.7-1.6v-25.5c0-0.7-0.2-1.2-0.7-1.6
		C370.5,243.6,369.9,243.4,369.3,243.4z"/>
	<path class="st1" d="M406.6,281.6h-6.4c-0.4,0-0.7-0.3-0.8-0.6l-4.6-16.3v16c0,0.5-0.4,0.9-0.9,0.9h-6.4c-0.5,0-0.9-0.4-0.9-0.9
		v-44.6c0-0.5,0.4-0.9,0.9-0.9h6.4c0.4,0,0.7,0.3,0.8,0.6l4.6,16.3v-16c0-0.5,0.4-0.9,0.9-0.9h6.4c0.5,0,0.9,0.4,0.9,0.9v44.6
		C407.5,281.2,407.1,281.6,406.6,281.6z M400.9,279.9h4.8V237h-4.6v21.4c0,0.4-0.3,0.8-0.8,0.9c-0.4,0.1-0.9-0.2-1-0.6l-6.2-21.7
		h-4.8v42.9h4.6v-21.4c0-0.4,0.3-0.8,0.8-0.9c0.4-0.1,0.9,0.2,1,0.6L400.9,279.9z"/>
	<g>
		<path class="st1" d="M190.9,297.1h-59.3c-0.5,0-0.9-0.4-0.9-0.9c0-0.5,0.4-0.9,0.9-0.9h59.3c0.5,0,0.9,0.4,0.9,0.9
			C191.8,296.7,191.4,297.1,190.9,297.1z"/>
	</g>
	<g>
		<path class="st1" d="M256.4,308.2H131.6c-0.5,0-0.9-0.4-0.9-0.9c0-0.5,0.4-0.9,0.9-0.9h124.8c0.5,0,0.9,0.4,0.9,0.9
			C257.3,307.8,256.9,308.2,256.4,308.2z"/>
	</g>
	<g>
		<path class="st1" d="M212,297.1h-14.2c-0.5,0-0.9-0.4-0.9-0.9c0-0.5,0.4-0.9,0.9-0.9H212c0.5,0,0.9,0.4,0.9,0.9
			C212.9,296.7,212.5,297.1,212,297.1z"/>
	</g>
	<g>
		<path class="st1" d="M408.8,288.8h-14.2c-0.5,0-0.9-0.4-0.9-0.9c0-0.5,0.4-0.9,0.9-0.9h14.2c0.5,0,0.9,0.4,0.9,0.9
			C409.7,288.4,409.3,288.8,408.8,288.8z"/>
	</g>
	<g>
		<path class="st1" d="M408.8,294.3h-7.1c-0.5,0-0.9-0.4-0.9-0.9c0-0.5,0.4-0.9,0.9-0.9h7.1c0.5,0,0.9,0.4,0.9,0.9
			C409.7,293.9,409.3,294.3,408.8,294.3z"/>
	</g>
	<g>
		<path class="st1" d="M222.4,297.1h-5c-0.5,0-0.9-0.4-0.9-0.9c0-0.5,0.4-0.9,0.9-0.9h5c0.5,0,0.9,0.4,0.9,0.9
			C223.3,296.7,222.9,297.1,222.4,297.1z"/>
	</g>
	<g>
		<path class="st1" d="M494.8,246.1h-23.7c-1,0-1.8-0.8-1.8-1.8V78.5c0-1,0.8-1.8,1.8-1.8h23.7c1,0,1.8,0.8,1.8,1.8v165.8
			C496.6,245.3,495.8,246.1,494.8,246.1z M472.9,242.5H493V80.2h-20.2V242.5z"/>
	</g>
	<g>
		<g>
			<path class="st1" d="M494.8,151.5h-23.6c-0.7,0-1.4-0.4-1.6-1.1c-0.3-0.7-0.1-1.4,0.4-1.9l11.8-11.8c0.7-0.7,1.8-0.7,2.5,0
				l11.8,11.8c0.5,0.5,0.7,1.3,0.4,1.9C496.1,151.1,495.5,151.5,494.8,151.5z M475.4,148h15.1l-7.6-7.6L475.4,148z"/>
		</g>
		<g>
			<path class="st1" d="M482.9,139.7c-0.5,0-0.9-0.2-1.2-0.5l-11.8-11.8c-0.5-0.5-0.7-1.3-0.4-1.9c0.3-0.7,0.9-1.1,1.6-1.1h23.6
				c0.7,0,1.4,0.4,1.6,1.1c0.3,0.7,0.1,1.4-0.4,1.9l-11.8,11.8C483.8,139.5,483.4,139.7,482.9,139.7z M475.4,127.9l7.6,7.5l7.5-7.5
				H475.4z"/>
		</g>
	</g>
	<g>
		<g>
			<path class="st1" d="M494.8,175.2h-23.6c-0.7,0-1.4-0.4-1.6-1.1c-0.3-0.7-0.1-1.4,0.4-1.9l11.8-11.8c0.7-0.7,1.8-0.7,2.5,0
				l11.8,11.8c0.5,0.5,0.7,1.3,0.4,1.9C496.1,174.7,495.5,175.2,494.8,175.2z M475.4,171.6h15.1l-7.5-7.5L475.4,171.6z"/>
		</g>
		<g>
			<path class="st1" d="M482.9,163.3c-0.5,0-0.9-0.2-1.2-0.5L469.9,151c-0.5-0.5-0.7-1.3-0.4-1.9c0.3-0.7,0.9-1.1,1.6-1.1h23.6
				c0.7,0,1.4,0.4,1.6,1.1c0.3,0.7,0.1,1.4-0.4,1.9l-11.8,11.8C483.9,163.2,483.4,163.3,482.9,163.3z M475.4,151.5l7.6,7.6l7.6-7.6
				H475.4z"/>
		</g>
	</g>
	<g>
		<g>
			<path class="st1" d="M494.8,198.8h-23.6c-0.7,0-1.4-0.4-1.6-1.1c-0.3-0.7-0.1-1.4,0.4-1.9l11.8-11.8c0.7-0.7,1.8-0.7,2.5,0
				l11.8,11.8c0.5,0.5,0.7,1.3,0.4,1.9C496.1,198.4,495.5,198.8,494.8,198.8z M475.4,195.3h15.1l-7.5-7.5L475.4,195.3z"/>
		</g>
		<g>
			<path class="st1" d="M482.9,187c-0.5,0-0.9-0.2-1.2-0.5l-11.8-11.8c-0.5-0.5-0.7-1.3-0.4-1.9c0.3-0.7,0.9-1.1,1.6-1.1h23.6
				c0.7,0,1.4,0.4,1.6,1.1c0.3,0.7,0.1,1.4-0.4,1.9l-11.8,11.8C483.9,186.8,483.4,187,482.9,187z M475.4,175.2l7.6,7.6l7.6-7.6
				H475.4z"/>
		</g>
	</g>
	<g>
		<g>
			<path class="st1" d="M494.8,222.4h-23.6c-0.7,0-1.4-0.4-1.6-1.1c-0.3-0.7-0.1-1.4,0.4-1.9l11.8-11.8c0.7-0.7,1.8-0.7,2.5,0
				l11.8,11.8c0.5,0.5,0.7,1.3,0.4,1.9C496.1,222,495.5,222.4,494.8,222.4z M475.4,218.9h15.1l-7.5-7.5L475.4,218.9z"/>
		</g>
		<g>
			<path class="st1" d="M482.9,210.6c-0.5,0-0.9-0.2-1.2-0.5l-11.8-11.8c-0.5-0.5-0.7-1.3-0.4-1.9c0.3-0.7,0.9-1.1,1.6-1.1h23.6
				c0.7,0,1.4,0.4,1.6,1.1c0.3,0.7,0.1,1.4-0.4,1.9l-11.8,11.8C483.9,210.4,483.4,210.6,482.9,210.6z M475.4,198.8l7.6,7.6l7.6-7.6
				H475.4z"/>
		</g>
	</g>
	<g>
		<g>
			<path class="st1" d="M494.8,246.1h-23.6c-0.7,0-1.4-0.4-1.6-1.1c-0.3-0.7-0.1-1.4,0.4-1.9l11.8-11.8c0.7-0.7,1.8-0.7,2.5,0
				L496,243c0.5,0.5,0.7,1.3,0.4,1.9C496.1,245.6,495.5,246.1,494.8,246.1z M475.4,242.5h15.1l-7.5-7.5L475.4,242.5z"/>
		</g>
		<g>
			<path class="st1" d="M482.9,234.2c-0.5,0-0.9-0.2-1.2-0.5l-11.8-11.8c-0.5-0.5-0.7-1.3-0.4-1.9c0.3-0.7,0.9-1.1,1.6-1.1h23.6
				c0.7,0,1.4,0.4,1.6,1.1c0.3,0.7,0.1,1.4-0.4,1.9l-11.8,11.8C483.9,234.1,483.4,234.2,482.9,234.2z M475.4,222.4l7.6,7.6l7.6-7.6
				H475.4z"/>
		</g>
	</g>
	<g>
		<g>
			<path class="st1" d="M494.8,127.9h-23.6c-0.7,0-1.4-0.4-1.6-1.1c-0.3-0.7-0.1-1.4,0.4-1.9l11.8-11.8c0.7-0.7,1.8-0.7,2.5,0
				l11.8,11.8c0.5,0.5,0.7,1.3,0.4,1.9C496.1,127.5,495.5,127.9,494.8,127.9z M475.4,124.4h15.1l-7.6-7.6L475.4,124.4z"/>
		</g>
		<g>
			<path class="st1" d="M482.9,116.1c-0.5,0-0.9-0.2-1.2-0.5l-11.8-11.8c-0.5-0.5-0.7-1.3-0.4-1.9c0.3-0.7,0.9-1.1,1.6-1.1h23.6
				c0.7,0,1.4,0.4,1.6,1.1c0.3,0.7,0.1,1.4-0.4,1.9l-11.8,11.8C483.8,115.9,483.4,116.1,482.9,116.1z M475.4,104.3l7.6,7.5l7.5-7.5
				H475.4z"/>
		</g>
	</g>
	<g>
		<g>
			<path class="st1" d="M494.8,103.9h-23.6c-0.7,0-1.4-0.4-1.6-1.1c-0.3-0.7-0.1-1.4,0.4-1.9L481.7,89c0.7-0.7,1.8-0.7,2.5,0
				l11.8,11.8c0.5,0.5,0.7,1.3,0.4,1.9C496.1,103.4,495.5,103.9,494.8,103.9z M475.4,100.3h15.1l-7.5-7.5L475.4,100.3z"/>
		</g>
		<g>
			<path class="st1" d="M482.9,92c-0.5,0-0.9-0.2-1.2-0.5l-11.8-11.8c-0.5-0.5-0.7-1.3-0.4-1.9c0.3-0.7,0.9-1.1,1.6-1.1h23.6
				c0.7,0,1.4,0.4,1.6,1.1c0.3,0.7,0.1,1.4-0.4,1.9l-11.8,11.8C483.9,91.9,483.4,92,482.9,92z M475.4,80.2l7.6,7.6l7.6-7.6H475.4z"
				/>
		</g>
	</g>
	<g>
		<g>
			<path class="st1" d="M494.8,56.5h-23.6c-0.7,0-1.4-0.4-1.6-1.1c-0.3-0.7-0.1-1.4,0.4-1.9l11.8-11.8c0.7-0.7,1.8-0.7,2.5,0
				L496,53.5c0.5,0.5,0.7,1.3,0.4,1.9C496.1,56.1,495.5,56.5,494.8,56.5z M475.4,53h15.1l-7.6-7.6L475.4,53z"/>
		</g>
		<g>
			<path class="st1" d="M482.9,44.7c-0.5,0-0.9-0.2-1.2-0.5l-11.8-11.8c-0.5-0.5-0.7-1.3-0.4-1.9c0.3-0.7,0.9-1.1,1.6-1.1h23.6
				c0.7,0,1.4,0.4,1.6,1.1c0.3,0.7,0.1,1.4-0.4,1.9l-11.8,11.8C483.8,44.5,483.4,44.7,482.9,44.7z M475.4,32.9l7.6,7.5l7.5-7.5
				H475.4z"/>
		</g>
	</g>
	<g>
		<g>
			<path class="st1" d="M494.8,80.1h-23.6c-0.7,0-1.4-0.4-1.6-1.1c-0.3-0.7-0.1-1.4,0.4-1.9l11.8-11.8c0.7-0.7,1.8-0.7,2.5,0
				L496,77.1c0.5,0.5,0.7,1.3,0.4,1.9C496.1,79.7,495.5,80.1,494.8,80.1z M475.4,76.6h15.1l-7.6-7.6L475.4,76.6z"/>
		</g>
		<g>
			<path class="st1" d="M482.9,68.3c-0.5,0-0.9-0.2-1.2-0.5L469.9,56c-0.5-0.5-0.7-1.3-0.4-1.9c0.3-0.7,0.9-1.1,1.6-1.1h23.6
				c0.7,0,1.4,0.4,1.6,1.1c0.3,0.7,0.1,1.4-0.4,1.9l-11.8,11.8C483.8,68.1,483.4,68.3,482.9,68.3z M475.4,56.5l7.6,7.5l7.5-7.5
				H475.4z"/>
		</g>
	</g>
	<g>
		<path class="st1" d="M512.7,364.7h-59.6c-1,0-1.8-0.8-1.8-1.8V318c0-0.1,0-0.3,0.1-0.4l18-73.7c0.2-0.8,0.9-1.3,1.7-1.3h23.6
			c0.8,0,1.5,0.6,1.7,1.3l18,73.7c0,0.1,0.1,0.3,0.1,0.4v44.9C514.5,363.9,513.7,364.7,512.7,364.7z M454.9,361.1h56v-42.9
			l-17.6-72.2h-20.9l-17.6,72.2V361.1z"/>
	</g>
	<g>
		<path class="st1" d="M494.8,364.7c-1,0-1.8-0.8-1.8-1.8V244.3c0-1,0.8-1.8,1.8-1.8s1.8,0.8,1.8,1.8v118.6
			C496.5,363.9,495.7,364.7,494.8,364.7z"/>
	</g>
	<g>
		<path class="st1" d="M471.1,364.7c-1,0-1.8-0.8-1.8-1.8V244.3c0-1,0.8-1.8,1.8-1.8s1.8,0.8,1.8,1.8v118.6
			C472.9,363.9,472.1,364.7,471.1,364.7z"/>
	</g>
	<g>
		<path class="st1" d="M512.7,364.7C512.7,364.7,512.7,364.7,512.7,364.7h-59.6c-0.8,0-1.4-0.5-1.7-1.2c-0.2-0.7,0-1.5,0.6-2
			l27.9-21l-27.9-21c-0.6-0.5-0.9-1.3-0.6-2c0.2-0.7,0.9-1.2,1.7-1.2h59.6c0.8,0,1.4,0.5,1.7,1.2c0.2,0.7,0,1.5-0.6,2l-27.9,21
			l27.8,20.9c0.5,0.3,0.9,0.9,0.9,1.5C514.5,363.9,513.7,364.7,512.7,364.7z M458.4,361.1h49l-24.5-18.4L458.4,361.1z M458.4,319.8
			l24.5,18.4l24.5-18.4H458.4z"/>
	</g>
	<path class="st6" d="M84.3,112.2c3.5,0.1,6.4-2.6,6.5-6.1c0.1-3.5-2.6-6.4-6.1-6.5c-3.5-0.1-6.4,2.6-6.5,6.1
		C78.2,109.2,80.9,112.1,84.3,112.2z M84.7,102.8c1.7,0.1,3,1.5,3,3.2c-0.1,1.7-1.5,3-3.2,3c-1.7-0.1-3-1.5-3-3.2
		C81.6,104.1,83,102.8,84.7,102.8z"/>
	<path class="st1" d="M84.6,113.1L84.6,113.1c-0.1,0-0.2,0-0.3,0c-1.9-0.1-3.7-0.9-5-2.3c-1.3-1.4-2-3.2-1.9-5.1
		c0.1-4,3.4-7.1,7.4-6.9c1.9,0.1,3.7,0.9,5,2.3c1.3,1.4,2,3.2,1.9,5.1C91.6,110,88.4,113.1,84.6,113.1z M84.6,100.5
		c-2.9,0-5.3,2.3-5.4,5.2c-0.1,1.4,0.5,2.8,1.4,3.9c1,1.1,2.3,1.7,3.8,1.7l0.2,0c2.9,0,5.3-2.3,5.4-5.2c0.1-1.4-0.5-2.8-1.4-3.9
		c-1-1.1-2.3-1.7-3.8-1.7L84.6,100.5z M84.6,109.9l-0.1,0c-2.2-0.1-3.9-1.9-3.8-4.1c0.1-2.1,1.8-3.8,4-3.8l0.1,0
		c2.2,0.1,3.9,1.9,3.8,4.1C88.4,108.2,86.7,109.9,84.6,109.9z M84.6,103.7c-1.2,0-2.1,0.9-2.2,2.1c0,1.2,0.9,2.2,2.1,2.3
		c0,0,0,0,0,0c1.3,0,2.2-0.9,2.3-2.1C86.8,104.8,85.8,103.8,84.6,103.7L84.6,103.7z"/>
	<path class="st6" d="M66.5,108l4.9,0.2c0.3,1.6,0.9,3.1,1.6,4.4l-3.6,3.3c-0.8,0.7-0.8,2-0.1,2.8l1.2,1.3c0.7,0.8,2,0.8,2.8,0.1
		l3.6-3.3l0,0c1.3,0.9,2.7,1.6,4.3,2l-0.2,4.9c0,1.1,0.8,2,1.9,2l1.8,0.1c1.1,0,2-0.8,2-1.9L87,119c1.6-0.3,3.1-0.9,4.4-1.6l0,0
		l3.3,3.6c0.7,0.8,2,0.8,2.8,0.1l1.3-1.2c0.8-0.7,0.8-2,0.1-2.8l-3.3-3.6c0.9-1.3,1.6-2.7,2-4.3l4.9,0.2c1.1,0,2-0.8,2-1.9l0.1-1.8
		c0-1.1-0.8-2-1.9-2l-4.9-0.2c-0.3-1.6-0.9-3.1-1.6-4.4l3.6-3.3c0.8-0.7,0.8-2,0.1-2.8l-1.2-1.3c-0.7-0.8-2-0.8-2.8-0.1l-3.6,3.3
		c-1.3-0.9-2.7-1.6-4.3-2l0.2-4.9c0-1.1-0.8-2-1.9-2l-1.8-0.1c-1.1,0-2,0.8-2,1.9l-0.2,4.9c-1.6,0.3-3.1,0.9-4.4,1.6l-3.3-3.6
		c-0.7-0.8-2-0.8-2.8-0.1l-1.3,1.2c-0.8,0.7-0.8,2-0.1,2.8l3.3,3.6c-0.9,1.3-1.6,2.7-2,4.3l-4.9-0.2c-1.1,0-2,0.8-2,1.9l-0.1,1.8
		C64.5,107.1,65.4,108,66.5,108z M84.9,97c4.9,0.2,8.7,4.3,8.5,9.1c-0.2,4.9-4.3,8.7-9.1,8.5c-4.9-0.2-8.7-4.3-8.5-9.1
		C75.9,100.6,80,96.8,84.9,97z"/>
	<path class="st1" d="M84.9,126.7c0,0-0.1,0-0.1,0l-1.8-0.1c-1.6-0.1-2.8-1.4-2.7-2.9l0.1-4.2c-1.1-0.4-2.2-0.9-3.3-1.5l-3.1,2.9
		c-0.5,0.5-1.2,0.8-1.9,0.8c0,0,0,0,0,0c-0.8,0-1.5-0.3-2.1-0.9l-1.2-1.3c-1.1-1.1-1-3,0.1-4l3.1-2.9c-0.6-1.1-1-2.2-1.3-3.4
		l-4.2-0.1c-0.8,0-1.5-0.3-2-0.9c-0.5-0.6-0.8-1.3-0.8-2l0.1-1.8c0.1-1.5,1.3-2.7,2.8-2.7c0,0,0.1,0,0.1,0l4.2,0.1
		c0.4-1.1,0.9-2.2,1.5-3.3l-2.9-3.1c-0.5-0.6-0.8-1.3-0.8-2c0-0.8,0.3-1.5,0.9-2l1.3-1.2c1.1-1,3-1,4,0.1l2.9,3.1
		c1.1-0.6,2.2-1,3.4-1.3l0.1-4.2c0.1-1.5,1.3-2.7,2.8-2.7c0,0,0.1,0,0.1,0l1.8,0.1c0.8,0,1.5,0.3,2,0.9c0.5,0.6,0.8,1.3,0.8,2
		l-0.1,4.2c1.1,0.4,2.2,0.9,3.3,1.5l3.1-2.9c1.1-1,3-1,4,0.1l1.2,1.3c1.1,1.1,1,3-0.1,4l-3.1,2.9c0.6,1.1,1,2.2,1.3,3.4l4.2,0.1
		c1.6,0.1,2.8,1.4,2.7,2.9l-0.1,1.8c-0.1,1.5-1.3,2.7-2.8,2.7c0,0-0.1,0-0.1,0l-4.2-0.1c-0.4,1.2-0.9,2.2-1.5,3.3l2.9,3.1
		c0.5,0.6,0.8,1.3,0.8,2c0,0.8-0.3,1.5-0.9,2l-1.3,1.2c-1.1,1-3,1-4-0.1l-2.9-3.1c-1.1,0.6-2.2,1-3.4,1.3l-0.1,4.2
		C87.6,125.5,86.4,126.7,84.9,126.7z M77,115.9c0.2,0,0.4,0.1,0.5,0.2c1.2,0.8,2.6,1.5,4,1.8c0.4,0.1,0.7,0.5,0.7,0.9l-0.2,4.9
		c0,0.6,0.4,1.1,1,1.1l1.8,0.1l0,0.9v-0.9c0.6,0,1.1-0.5,1.1-1l0.2-4.9c0-0.4,0.3-0.8,0.7-0.8c1.5-0.3,2.8-0.8,4.1-1.5
		c0.4-0.2,0.8-0.1,1.1,0.2l3.3,3.6c0.4,0.4,1.1,0.4,1.5,0.1l1.3-1.2c0.2-0.2,0.3-0.5,0.3-0.8c0-0.3-0.1-0.6-0.3-0.8L95,114
		c-0.3-0.3-0.3-0.8-0.1-1.1c0.8-1.2,1.5-2.6,1.8-4c0.1-0.4,0.5-0.7,0.9-0.7l4.9,0.2c0,0,0,0,0,0c0.6,0,1.1-0.5,1.1-1l0.1-1.8
		c0-0.6-0.4-1.1-1-1.1l-4.9-0.2c-0.4,0-0.8-0.3-0.8-0.7c-0.3-1.5-0.8-2.8-1.5-4.1c-0.2-0.4-0.1-0.8,0.2-1.1l3.6-3.3
		c0.4-0.4,0.5-1.1,0.1-1.5l-1.2-1.3c-0.4-0.4-1.1-0.4-1.5-0.1l-3.6,3.3c-0.3,0.3-0.8,0.3-1.1,0.1c-1.2-0.8-2.6-1.5-4-1.8
		c-0.4-0.1-0.7-0.5-0.7-0.9l0.2-4.9c0-0.3-0.1-0.6-0.3-0.8c-0.2-0.2-0.5-0.3-0.8-0.3l-1.8-0.1c0,0,0,0,0,0c-0.6,0-1.1,0.5-1.1,1
		L83,92.6c0,0.4-0.3,0.8-0.7,0.8c-1.5,0.3-2.8,0.8-4.1,1.5c-0.4,0.2-0.8,0.1-1.1-0.2l-3.3-3.6c-0.4-0.4-1.1-0.4-1.5-0.1l-1.3,1.2
		c-0.2,0.2-0.3,0.5-0.3,0.8c0,0.3,0.1,0.6,0.3,0.8l3.3,3.6c0.3,0.3,0.3,0.8,0.1,1.1c-0.8,1.2-1.5,2.6-1.8,4
		c-0.1,0.4-0.5,0.7-0.9,0.7l-4.9-0.2c0,0,0,0,0,0c-0.6,0-1.1,0.5-1.1,1l-0.1,1.8c0,0.3,0.1,0.6,0.3,0.8c0.2,0.2,0.5,0.3,0.8,0.3
		l4.9,0.2c0.4,0,0.8,0.3,0.8,0.7c0.3,1.5,0.8,2.8,1.5,4.1c0.2,0.4,0.1,0.8-0.2,1.1l-3.6,3.3c-0.4,0.4-0.5,1.1-0.1,1.5l1.2,1.3
		c0.2,0.2,0.5,0.3,0.8,0.3c0,0,0,0,0,0c0.3,0,0.5-0.1,0.7-0.3l3.6-3.3C76.5,116,76.7,115.9,77,115.9z M84.6,115.5
		c-0.1,0-0.2,0-0.3,0c-2.6-0.1-5-1.2-6.8-3.1c-1.8-1.9-2.7-4.4-2.6-7c0.2-5.4,4.6-9.6,10.1-9.4c5.4,0.2,9.6,4.7,9.4,10.1
		C94.1,111.4,89.8,115.5,84.6,115.5z M84.6,97.8c-4.3,0-7.8,3.4-7.9,7.7c-0.1,2.1,0.7,4.1,2.1,5.7c1.4,1.6,3.4,2.5,5.5,2.5
		c4.4,0.2,8.1-3.3,8.2-7.7c0.2-4.4-3.3-8.1-7.7-8.2C84.7,97.8,84.7,97.8,84.6,97.8z"/>
	<g>
		<g>
			<path class="st6" d="M103,122.4l2.6-0.1c0.2,0.8,0.6,1.6,1,2.2l-1.7,1.9c-0.4,0.4-0.4,1.1,0.1,1.5l0.7,0.6
				c0.4,0.4,1.1,0.4,1.5-0.1l1.7-1.9l0,0c0.7,0.4,1.5,0.7,2.3,0.8l0.1,2.6c0,0.6,0.5,1,1.1,1l1,0c0.6,0,1-0.5,1-1.1l-0.1-2.6
				c0.8-0.2,1.6-0.6,2.2-1l0,0l1.9,1.7c0.4,0.4,1.1,0.4,1.5-0.1l0.6-0.7c0.4-0.4,0.4-1.1-0.1-1.5l-1.9-1.7c0.4-0.7,0.7-1.5,0.8-2.3
				l2.6-0.1c0.6,0,1-0.5,1-1.1l0-1c0-0.6-0.5-1-1.1-1l-2.6,0.1c-0.2-0.8-0.6-1.6-1-2.2l1.7-1.9c0.4-0.4,0.4-1.1-0.1-1.5l-0.7-0.6
				c-0.4-0.4-1.1-0.4-1.5,0.1l-1.7,1.9c-0.7-0.4-1.5-0.7-2.3-0.8l-0.1-2.6c0-0.6-0.5-1-1.1-1l-1,0c-0.6,0-1,0.5-1,1.1l0.1,2.6
				c-0.8,0.2-1.6,0.6-2.2,1l-1.9-1.7c-0.4-0.4-1.1-0.4-1.5,0.1l-0.6,0.7c-0.4,0.4-0.4,1.1,0.1,1.5l1.9,1.7c-0.4,0.7-0.7,1.5-0.8,2.3
				l-2.6,0.1c-0.6,0-1,0.5-1,1.1l0,1C102,122,102.5,122.4,103,122.4z M112.2,115.9c2.6-0.1,4.7,1.9,4.8,4.4c0.1,2.6-1.9,4.7-4.4,4.8
				c-2.6,0.1-4.7-1.9-4.8-4.4C107.6,118.2,109.6,116,112.2,115.9z"/>
		</g>
	</g>
	<g>
		<path class="st1" d="M112.3,131.9c-1,0-1.9-0.8-1.9-1.8l-0.1-1.9c-0.4-0.1-0.9-0.3-1.3-0.5l-1.3,1.4c-0.7,0.7-2,0.8-2.7,0.1
			l-0.7-0.6c-0.4-0.3-0.6-0.8-0.6-1.3c0-0.5,0.2-1,0.5-1.4l1.3-1.4c-0.2-0.4-0.4-0.8-0.6-1.2l-1.9,0.1c0,0,0,0,0,0
			c-1.1,0-1.9-0.8-2-1.8l0-1c0-0.5,0.2-1,0.5-1.4c0.3-0.4,0.8-0.6,1.3-0.6l1.9-0.1c0.1-0.4,0.3-0.9,0.5-1.3l-1.4-1.3
			c-0.8-0.7-0.8-1.9-0.1-2.7l0.6-0.7c0.7-0.7,2-0.8,2.7-0.1l1.4,1.3c0.4-0.2,0.8-0.4,1.2-0.6l-0.1-1.9c0-1.1,0.8-1.9,1.8-2l1,0
			c0,0,0,0,0,0c1.1,0,1.9,0.8,2,1.8l0.1,1.9c0.4,0.1,0.9,0.3,1.3,0.5l1.3-1.4c0.7-0.7,2-0.8,2.7-0.1l0.7,0.6
			c0.4,0.3,0.6,0.8,0.6,1.3c0,0.5-0.2,1-0.5,1.4l-1.3,1.4c0.2,0.4,0.4,0.8,0.6,1.2l1.9-0.1c0,0,0,0,0,0c1.1,0,1.9,0.8,2,1.8l0,1
			c0,1.1-0.8,1.9-1.8,2l-1.9,0.1c-0.1,0.4-0.3,0.9-0.5,1.3l1.4,1.3c0.8,0.7,0.8,1.9,0.1,2.7l-0.6,0.7c-0.7,0.7-2,0.8-2.7,0.1
			l-1.4-1.3c-0.4,0.2-0.8,0.4-1.2,0.6l0.1,1.9c0,0.5-0.2,1-0.5,1.4c-0.3,0.4-0.8,0.6-1.3,0.6L112.3,131.9
			C112.4,131.9,112.3,131.9,112.3,131.9z M108.9,125.7c0.2,0,0.3,0,0.4,0.1c0.6,0.4,1.3,0.6,2,0.7c0.4,0.1,0.7,0.4,0.7,0.8l0.1,2.6
			c0,0.1,0.1,0.1,0.1,0.1v0.9l0-0.9l1,0c0.1,0,0.1-0.1,0.1-0.2l-0.1-2.6c0-0.4,0.3-0.8,0.7-0.9c0.7-0.2,1.4-0.5,1.9-0.9
			c0.3-0.2,0.8-0.2,1.1,0.1l1.9,1.7c0,0,0.1,0.1,0.2,0l0.6-0.7c0.1-0.1,0.1-0.2,0-0.2l-1.9-1.7c-0.3-0.3-0.4-0.7-0.2-1.1
			c0.4-0.6,0.6-1.3,0.7-2c0.1-0.4,0.4-0.7,0.8-0.7l2.6-0.1c0.1,0,0.1-0.1,0.1-0.2l0-1c0-0.1-0.1-0.1-0.1-0.1l-2.6,0.1
			c-0.4,0-0.8-0.3-0.9-0.7c-0.2-0.7-0.5-1.4-0.9-1.9c-0.2-0.3-0.2-0.8,0.1-1.1l1.7-1.9c0-0.1,0-0.2,0-0.2l-0.7-0.6
			c0,0-0.1-0.1-0.2,0l-1.7,1.9c-0.3,0.3-0.7,0.4-1.1,0.2c-0.6-0.4-1.3-0.6-2-0.7c-0.4-0.1-0.7-0.4-0.7-0.8l-0.1-2.6
			c0-0.1-0.1-0.1-0.1-0.1l-1,0c-0.1,0-0.1,0.1-0.1,0.2l0.1,2.6c0,0.4-0.3,0.8-0.7,0.9c-0.7,0.2-1.4,0.5-1.9,0.9
			c-0.3,0.2-0.8,0.2-1.1-0.1l-1.9-1.7c0,0-0.1-0.1-0.2,0l-0.6,0.7c-0.1,0.1,0,0.2,0,0.2l1.9,1.7c0.3,0.3,0.4,0.7,0.2,1.1
			c-0.4,0.6-0.6,1.3-0.7,2c-0.1,0.4-0.4,0.7-0.8,0.7l-2.6,0.1c-0.1,0-0.1,0.1-0.1,0.2l0,1c0,0.1,0.1,0.1,0.1,0.1l2.6-0.1
			c0.4,0,0.8,0.3,0.9,0.7c0.2,0.7,0.5,1.4,0.9,1.9c0.2,0.3,0.2,0.8-0.1,1.1l-1.7,1.9c0,0.1,0,0.2,0,0.2l0.7,0.6c0,0,0.1,0.1,0.2,0
			l1.7-1.9C108.4,125.8,108.6,125.7,108.9,125.7z M112.4,126c-3,0-5.4-2.3-5.5-5.3c-0.1-1.5,0.4-2.9,1.4-4c1-1.1,2.4-1.7,3.8-1.8
			c3.1-0.1,5.6,2.2,5.7,5.3c0.1,1.5-0.4,2.9-1.4,4c-1,1.1-2.4,1.7-3.8,1.8C112.5,126,112.5,126,112.4,126z M112.4,116.8l-0.2,0
			c-1,0-1.9,0.5-2.6,1.2c-0.7,0.7-1,1.7-1,2.7c0.1,2,1.7,3.6,3.7,3.6l0.2,0c1,0,1.9-0.5,2.6-1.2c0.7-0.7,1-1.7,1-2.7
			C116,118.3,114.4,116.8,112.4,116.8z"/>
	</g>
	<g>
		<path class="st1" d="M600.5,377.2H9.6c-1,0-1.8-0.8-1.8-1.8s0.8-1.8,1.8-1.8h590.8c1,0,1.8,0.8,1.8,1.8S601.4,377.2,600.5,377.2z"
			/>
	</g>
	<g>
		<path class="st1" d="M452.2,388.4H172.2c-1,0-1.8-0.8-1.8-1.8s0.8-1.8,1.8-1.8h280.1c1,0,1.8,0.8,1.8,1.8S453.2,388.4,452.2,388.4
			z"/>
	</g>
	<g>
		<path class="st1" d="M134,399.6h-31.3c-1,0-1.8-0.8-1.8-1.8s0.8-1.8,1.8-1.8H134c1,0,1.8,0.8,1.8,1.8S134.9,399.6,134,399.6z"/>
	</g>
	<g>
		<path class="st1" d="M200.1,399.6h-12.9c-1,0-1.8-0.8-1.8-1.8s0.8-1.8,1.8-1.8h12.9c1,0,1.8,0.8,1.8,1.8S201.1,399.6,200.1,399.6z
			"/>
	</g>
	<g>
		<path class="st1" d="M282.1,399.6h-62.3c-1,0-1.8-0.8-1.8-1.8s0.8-1.8,1.8-1.8h62.3c1,0,1.8,0.8,1.8,1.8S283,399.6,282.1,399.6z"
			/>
	</g>
	<g>
		<path class="st1" d="M382.7,399.6h-26.4c-1,0-1.8-0.8-1.8-1.8s0.8-1.8,1.8-1.8h26.4c1,0,1.8,0.8,1.8,1.8S383.7,399.6,382.7,399.6z
			"/>
	</g>
	<g>
		<path class="st1" d="M548.4,80.1H305.7c-1,0-1.8-0.8-1.8-1.8V54.7c0-1,0.8-1.8,1.8-1.8h189.1c0.1,0,0.3,0,0.4,0l53.6,11.8
			c0.8,0.2,1.4,0.9,1.4,1.7v11.8C550.1,79.3,549.4,80.1,548.4,80.1z M307.5,76.6h239.2V68l-52-11.5H307.5V76.6z"/>
	</g>
	<g>
		<path class="st1" d="M494.8,80.1c-1,0-1.8-0.8-1.8-1.8V31.5l-10-18.7l-10.1,18.7v23.2c0,1-0.8,1.8-1.8,1.8s-1.8-0.8-1.8-1.8V31.1
			c0-0.3,0.1-0.6,0.2-0.8l11.8-22c0.3-0.6,0.9-0.9,1.6-0.9c0,0,0,0,0,0c0.7,0,1.2,0.4,1.6,0.9l11.8,22c0.1,0.3,0.2,0.5,0.2,0.8v47.3
			C496.5,79.3,495.7,80.1,494.8,80.1z"/>
	</g>
	<g>
		<path class="st1" d="M471.1,80.1c-1,0-1.8-0.8-1.8-1.8V54.7c0-1,0.8-1.8,1.8-1.8s1.8,0.8,1.8,1.8v23.6
			C472.9,79.3,472.1,80.1,471.1,80.1z"/>
	</g>
	<g>
		<g>
			<path class="st1" d="M471.1,80.1h-23.6c-0.7,0-1.4-0.4-1.6-1.1c-0.3-0.7-0.1-1.4,0.4-1.9l11.8-11.8c0.7-0.7,1.8-0.7,2.5,0
				l11.8,11.8c0.5,0.5,0.7,1.3,0.4,1.9C472.5,79.7,471.8,80.1,471.1,80.1z M451.8,76.6h15.1l-7.6-7.6L451.8,76.6z"/>
		</g>
		<g>
			<path class="st1" d="M459.3,68.3c-0.5,0-0.9-0.2-1.2-0.5L446.2,56c-0.5-0.5-0.7-1.3-0.4-1.9c0.3-0.7,0.9-1.1,1.6-1.1h23.6
				c0.7,0,1.4,0.4,1.6,1.1c0.3,0.7,0.1,1.4-0.4,1.9l-11.8,11.8C460.2,68.1,459.8,68.3,459.3,68.3z M451.8,56.5l7.6,7.5l7.5-7.5
				H451.8z"/>
		</g>
	</g>
	<g>
		<path class="st1" d="M447.5,80.1c-1,0-1.8-0.8-1.8-1.8V54.7c0-1,0.8-1.8,1.8-1.8s1.8,0.8,1.8,1.8v23.6
			C449.3,79.3,448.5,80.1,447.5,80.1z"/>
	</g>
	<g>
		<g>
			<path class="st1" d="M447.5,80.1h-23.6c-0.7,0-1.4-0.4-1.6-1.1c-0.3-0.7-0.1-1.4,0.4-1.9l11.8-11.8c0.7-0.7,1.8-0.7,2.5,0
				l11.8,11.8c0.5,0.5,0.7,1.3,0.4,1.9C448.9,79.7,448.2,80.1,447.5,80.1z M428.1,76.6h15.1l-7.6-7.6L428.1,76.6z"/>
		</g>
		<g>
			<path class="st1" d="M435.7,68.3c-0.5,0-0.9-0.2-1.2-0.5L422.6,56c-0.5-0.5-0.7-1.3-0.4-1.9c0.3-0.7,0.9-1.1,1.6-1.1h23.6
				c0.7,0,1.4,0.4,1.6,1.1c0.3,0.7,0.1,1.4-0.4,1.9l-11.8,11.8C436.6,68.1,436.1,68.3,435.7,68.3z M428.1,56.5l7.6,7.5l7.5-7.5
				H428.1z"/>
		</g>
	</g>
	<g>
		<path class="st1" d="M423.9,80.1c-1,0-1.8-0.8-1.8-1.8V54.7c0-1,0.8-1.8,1.8-1.8s1.8,0.8,1.8,1.8v23.6
			C425.6,79.3,424.8,80.1,423.9,80.1z"/>
	</g>
	<g>
		<g>
			<path class="st1" d="M423.9,80.1h-23.6c-0.7,0-1.4-0.4-1.6-1.1c-0.3-0.7-0.1-1.4,0.4-1.9l11.8-11.8c0.7-0.7,1.8-0.7,2.5,0
				l11.8,11.8c0.5,0.5,0.7,1.3,0.4,1.9C425.2,79.7,424.6,80.1,423.9,80.1z M404.5,76.6h15.1l-7.6-7.6L404.5,76.6z"/>
		</g>
		<g>
			<path class="st1" d="M412,68.3c-0.5,0-0.9-0.2-1.2-0.5L399,56c-0.5-0.5-0.7-1.3-0.4-1.9c0.3-0.7,0.9-1.1,1.6-1.1h23.6
				c0.7,0,1.4,0.4,1.6,1.1c0.3,0.7,0.1,1.4-0.4,1.9l-11.8,11.8C412.9,68.1,412.5,68.3,412,68.3z M404.5,56.5l7.5,7.5l7.6-7.5H404.5z
				"/>
		</g>
	</g>
	<g>
		<path class="st1" d="M400.2,80.1c-1,0-1.8-0.8-1.8-1.8V54.7c0-1,0.8-1.8,1.8-1.8s1.8,0.8,1.8,1.8v23.6
			C402,79.3,401.2,80.1,400.2,80.1z"/>
	</g>
	<g>
		<g>
			<path class="st1" d="M400.2,80.1h-23.6c-0.7,0-1.4-0.4-1.6-1.1c-0.3-0.7-0.1-1.4,0.4-1.9l11.8-11.8c0.7-0.7,1.8-0.7,2.5,0
				l11.8,11.8c0.5,0.5,0.7,1.3,0.4,1.9C401.6,79.7,400.9,80.1,400.2,80.1z M380.9,76.6H396l-7.6-7.6L380.9,76.6z"/>
		</g>
		<g>
			<path class="st1" d="M388.4,68.3c-0.5,0-0.9-0.2-1.2-0.5L375.3,56c-0.5-0.5-0.7-1.3-0.4-1.9c0.3-0.7,0.9-1.1,1.6-1.1h23.6
				c0.7,0,1.4,0.4,1.6,1.1c0.3,0.7,0.1,1.4-0.4,1.9l-11.8,11.8C389.3,68.1,388.9,68.3,388.4,68.3z M380.9,56.5l7.5,7.5l7.6-7.5
				H380.9z"/>
		</g>
	</g>
	<g>
		<path class="st1" d="M376.6,80.1c-1,0-1.8-0.8-1.8-1.8V54.7c0-1,0.8-1.8,1.8-1.8s1.8,0.8,1.8,1.8v23.6
			C378.4,79.3,377.6,80.1,376.6,80.1z"/>
	</g>
	<g>
		<g>
			<path class="st1" d="M376.6,80.1H353c-0.7,0-1.4-0.4-1.6-1.1c-0.3-0.7-0.1-1.4,0.4-1.9l11.8-11.8c0.7-0.7,1.8-0.7,2.5,0
				l11.8,11.8c0.5,0.5,0.7,1.3,0.4,1.9C377.9,79.7,377.3,80.1,376.6,80.1z M357.2,76.6h15.1l-7.6-7.6L357.2,76.6z"/>
		</g>
		<g>
			<path class="st1" d="M364.8,68.3c-0.5,0-0.9-0.2-1.2-0.5L351.7,56c-0.5-0.5-0.7-1.3-0.4-1.9c0.3-0.7,0.9-1.1,1.6-1.1h23.6
				c0.7,0,1.4,0.4,1.6,1.1c0.3,0.7,0.1,1.4-0.4,1.9L366,67.8C365.7,68.1,365.2,68.3,364.8,68.3z M357.2,56.5l7.5,7.5l7.6-7.5H357.2z
				"/>
		</g>
	</g>
	<g>
		<path class="st1" d="M353,80.1c-1,0-1.8-0.8-1.8-1.8V54.7c0-1,0.8-1.8,1.8-1.8c1,0,1.8,0.8,1.8,1.8v23.6
			C354.7,79.3,353.9,80.1,353,80.1z"/>
	</g>
	<g>
		<g>
			<path class="st1" d="M353,80.1h-23.6c-0.7,0-1.4-0.4-1.6-1.1c-0.3-0.7-0.1-1.4,0.4-1.9l11.8-11.8c0.7-0.7,1.8-0.7,2.5,0
				l11.8,11.8c0.5,0.5,0.7,1.3,0.4,1.9C354.3,79.7,353.7,80.1,353,80.1z M333.6,76.6h15.1l-7.6-7.6L333.6,76.6z"/>
		</g>
		<g>
			<path class="st1" d="M341.1,68.3c-0.5,0-0.9-0.2-1.2-0.5L328.1,56c-0.5-0.5-0.7-1.3-0.4-1.9c0.3-0.7,0.9-1.1,1.6-1.1H353
				c0.7,0,1.4,0.4,1.6,1.1c0.3,0.7,0.1,1.4-0.4,1.9l-11.8,11.8C342,68.1,341.6,68.3,341.1,68.3z M333.6,56.5l7.5,7.5l7.6-7.5H333.6z
				"/>
		</g>
	</g>
	<g>
		<path class="st1" d="M329.3,80.1c-1,0-1.8-0.8-1.8-1.8V54.7c0-1,0.8-1.8,1.8-1.8c1,0,1.8,0.8,1.8,1.8v23.6
			C331.1,79.3,330.3,80.1,329.3,80.1z"/>
	</g>
	<g>
		<g>
			<path class="st1" d="M329.3,80.1h-23.6c-0.7,0-1.4-0.4-1.6-1.1c-0.3-0.7-0.1-1.4,0.4-1.9l11.8-11.8c0.7-0.7,1.8-0.7,2.5,0
				l11.8,11.8c0.5,0.5,0.7,1.3,0.4,1.9C330.7,79.7,330,80.1,329.3,80.1z M310,76.6h15.1l-7.6-7.6L310,76.6z"/>
		</g>
		<g>
			<path class="st1" d="M317.5,68.3c-0.5,0-0.9-0.2-1.2-0.5L304.4,56c-0.5-0.5-0.7-1.3-0.4-1.9c0.3-0.7,0.9-1.1,1.6-1.1h23.6
				c0.7,0,1.4,0.4,1.6,1.1c0.3,0.7,0.1,1.4-0.4,1.9l-11.8,11.8C318.4,68.1,318,68.3,317.5,68.3z M310,56.5l7.5,7.5l7.6-7.5H310z"/>
		</g>
	</g>
	<g>
		<path class="st1" d="M305.7,80.1c-1,0-1.8-0.8-1.8-1.8V54.7c0-1,0.8-1.8,1.8-1.8c1,0,1.8,0.8,1.8,1.8v23.6
			C307.5,79.3,306.7,80.1,305.7,80.1z"/>
	</g>
	<g>
		<path class="st1" d="M305.7,80.1h-52.9c-1,0-1.8-0.8-1.8-1.8V62.1c0-0.9,0.7-1.6,1.5-1.8l52.9-7.4c0.5-0.1,1,0.1,1.4,0.4
			c0.4,0.3,0.6,0.8,0.6,1.3l0,23.6C307.5,79.3,306.7,80.1,305.7,80.1z M254.6,76.6h49.4l0-19.8l-49.4,6.9V76.6z"/>
	</g>
	<g>
		<path class="st1" d="M548.4,89.7h-30.9c-1,0-1.8-0.8-1.8-1.8v-9.1c0-1,0.8-1.8,1.8-1.8h30.9c1,0,1.8,0.8,1.8,1.8v9.1
			C550.1,88.9,549.4,89.7,548.4,89.7z M519.2,86.1h27.4v-5.6h-27.4V86.1z"/>
	</g>
	<rect x="444.9" y="362.9" class="st3" width="76" height="12.5"/>
	<g>
		<path class="st1" d="M520.9,377.2h-76c-1,0-1.8-0.8-1.8-1.8v-12.5c0-1,0.8-1.8,1.8-1.8h76c1,0,1.8,0.8,1.8,1.8v12.5
			C522.7,376.4,521.9,377.2,520.9,377.2z M446.7,373.6h72.5v-9h-72.5V373.6z"/>
	</g>
	<g>
		<path class="st1" d="M416.5,262.2c-0.2,0-0.5-0.1-0.6-0.3c-0.3-0.3-0.3-0.9,0-1.2l2.3-2.3l-2.2-2.2c-0.3-0.3-0.3-0.9,0-1.2
			c0.3-0.3,0.9-0.3,1.2,0l2.8,2.8c0.2,0.2,0.3,0.4,0.3,0.6c0,0.2-0.1,0.5-0.3,0.6l-2.9,2.9C416.9,262.1,416.7,262.2,416.5,262.2z"/>
	</g>
	<g>
		<path class="st1" d="M120.2,262.2c-0.2,0-0.5-0.1-0.6-0.3l-2.9-2.9c-0.3-0.3-0.3-0.9,0-1.2l2.8-2.8c0.3-0.3,0.9-0.3,1.2,0
			c0.3,0.3,0.3,0.9,0,1.2l-2.2,2.2l2.3,2.3c0.3,0.3,0.3,0.9,0,1.2C120.7,262.1,120.4,262.2,120.2,262.2z"/>
	</g>
	<polygon class="st7" points="63.6,370.2 40.8,370.2 47.8,339.3 56.5,339.3 	"/>
	<g>
		<path class="st1" d="M63.6,371.9C63.6,371.9,63.6,371.9,63.6,371.9H40.8c-0.5,0-1-0.2-1.4-0.7c-0.3-0.4-0.5-1-0.3-1.5l7.1-30.9
			c0.2-0.8,0.9-1.4,1.7-1.4h8.7c0.8,0,1.5,0.6,1.7,1.4l7,30.7c0.1,0.2,0.1,0.4,0.1,0.6C65.4,371.1,64.6,371.9,63.6,371.9z M43,368.4
			h18.4L55.1,341h-5.9L43,368.4z"/>
	</g>
	<g>
		<g>
			<polygon class="st2" points="43.4,358.6 61,358.6 58.8,349.1 45.6,349.1 			"/>
		</g>
		<g>
			<path class="st1" d="M61,360.4H43.4c-0.5,0-1-0.2-1.4-0.7c-0.3-0.4-0.5-1-0.3-1.5l2.2-9.5c0.2-0.8,0.9-1.4,1.7-1.4h13.2
				c0.8,0,1.5,0.6,1.7,1.4l2.2,9.5c0.1,0.5,0,1.1-0.3,1.5C62,360.2,61.5,360.4,61,360.4z M45.6,356.9h13.1l-1.4-6H47L45.6,356.9z"/>
		</g>
	</g>
	<rect x="37.3" y="370.2" class="st3" width="29.8" height="5.2"/>
	<path class="st1" d="M67.1,377.2H37.3c-1,0-1.8-0.8-1.8-1.8v-5.2c0-1,0.8-1.8,1.8-1.8h29.8c1,0,1.8,0.8,1.8,1.8v5.2
		C68.9,376.4,68.1,377.2,67.1,377.2z M39,373.6h26.3v-1.7H39V373.6z"/>
	<g>
		<polygon class="st7" points="394.7,370.4 402,348.8 429,365.5 426.2,373.7 		"/>
	</g>
	<g>
		<path class="st1" d="M426.2,375.5c-0.1,0-0.1,0-0.2,0l-31.5-3.3c-0.5-0.1-1-0.4-1.3-0.8c-0.3-0.5-0.4-1-0.2-1.5l7.4-21.6
			c0.2-0.5,0.6-0.9,1.1-1.1c0.5-0.2,1.1-0.1,1.5,0.2l27,16.7c0.7,0.4,1,1.3,0.7,2.1l-2.8,8.3C427.6,375,426.9,375.5,426.2,375.5z
			 M397,368.9l27.9,2.9l1.9-5.6L403,351.5L397,368.9z"/>
	</g>
	<g>
		<g>
			<polygon class="st2" points="412.1,355 406.4,371.7 416.1,372.7 420.4,360.2 			"/>
		</g>
		<g>
			<path class="st1" d="M416.1,374.5c-0.1,0-0.1,0-0.2,0l-9.7-1c-0.5-0.1-1-0.4-1.3-0.8c-0.3-0.5-0.4-1-0.2-1.5l5.7-16.6
				c0.2-0.5,0.6-0.9,1.1-1.1c0.5-0.2,1.1-0.1,1.5,0.2l8.3,5.1c0.7,0.4,1,1.3,0.7,2.1l-4.3,12.5C417.5,374,416.8,374.5,416.1,374.5z
				 M408.8,370.1l6.1,0.6l3.4-9.9l-5.2-3.2L408.8,370.1z"/>
		</g>
	</g>
	
		<rect x="381" y="356.2" transform="matrix(-0.3233 0.9463 -0.9463 -0.3233 863.3625 100.1622)" class="st3" width="29.8" height="5.2"/>
	<path class="st1" d="M393.5,375.5c-0.2,0-0.4,0-0.6-0.1l-5-1.7c-0.4-0.2-0.8-0.5-1-0.9c-0.2-0.4-0.2-0.9-0.1-1.4l9.6-28.2
		c0.3-0.9,1.3-1.4,2.2-1.1l5,1.7c0.4,0.2,0.8,0.5,1,0.9c0.2,0.4,0.2,0.9,0.1,1.4l-9.6,28.2C394.9,375.1,394.3,375.5,393.5,375.5z
		 M390.8,371l1.6,0.6l8.5-24.9l-1.6-0.6L390.8,371z"/>
	<g>
		<g>
			<g>
				<circle class="st4" cx="75.1" cy="214.7" r="15.7"/>
			</g>
			<g>
				<path class="st1" d="M75.1,231.7c-9.4,0-17-7.6-17-17c0-9.4,7.6-17,17-17s17,7.6,17,17C92.1,224.1,84.5,231.7,75.1,231.7z
					 M75.1,200.4c-7.9,0-14.3,6.4-14.3,14.3s6.4,14.3,14.3,14.3s14.3-6.4,14.3-14.3S83,200.4,75.1,200.4z"/>
			</g>
		</g>
		<g>
			<g>
				<path class="st1" d="M73,221.2c-0.1,0-0.2,0-0.3-0.1c-0.5-0.2-0.7-0.7-0.5-1.1l4.3-11.2c0.2-0.5,0.7-0.7,1.1-0.5
					c0.5,0.2,0.7,0.7,0.5,1.1l-4.3,11.2C73.7,221,73.3,221.2,73,221.2z"/>
			</g>
			<g>
				<path class="st1" d="M78.8,218.7c-0.3,0-0.6-0.2-0.8-0.5c-0.2-0.4,0-1,0.4-1.2l4.5-2.2l-4.5-2.2c-0.4-0.2-0.6-0.7-0.4-1.2
					c0.2-0.4,0.7-0.6,1.2-0.4l6.1,3c0.3,0.1,0.5,0.5,0.5,0.8c0,0.3-0.2,0.7-0.5,0.8l-6.1,3C79.1,218.6,78.9,218.7,78.8,218.7z"/>
			</g>
			<g>
				<path class="st1" d="M71.5,218.7c-0.1,0-0.3,0-0.4-0.1l-6.1-3c-0.3-0.1-0.5-0.5-0.5-0.8c0-0.3,0.2-0.7,0.5-0.8l6.1-3
					c0.4-0.2,1,0,1.2,0.4c0.2,0.4,0,1-0.4,1.2l-4.5,2.2l4.5,2.2c0.4,0.2,0.6,0.7,0.4,1.2C72.1,218.5,71.8,218.7,71.5,218.7z"/>
			</g>
		</g>
	</g>
	<g>
		<circle class="st3" cx="359.7" cy="355" r="15.7"/>
	</g>
	<g>
		<path class="st1" d="M359.7,372c-9.4,0-17-7.6-17-17c0-9.4,7.6-17,17-17s17,7.6,17,17C376.7,364.4,369.1,372,359.7,372z
			 M359.7,340.7c-7.9,0-14.3,6.4-14.3,14.3c0,7.9,6.4,14.3,14.3,14.3c7.9,0,14.3-6.4,14.3-14.3C374,347.1,367.6,340.7,359.7,340.7z"
			/>
	</g>
	<g>
		<path class="st1" d="M355,361.5c-0.1,0-0.2,0-0.3-0.1c-0.5-0.2-0.7-0.7-0.5-1.1l4.3-11.2c0.2-0.5,0.7-0.7,1.1-0.5
			c0.5,0.2,0.7,0.7,0.5,1.1l-4.3,11.2C355.7,361.3,355.3,361.5,355,361.5z"/>
	</g>
	<g>
		<path class="st1" d="M360.1,361.5c-0.1,0-0.2,0-0.3-0.1c-0.5-0.2-0.7-0.7-0.5-1.1l4.3-11.2c0.2-0.5,0.7-0.7,1.1-0.5
			c0.5,0.2,0.7,0.7,0.5,1.1L361,361C360.8,361.3,360.5,361.5,360.1,361.5z"/>
	</g>
	<g>
		<g>
			<path class="st1" d="M539.9,231.5c-0.3,0-0.7-0.1-0.9-0.4l-7.3-7.3c-0.5-0.5-0.5-1.4,0-1.9c0.5-0.5,1.4-0.5,1.9,0l7.3,7.3
				c0.5,0.5,0.5,1.4,0,1.9C540.6,231.4,540.3,231.5,539.9,231.5z"/>
		</g>
		<g>
			<path class="st1" d="M532.6,231.5c-0.3,0-0.7-0.1-0.9-0.4c-0.5-0.5-0.5-1.4,0-1.9l7.3-7.3c0.5-0.5,1.4-0.5,1.9,0
				c0.5,0.5,0.5,1.4,0,1.9l-7.3,7.3C533.3,231.4,533,231.5,532.6,231.5z"/>
		</g>
	</g>
	<g>
		<g>
			<path class="st1" d="M55.8,285.9c-0.3,0-0.7-0.1-0.9-0.4l-7.3-7.3c-0.5-0.5-0.5-1.4,0-1.9c0.5-0.5,1.4-0.5,1.9,0l7.3,7.3
				c0.5,0.5,0.5,1.4,0,1.9C56.5,285.8,56.2,285.9,55.8,285.9z"/>
		</g>
		<g>
			<path class="st1" d="M48.5,285.9c-0.3,0-0.7-0.1-0.9-0.4c-0.5-0.5-0.5-1.4,0-1.9l7.3-7.3c0.5-0.5,1.4-0.5,1.9,0
				c0.5,0.5,0.5,1.4,0,1.9l-7.3,7.3C49.2,285.8,48.9,285.9,48.5,285.9z"/>
		</g>
	</g>
	<g>
		<g>
			<path class="st1" d="M293,358.9c-0.3,0-0.7-0.1-0.9-0.4l-7.3-7.3c-0.5-0.5-0.5-1.4,0-1.9c0.5-0.5,1.4-0.5,1.9,0l7.3,7.3
				c0.5,0.5,0.5,1.4,0,1.9C293.6,358.7,293.3,358.9,293,358.9z"/>
		</g>
		<g>
			<path class="st1" d="M285.7,358.9c-0.3,0-0.7-0.1-0.9-0.4c-0.5-0.5-0.5-1.4,0-1.9l7.3-7.3c0.5-0.5,1.4-0.5,1.9,0
				c0.5,0.5,0.5,1.4,0,1.9l-7.3,7.3C286.4,358.7,286,358.9,285.7,358.9z"/>
		</g>
	</g>
	<g>
		<g>
			<path class="st1" d="M190.9,116.5c-0.7,0-1.3-0.6-1.3-1.3v-10.3c0-0.7,0.6-1.3,1.3-1.3c0.7,0,1.3,0.6,1.3,1.3v10.3
				C192.2,115.9,191.6,116.5,190.9,116.5z"/>
		</g>
		<g>
			<path class="st1" d="M196,111.4h-10.3c-0.7,0-1.3-0.6-1.3-1.3c0-0.7,0.6-1.3,1.3-1.3H196c0.7,0,1.3,0.6,1.3,1.3
				C197.4,110.8,196.8,111.4,196,111.4z"/>
		</g>
	</g>
	<g>
		<g>
			<path class="st1" d="M569,355.9c-0.7,0-1.3-0.6-1.3-1.3v-10.3c0-0.7,0.6-1.3,1.3-1.3c0.7,0,1.3,0.6,1.3,1.3v10.3
				C570.3,355.3,569.7,355.9,569,355.9z"/>
		</g>
		<g>
			<path class="st1" d="M574.1,350.8h-10.3c-0.7,0-1.3-0.6-1.3-1.3s0.6-1.3,1.3-1.3h10.3c0.7,0,1.3,0.6,1.3,1.3
				S574.9,350.8,574.1,350.8z"/>
		</g>
	</g>
	<g>
		<path class="st1" d="M424.8,166.6c-0.1,0-0.2,0-0.2,0l-156.2-20.9l-156.2,20.9c-1,0.1-1.9-0.6-2-1.5c-0.1-1,0.5-1.9,1.5-2
			l156.4-20.9c0.2,0,0.3,0,0.5,0L425,163c1,0.1,1.6,1,1.5,2C426.4,165.9,425.7,166.6,424.8,166.6z"/>
	</g>
	<g>
		<path class="st1" d="M268.4,111.1c-1,0-1.8-0.8-1.8-1.8v-31c0-1,0.8-1.8,1.8-1.8s1.8,0.8,1.8,1.8v31
			C270.1,110.3,269.3,111.1,268.4,111.1z"/>
	</g>
	<rect x="264.3" y="109.4" class="st3" width="8.1" height="18.6"/>
	<g>
		<path class="st1" d="M272.4,129.7h-8.1c-1,0-1.8-0.8-1.8-1.8v-18.6c0-1,0.8-1.8,1.8-1.8h8.1c1,0,1.8,0.8,1.8,1.8V128
			C274.1,128.9,273.3,129.7,272.4,129.7z M266,126.2h4.6v-15.1H266V126.2z"/>
	</g>
	<g>
		<path class="st1" d="M268.6,151.4c-5.4,0-9.8-4.4-9.8-9.8c0-4.8,3.5-8.8,8.1-9.7V128c0-1,0.8-1.8,1.8-1.8s1.8,0.8,1.8,1.8v5.5
			c0,1-0.8,1.8-1.8,1.8c-3.5,0-6.3,2.8-6.3,6.3c0,3.5,2.8,6.3,6.3,6.3c3.5,0,6.3-2.8,6.3-6.3c0-1,0.8-1.8,1.8-1.8s1.8,0.8,1.8,1.8
			C278.4,147,274,151.4,268.6,151.4z"/>
	</g>
	<g>
		<path class="st1" d="M524.6,132.3h-3c-0.7,0-1.3-0.6-1.3-1.3c0-0.7,0.6-1.3,1.3-1.3h3c0.7,0,1.3,0.6,1.3,1.3
			C525.9,131.7,525.3,132.3,524.6,132.3z"/>
	</g>
	<g>
		<path class="st1" d="M531.2,132.3h-3c-0.7,0-1.3-0.6-1.3-1.3c0-0.7,0.6-1.3,1.3-1.3h3c0.7,0,1.3,0.6,1.3,1.3
			C532.5,131.7,531.9,132.3,531.2,132.3z"/>
	</g>
	<g>
		<path class="st1" d="M549.6,132.3h-14.7c-0.7,0-1.3-0.6-1.3-1.3c0-0.7,0.6-1.3,1.3-1.3h14.7c0.7,0,1.3,0.6,1.3,1.3
			C550.9,131.7,550.3,132.3,549.6,132.3z"/>
	</g>
	<g>
		<path class="st1" d="M98.7,182.4h-3c-0.7,0-1.3-0.6-1.3-1.3s0.6-1.3,1.3-1.3h3c0.7,0,1.3,0.6,1.3,1.3S99.4,182.4,98.7,182.4z"/>
	</g>
	<g>
		<path class="st1" d="M92,182.4h-3c-0.7,0-1.3-0.6-1.3-1.3s0.6-1.3,1.3-1.3h3c0.7,0,1.3,0.6,1.3,1.3S92.8,182.4,92,182.4z"/>
	</g>
	<g>
		<path class="st1" d="M85.4,182.4H70.7c-0.7,0-1.3-0.6-1.3-1.3s0.6-1.3,1.3-1.3h14.7c0.7,0,1.3,0.6,1.3,1.3S86.1,182.4,85.4,182.4z
			"/>
	</g>
	<g>
		<path class="st1" d="M548.4,68.3c-0.4,0-0.8-0.1-1.2-0.4L482.5,11L306.1,56.4c-0.9,0.2-1.9-0.3-2.2-1.3c-0.2-0.9,0.3-1.9,1.3-2.2
			L482.5,7.4c0.6-0.1,1.2,0,1.6,0.4l65.4,57.5c0.7,0.6,0.8,1.8,0.2,2.5C549.4,68.1,548.9,68.3,548.4,68.3z"/>
	</g>
	<g>
		<path class="st1" d="M134.7,349.8c-0.3,0-0.7-0.1-0.9-0.4l-4.6-4.6c-0.5-0.5-0.5-1.4,0-1.9c0.5-0.5,1.4-0.5,1.9,0l3.6,3.6l9-9
			c0.5-0.5,1.4-0.5,1.9,0c0.5,0.5,0.5,1.4,0,1.9l-9.9,9.9C135.3,349.6,135,349.8,134.7,349.8z"/>
	</g>
	<g>
		<path class="st1" d="M149.2,350.5h-4.7c-0.7,0-1.3-0.6-1.3-1.3c0-0.7,0.6-1.3,1.3-1.3h4.7c0.7,0,1.3,0.6,1.3,1.3
			C150.6,349.9,150,350.5,149.2,350.5z"/>
	</g>
	<g>
		<path class="st1" d="M173.2,350.5h-19.5c-0.7,0-1.3-0.6-1.3-1.3c0-0.7,0.6-1.3,1.3-1.3h19.5c0.7,0,1.3,0.6,1.3,1.3
			C174.5,349.9,174,350.5,173.2,350.5z"/>
	</g>
	<g>
		<path class="st1" d="M395,126.4c-0.3,0-0.7-0.1-0.9-0.4l-4.6-4.6c-0.5-0.5-0.5-1.4,0-1.9c0.5-0.5,1.4-0.5,1.9,0l3.6,3.6l9-9
			c0.5-0.5,1.4-0.5,1.9,0c0.5,0.5,0.5,1.4,0,1.9L396,126C395.7,126.3,395.4,126.4,395,126.4z"/>
	</g>
	<g>
		<path class="st1" d="M409.6,127.1h-4.7c-0.7,0-1.3-0.6-1.3-1.3c0-0.7,0.6-1.3,1.3-1.3h4.7c0.7,0,1.3,0.6,1.3,1.3
			C410.9,126.5,410.3,127.1,409.6,127.1z"/>
	</g>
	<g>
		<path class="st1" d="M433.6,127.1h-19.5c-0.7,0-1.3-0.6-1.3-1.3c0-0.7,0.6-1.3,1.3-1.3h19.5c0.7,0,1.3,0.6,1.3,1.3
			C434.9,126.5,434.3,127.1,433.6,127.1z"/>
	</g>
	<g>
		<path class="st1" d="M326,351.6h-25.6c-0.7,0-1.3-0.6-1.3-1.3c0-0.7,0.6-1.3,1.3-1.3H326c0.7,0,1.3,0.6,1.3,1.3
			C327.3,351,326.7,351.6,326,351.6z"/>
	</g>
	<g>
		<path class="st1" d="M314.9,358.9h-14.5c-0.7,0-1.3-0.6-1.3-1.3c0-0.7,0.6-1.3,1.3-1.3h14.5c0.7,0,1.3,0.6,1.3,1.3
			C316.2,358.3,315.6,358.9,314.9,358.9z"/>
	</g>
	<rect x="71.5" y="255.4" class="st3" width="10.4" height="10.4"/>
	<g>
		<rect x="442.3" y="168.2" class="st5" width="10.4" height="10.4"/>
	</g>
	<g>
		<circle class="st3" cx="546.7" cy="342.6" r="3.8"/>
	</g>
	<g>
		<circle class="st8" cx="15.8" cy="178.6" r="3.8"/>
	</g>
	<g>
		<path class="st0" d="M558,197c0,2.1-1.7,3.8-3.8,3.8c-2.1,0-3.8-1.7-3.8-3.8c0-2.1,1.7-3.8,3.8-3.8C556.3,193.2,558,194.9,558,197
			z"/>
	</g>
	<g>
		<path class="st4" d="M518.2,161.4c0,2.1-1.7,3.8-3.8,3.8s-3.8-1.7-3.8-3.8c0-2.1,1.7-3.8,3.8-3.8S518.2,159.3,518.2,161.4z"/>
	</g>
	<g>
		<path class="st4" d="M129.8,238.9c1.9-1.9,4.1-2.8,6.8-2.8c2.6,0,4.9,0.9,6.8,2.8c1.9,1.9,2.8,4.1,2.8,6.8v3.2h-6.4v-3.2
			c0-0.9-0.3-1.7-0.9-2.3c-0.6-0.6-1.4-0.9-2.3-0.9s-1.6,0.3-2.3,0.9c-0.6,0.6-0.9,1.4-0.9,2.3v25.5c0,0.9,0.3,1.6,0.9,2.3
			c0.6,0.6,1.4,0.9,2.3,0.9s1.6-0.3,2.3-0.9c0.6-0.6,0.9-1.4,0.9-2.3V268h6.4v3.2c0,2.6-0.9,4.9-2.8,6.8c-1.9,1.9-4.1,2.8-6.8,2.8
			c-2.6,0-4.9-0.9-6.8-2.8c-1.9-1.9-2.8-4.1-2.8-6.8v-25.5C127,243.1,128,240.8,129.8,238.9z"/>
		<path class="st4" d="M156.7,238.9c1.9-1.9,4.1-2.8,6.8-2.8c2.6,0,4.9,0.9,6.8,2.8c1.9,1.9,2.8,4.1,2.8,6.8v25.5
			c0,2.6-0.9,4.9-2.8,6.8c-1.9,1.9-4.1,2.8-6.8,2.8c-2.6,0-4.9-0.9-6.8-2.8c-1.9-1.9-2.8-4.1-2.8-6.8v-25.5
			C153.9,243.1,154.8,240.8,156.7,238.9z M165.7,243.4c-0.6-0.6-1.4-0.9-2.3-0.9s-1.6,0.3-2.3,0.9c-0.6,0.6-0.9,1.4-0.9,2.3v9v7.5v9
			c0,0.9,0.3,1.6,0.9,2.3c0.6,0.6,1.4,0.9,2.3,0.9s1.6-0.3,2.3-0.9c0.6-0.6,0.9-1.4,0.9-2.3v-9v-7.5v-9
			C166.7,244.8,166.4,244,165.7,243.4z"/>
		<path class="st4" d="M193.1,271.2l-4.8-14.4v23.9h-6.4v-44.6h6.4l8,23.9l8-23.9h6.4v44.6h-6.4v-23.9l-4.8,14.4H193.1z"/>
		<path class="st4" d="M226.5,280.7h-6.4v-44.6h6.4V280.7z"/>
		<path class="st4" d="M235.7,236.1h6.4l6.4,22.3v-22.3h6.4v44.6h-6.4l-6.4-22.3v22.3h-6.4V236.1z"/>
		<path class="st4" d="M266.3,238.9c1.9-1.9,4.1-2.8,6.8-2.8c2.6,0,4.9,0.9,6.8,2.8c1.9,1.9,2.8,4.1,2.8,6.8h-6.4
			c0-0.9-0.3-1.7-0.9-2.3c-0.6-0.6-1.4-0.9-2.3-0.9s-1.6,0.3-2.3,0.9c-0.6,0.6-0.9,1.4-0.9,2.3v25.5c0,0.9,0.3,1.6,0.9,2.3
			c0.6,0.6,1.4,0.9,2.3,0.9s1.6-0.3,2.3-0.9c0.6-0.6,0.9-1.4,0.9-2.3v-9.6h-3.2v-6.4h9.6v15.9c0,2.6-0.9,4.9-2.8,6.8
			c-1.9,1.9-4.1,2.8-6.8,2.8c-2.6,0-4.9-0.9-6.8-2.8c-1.9-1.9-2.8-4.1-2.8-6.8v-25.5C263.5,243.1,264.4,240.8,266.3,238.9z"/>
		<path class="st4" d="M311.7,268v3.2c0,0.9,0.3,1.6,0.9,2.3c0.6,0.6,1.4,0.9,2.3,0.9s1.6-0.3,2.3-0.9c0.6-0.6,0.9-1.4,0.9-2.3v-6.4
			c0-0.9-0.3-1.6-0.9-2.3c-0.6-0.6-1.4-0.9-2.3-0.9c-2.9,0-5.3-1.1-7.2-3.2c-1.6-1.8-2.4-4-2.4-6.4v-6.3c0-2.6,0.9-4.9,2.8-6.8
			c1.9-1.9,4.1-2.8,6.8-2.8c2.6,0,4.9,0.9,6.8,2.8c1.9,1.9,2.8,4.1,2.8,6.8v3.2h-0.6H318v-3.2c0-0.9-0.3-1.7-0.9-2.3
			c-0.6-0.6-1.4-0.9-2.3-0.9s-1.6,0.3-2.3,0.9c-0.6,0.6-0.9,1.4-0.9,2.3v6.3c0,0.9,0.3,1.7,0.9,2.3c0.6,0.6,1.4,0.9,2.3,0.9
			c2.8,0,5.2,1.1,7.1,3.2c1.6,1.8,2.4,4,2.4,6.4v6.4c0,2.6-0.9,4.9-2.8,6.8c-1.9,1.9-4.1,2.8-6.8,2.8c-2.6,0-4.9-0.9-6.8-2.8
			c-1.9-1.9-2.8-4.1-2.8-6.8V268H311.7z"/>
		<path class="st4" d="M334.9,238.9c1.9-1.9,4.1-2.8,6.8-2.8c2.6,0,4.9,0.9,6.8,2.8c1.9,1.9,2.8,4.1,2.8,6.8v25.5
			c0,2.6-0.9,4.9-2.8,6.8c-1.9,1.9-4.1,2.8-6.8,2.8c-2.6,0-4.9-0.9-6.8-2.8c-1.9-1.9-2.8-4.1-2.8-6.8v-25.5
			C332.1,243.1,333,240.8,334.9,238.9z M343.9,243.4c-0.6-0.6-1.4-0.9-2.3-0.9c-0.9,0-1.6,0.3-2.3,0.9c-0.6,0.6-0.9,1.4-0.9,2.3v9
			v7.5v9c0,0.9,0.3,1.6,0.9,2.3c0.6,0.6,1.4,0.9,2.3,0.9c0.9,0,1.7-0.3,2.3-0.9c0.6-0.6,0.9-1.4,0.9-2.3v-9v-7.5v-9
			C344.8,244.8,344.5,244,343.9,243.4z"/>
		<path class="st4" d="M362.5,238.9c1.9-1.9,4.1-2.8,6.8-2.8c2.6,0,4.9,0.9,6.8,2.8c1.9,1.9,2.8,4.1,2.8,6.8v25.5
			c0,2.6-0.9,4.9-2.8,6.8c-1.9,1.9-4.1,2.8-6.8,2.8c-2.6,0-4.9-0.9-6.8-2.8c-1.9-1.9-2.8-4.1-2.8-6.8v-25.5
			C359.7,243.1,360.7,240.8,362.5,238.9z M371.5,243.4c-0.6-0.6-1.4-0.9-2.3-0.9c-0.9,0-1.6,0.3-2.3,0.9c-0.6,0.6-0.9,1.4-0.9,2.3v9
			v7.5v9c0,0.9,0.3,1.6,0.9,2.3c0.6,0.6,1.4,0.9,2.3,0.9c0.9,0,1.6-0.3,2.3-0.9c0.6-0.6,0.9-1.4,0.9-2.3v-9v-7.5v-9
			C372.5,244.8,372.2,244,371.5,243.4z"/>
		<path class="st4" d="M387.5,236.1h6.4l6.4,22.3v-22.3h6.4v44.6h-6.4l-6.4-22.3v22.3h-6.4V236.1z"/>
	</g>
</g>
</svg>
